<?xml version="1.0" encoding="UTF-8"?>
<svg xmlns="http://www.w3.org/2000/svg" viewBox="0 0 48 48" width="512" height="512"><g id="Dissapointed"><path d="M24,1A22.7059,22.7059,0,0,0,10.6226,5.3075,27.544,27.544,0,0,0,7.1963,1.2817a1.0007,1.0007,0,0,0-1.3926,0C5.002,2.0591,1,6.0708,1,8.7222a5.2369,5.2369,0,0,0,2.6758,4.52A22.9969,22.9969,0,1,0,24,1ZM6.5,3.4229C8.1328,5.1421,10,7.5581,10,8.7222A3.3982,3.3982,0,0,1,6.5,12,3.3982,3.3982,0,0,1,3,8.7222C3,7.5581,4.8672,5.1421,6.5,3.4229ZM24,45A20.99,20.99,0,0,1,5.5837,13.9206,5.7127,5.7127,0,0,0,6.5,14,5.3988,5.3988,0,0,0,12,8.7222a4.3481,4.3481,0,0,0-.3984-1.6558A20.73,20.73,0,0,1,24,3a21,21,0,0,1,0,42ZM16.5,20A3.5,3.5,0,1,0,13,16.5,3.5042,3.5042,0,0,0,16.5,20Zm0-5A1.5,1.5,0,1,1,15,16.5,1.5016,1.5016,0,0,1,16.5,15Zm15-2A3.5,3.5,0,1,0,35,16.5,3.5042,3.5042,0,0,0,31.5,13Zm0,5A1.5,1.5,0,1,1,33,16.5,1.5016,1.5016,0,0,1,31.5,18Zm3.3,15.4a1,1,0,1,1-1.6,1.2c-.11-.1431-2.835-3.6-9.2-3.6-6.4258,0-9.1729,3.564-9.2,3.6a1,1,0,0,1-1.6-1.2C13.335,33.22,16.585,29,24,29S34.665,33.22,34.8,33.4Z"/></g></svg>
