<svg width="21" height="21" viewBox="0 0 21 21" fill="none" xmlns="http://www.w3.org/2000/svg">
<g clip-path="url(#clip0_853_930)">
<path d="M14.5644 17.6128H14.4952C13.6056 17.6128 12.7267 17.7554 11.8829 18.0367L9.98982 18.6677C9.39284 18.8667 8.77105 18.9676 8.14177 18.9676H3.72572C2.55925 18.9676 1.44498 19.5248 0.745075 20.458L0.338623 20.9999H20.6612L20.2548 20.458C18.9186 18.6764 16.7914 17.6128 14.5644 17.6128ZM1.81129 20.3225C2.34848 19.8903 3.02556 19.6451 3.72572 19.6451H8.14173C8.84396 19.6451 9.53785 19.5325 10.204 19.3104L12.0971 18.6794C12.8717 18.4212 13.6786 18.2903 14.4952 18.2903H14.5644C16.3421 18.2903 18.0493 19.0392 19.257 20.3225H1.81129V20.3225Z" fill="black"/>
<path d="M4.06445 1.35474H4.74187V4.74183H4.06445V1.35474Z" fill="black"/>
<path d="M5.41943 1.35474H6.09685V4.74183H5.41943V1.35474Z" fill="black"/>
<path d="M6.77417 1.35474H7.45159V4.74183H6.77417V1.35474Z" fill="black"/>
<path d="M19.1952 12.5613C19.3949 12.761 19.6604 12.871 19.9428 12.871C20.5257 12.871 21 12.3967 21 11.8137V3.0895C21 2.50654 20.5257 2.03226 19.9428 2.03226C19.6604 2.03226 19.3949 2.14225 19.1952 2.34192L18.8275 2.70968H15.5614C15.3923 1.18769 14.0986 0 12.5323 0C11.5076 0 10.549 0.520681 9.98741 1.37017C9.49721 1.41369 9.01463 1.54951 8.57469 1.76946L7.97754 2.06803L8.28048 2.67394L8.87762 2.37537C9.32654 2.15089 9.8291 2.03226 10.331 2.03226C11.8659 2.03226 13.1705 3.07874 13.5035 4.57711L13.5564 4.81539L14.2177 4.66844L14.1648 4.43015C14.1173 4.21638 14.0517 4.00774 13.9697 3.80621C14.9492 4.38616 15.5806 5.44988 15.5806 6.63333C15.5806 7.95942 14.7683 9.16616 13.5484 9.67029V8.80645C14.2955 8.80645 14.9032 8.19868 14.9032 7.45161C14.9032 6.70455 14.2955 6.09677 13.5484 6.09677H13.5373C13.4242 4.9574 12.4602 4.06452 11.2915 4.06452C10.943 4.06452 10.594 4.14691 10.2823 4.3028L9.6354 4.62622C9.48391 4.70192 9.31443 4.74194 9.14516 4.74194C8.97589 4.74194 8.80641 4.70192 8.65496 4.62622L8.28048 4.439L7.97754 5.04491L8.35203 5.23218C8.59704 5.35462 8.87127 5.41935 9.14516 5.41935C9.41905 5.41935 9.69328 5.35462 9.93829 5.23213L10.5852 4.90871C10.8034 4.7996 11.0476 4.74198 11.2916 4.74198C12.1625 4.74198 12.871 5.45052 12.871 6.32142V6.77419H13.5484C13.9219 6.77419 14.2258 7.0781 14.2258 7.45161C14.2258 7.82512 13.9219 8.12903 13.5484 8.12903H12.871V11.8268L12.4536 14.3314C12.3329 15.0553 11.7128 15.5806 10.9789 15.5806C10.1545 15.5806 9.48387 14.91 9.48387 14.0856V13.1514C9.87809 13.0116 10.1613 12.6351 10.1613 12.1935V12.1387C10.8503 12.016 11.4849 11.6876 11.9902 11.1824L12.0943 11.0782L11.6154 10.5992L11.5112 10.7034C10.987 11.2275 10.2902 11.5161 9.54903 11.5161C8.01899 11.5161 6.77419 10.2713 6.77419 8.74129V7.28078C6.97911 7.3906 7.21083 7.45161 7.45161 7.45161C7.99859 7.45161 8.49035 7.14771 8.7349 6.65852L8.77068 6.58701L8.16481 6.284L8.12903 6.35555C7.9999 6.61381 7.74032 6.77424 7.45161 6.77424C7.21752 6.77424 6.99935 6.66589 6.85722 6.48561C6.94977 6.17658 7.1179 5.89342 7.35241 5.65891L6.87344 5.17993C6.47278 5.58054 6.21668 6.08691 6.13001 6.636C5.69871 6.39331 5.41935 5.93369 5.41935 5.41935H4.74194C4.74194 5.77826 4.83356 6.11926 4.99707 6.4174C4.83123 6.66233 4.74194 6.95087 4.74194 7.25321V7.31134C4.74194 8.08894 5.3387 8.72952 6.09826 8.7998C6.11689 9.91183 6.66318 10.8975 7.49789 11.5162H1.89199L1.32579 12.0824C1.25407 12.154 1.15868 12.1935 1.05724 12.1935C0.847833 12.1935 0.677419 12.0232 0.677419 11.8137V3.0895C0.677419 2.88005 0.84779 2.70968 1.05724 2.70968C1.15868 2.70968 1.25407 2.74918 1.32579 2.8209L1.89199 3.3871H3.3871V2.70968H2.17253L1.80477 2.34192C1.6051 2.14225 1.33964 2.03226 1.05724 2.03226C0.474278 2.03226 0 2.50654 0 3.0895V11.8138C0 12.3967 0.474278 12.871 1.05724 12.871C1.15945 12.871 1.25941 12.8564 1.35484 12.8285V15.5826C1.35484 16.4821 1.79605 17.28 2.473 17.7727C1.66188 17.943 0.881026 18.2473 0.164444 18.6773L0.512976 19.2582C1.56827 18.625 2.77657 18.2903 4.00723 18.2903H6.60077H6.60094C8.10388 18.2903 9.58231 18.0299 10.995 17.5162L11.0405 17.4996C12.07 17.1253 13.1438 16.9355 14.2323 16.9355C16.5403 16.9355 18.7101 17.8342 20.342 19.4662L20.4218 19.546L20.9008 19.067L20.821 18.9872C19.9514 18.1176 18.9343 17.438 17.7981 16.9674C17.7366 16.9419 17.6748 16.9174 17.6129 16.8933V16.2722C17.6129 15.072 17.1653 13.9247 16.3526 13.0415C16.0458 12.708 15.6967 12.4242 15.3171 12.1936H18.8274L19.1952 12.5613ZM5.41935 7.31134V7.25321C5.41935 7.16282 5.43468 7.07501 5.46271 6.99177C5.64701 7.15029 5.86078 7.27739 6.09677 7.36435V8.11616C5.71264 8.04927 5.41935 7.71428 5.41935 7.31134ZM13.3944 2.82636C13.2158 2.60328 13.0131 2.39887 12.7884 2.21868C12.2272 1.76849 11.5495 1.48198 10.8403 1.38854C11.2812 0.940597 11.89 0.677419 12.5323 0.677419C13.8396 0.677419 14.9032 1.74105 14.9032 3.04839C14.9032 3.23485 14.8815 3.41741 14.8397 3.59494C14.4256 3.24801 13.9368 2.98272 13.3944 2.82636ZM13.6864 10.3443C15.2246 9.76746 16.2581 8.27616 16.2581 6.63333C16.2581 5.70053 15.9323 4.8297 15.3773 4.14263C15.4712 3.89914 15.5337 3.64668 15.5622 3.3871H19.108L19.6742 2.8209C19.7459 2.74918 19.8413 2.70968 19.9428 2.70968C20.1522 2.70968 20.3226 2.88005 20.3226 3.0895V11.8138C20.3226 12.0232 20.1522 12.1936 19.9428 12.1936C19.8413 12.1936 19.7459 12.1541 19.6742 12.0824L19.108 11.5161H13.5484V10.396L13.6864 10.3443ZM9.14516 12.5323C7.5354 12.5323 5.97577 13.1092 4.75358 14.1568L4.74194 14.1668V12.1935H9.48387C9.48387 12.3803 9.33192 12.5323 9.14516 12.5323ZM2.03226 15.5826V12.3338L2.17253 12.1935H4.06452V15.6397L5.19445 14.6712C5.92746 14.0429 6.79545 13.6031 7.72169 13.3795L7.39475 13.8699C6.98877 14.4788 6.77419 15.1875 6.77419 15.9194C6.77419 16.0374 6.78037 16.1547 6.79143 16.2712L5.13852 17.3043C4.81556 17.5062 4.44345 17.6129 4.06253 17.6129C2.94301 17.6129 2.03226 16.7022 2.03226 15.5826ZM6.60077 17.6129H5.92293L6.9303 16.9833C6.99397 17.1951 7.07692 17.401 7.17815 17.599C6.98618 17.608 6.79371 17.6129 6.60077 17.6129ZM10.8089 16.863L10.7634 16.8796C9.84252 17.2145 8.89219 17.4357 7.92504 17.5411C7.61542 17.0556 7.45161 16.4964 7.45161 15.9194C7.45161 15.3217 7.62685 14.7429 7.95836 14.2456L8.63447 13.2315C8.69167 13.2267 8.74904 13.2227 8.80645 13.2195V14.0857C8.80645 15.2835 9.781 16.2581 10.9789 16.2581C12.0453 16.2581 12.9465 15.4946 13.1217 14.4428L13.4905 12.2303C13.6911 12.2627 13.8867 12.3099 14.0764 12.3707C13.7687 13.65 13.6779 14.9578 13.8058 16.2673C12.7843 16.3108 11.7782 16.5106 10.8089 16.863ZM16.9355 16.2722V16.6583C16.141 16.4168 15.321 16.2841 14.4859 16.2617C14.3604 15.0436 14.4362 13.8265 14.7106 12.6349C16.0327 13.322 16.9355 14.7093 16.9355 16.2722Z" fill="black"/>
<path d="M11.1775 7.45155C11.7244 7.45155 12.2162 7.14765 12.4607 6.65846L12.4965 6.58695L11.8907 6.28394L11.8549 6.35549C11.7257 6.61375 11.4662 6.77418 11.1775 6.77418C10.8888 6.77418 10.6292 6.61375 10.5 6.35545L10.4643 6.28394L9.8584 6.58695L9.89413 6.65842C10.1387 7.14765 10.6305 7.45155 11.1775 7.45155Z" fill="black"/>
<path d="M7.86195 10.277L7.82617 10.3485L8.43204 10.6515L8.46781 10.58C8.59695 10.3217 8.85653 10.1613 9.14523 10.1613C9.43394 10.1613 9.69352 10.3217 9.82265 10.58L9.85843 10.6515L10.4643 10.3485L10.4286 10.277C10.184 9.78779 9.69221 9.48389 9.14523 9.48389C8.59826 9.48389 8.1065 9.78779 7.86195 10.277Z" fill="black"/>
<path d="M8.81645 7.03076L8.41187 8.6492L9.33227 9.10938L9.63524 8.50351L9.2008 8.28627L9.47364 7.19504L8.81645 7.03076Z" fill="black"/>
</g>
<defs>
<clipPath id="clip0_853_930">
<rect width="21" height="21" fill="white"/>
</clipPath>
</defs>
</svg>
