<svg width="25" height="25" viewBox="0 0 25 25" fill="none" xmlns="http://www.w3.org/2000/svg">
<g clip-path="url(#clip0_853_754)">
<path d="M21.4372 4.03406L21.815 5.09631C21.8311 5.14179 21.8632 5.17781 21.9036 5.19605L22.8473 5.62126C22.9806 5.68136 22.9806 5.89378 22.8473 5.95383L21.9036 6.37904C21.8632 6.39724 21.8312 6.4333 21.815 6.47878L21.4372 7.54104C21.3838 7.6911 21.1951 7.6911 21.1417 7.54104L20.7639 6.47878C20.7478 6.4333 20.7157 6.39728 20.6753 6.37904L19.7316 5.95383C19.5983 5.89378 19.5983 5.68131 19.7316 5.62126L20.6753 5.19605C20.7157 5.17786 20.7477 5.14179 20.7639 5.09631L21.1417 4.03406C21.1951 3.88399 21.3838 3.88399 21.4372 4.03406Z" fill="black"/>
<path d="M7.31692 0.998411L7.59713 1.78638C7.60913 1.82009 7.63289 1.84684 7.66284 1.86037L8.36293 2.17579C8.46185 2.22037 8.46185 2.37794 8.36293 2.42247L7.66284 2.7379C7.63289 2.75138 7.60913 2.77813 7.59713 2.81189L7.31692 3.59986C7.27732 3.71118 7.13731 3.71118 7.09771 3.59986L6.81749 2.81189C6.8055 2.77817 6.78174 2.75143 6.75178 2.7379L6.0517 2.42247C5.95282 2.3779 5.95282 2.22032 6.0517 2.17579L6.75178 1.86037C6.78174 1.84688 6.8055 1.82014 6.81749 1.78638L7.09771 0.998411C7.13731 0.887086 7.27732 0.887086 7.31692 0.998411Z" fill="black"/>
<path d="M18.7593 2.64371C18.7593 2.95027 18.5108 3.19876 18.2043 3.19876C17.8977 3.19876 17.6492 2.95022 17.6492 2.64371C17.6492 2.33716 17.8977 2.08862 18.2043 2.08862C18.5108 2.08862 18.7593 2.33711 18.7593 2.64371Z" fill="black"/>
<path d="M3.60712 5.73569C3.60712 6.1885 3.24002 6.55561 2.7872 6.55561C2.33439 6.55561 1.96729 6.1885 1.96729 5.73569C1.96729 5.28287 2.33439 4.91577 2.7872 4.91577C3.24002 4.91582 3.60712 5.28287 3.60712 5.73569Z" fill="black"/>
<path d="M12.0732 24.0851C6.90434 24.0851 2.69922 19.88 2.69922 14.7111C2.69922 9.54232 6.90434 5.33716 12.0732 5.33716C17.2421 5.33716 21.4472 9.54232 21.4472 14.7111C21.4471 19.88 17.242 24.0851 12.0732 24.0851ZM12.0732 6.24731C7.40621 6.24731 3.60942 10.0442 3.60942 14.7111C3.60942 19.378 7.40626 23.1749 12.0732 23.1749C16.7401 23.1749 20.537 19.3781 20.537 14.7111C20.537 10.0442 16.7401 6.24731 12.0732 6.24731Z" fill="black"/>
<path d="M9.96493 12.6126C9.71363 12.6126 9.50985 12.4089 9.50985 12.1575C9.50985 11.4591 8.94164 10.8909 8.24323 10.8909C7.54477 10.8909 6.97656 11.4591 6.97656 12.1575C6.97656 12.4089 6.77278 12.6126 6.52148 12.6126C6.27019 12.6126 6.06641 12.4089 6.06641 12.1575C6.06641 10.9572 7.04295 9.98071 8.24327 9.98071C9.44356 9.98071 10.4201 10.9573 10.4201 12.1575C10.42 12.4089 10.2162 12.6126 9.96493 12.6126Z" fill="black"/>
<path d="M17.6253 12.6126C17.374 12.6126 17.1703 12.4089 17.1703 12.1575C17.1703 11.4591 16.602 10.8909 15.9036 10.8909C15.2052 10.8909 14.637 11.4591 14.637 12.1575C14.637 12.4089 14.4332 12.6126 14.1819 12.6126C13.9306 12.6126 13.7268 12.4089 13.7268 12.1575C13.7268 10.9572 14.7033 9.98071 15.9036 9.98071C17.104 9.98071 18.0805 10.9573 18.0805 12.1575C18.0804 12.4089 17.8766 12.6126 17.6253 12.6126Z" fill="black"/>
<path d="M18.1297 14.4249H6.0166C5.7653 14.4249 5.56152 14.6287 5.56152 14.88C5.56152 18.4705 8.48264 21.3916 12.0732 21.3916C15.6637 21.3916 18.5848 18.4705 18.5848 14.88C18.5848 14.6287 18.381 14.4249 18.1297 14.4249ZM8.61605 19.284C9.23717 18.2884 10.5769 17.6392 12.0732 17.6392C13.5694 17.6392 14.9091 18.2884 15.5303 19.284C14.5775 20.0336 13.3767 20.4815 12.0732 20.4815C10.7696 20.4815 9.56884 20.0336 8.61605 19.284ZM16.2051 18.6576C15.385 17.4841 13.8076 16.7291 12.0731 16.7291C10.3386 16.7291 8.76109 17.484 7.94104 18.6575C7.12511 17.7657 6.59296 16.6101 6.48992 15.3351H17.6563C17.5533 16.6102 17.0211 17.7658 16.2051 18.6576Z" fill="black"/>
</g>
<defs>
<clipPath id="clip0_853_754">
<rect width="23.1702" height="23.1702" fill="white" transform="translate(0.872314 0.914917)"/>
</clipPath>
</defs>
</svg>
