<svg id="a" height="24" viewBox="0 0 24 24" width="24" xmlns="http://www.w3.org/2000/svg"><path d="m12 1.25c-5.92773 0-10.75 4.82227-10.75 10.75s4.82227 10.75 10.75 10.75 10.75-4.82227 10.75-10.75-4.82227-10.75-10.75-10.75zm0 20c-5.10059 0-9.25-4.14941-9.25-9.25s4.14941-9.25 9.25-9.25 9.25 4.14941 9.25 9.25-4.14941 9.25-9.25 9.25zm-4-11.25c0-.55231.44769-1 1-1s1 .44769 1 1c0 .55225-.44769 1-1 1s-1-.44775-1-1zm7 1c-.55231 0-1-.44775-1-1 0-.55231.44769-1 1-1s1 .44769 1 1c0 .55225-.44769 1-1 1zm2.80084 2.83997c.12811.21967.19562.46948.19562.72375 0 .79321-.64301 1.43628-1.43622 1.43628h-.32043c-.79327 0-1.43628-.64307-1.43628-1.43628 0-.25427.0675-.50409.19562-.72375l.90839-1.55713c.22003-.37714.76501-.37714.98499 0l.90833 1.55713zm-4.9375 1.31311c.09039.51782.29474.99384.58972 1.40485-.46674.12292-.95093.19208-1.45306.19208-1.7832 0-3.36719-.78711-4.58105-2.27637-.26172-.32031-.21387-.79297.10742-1.05469.31836-.26074.79199-.21582 1.05469.10742.93262 1.14355 2.08301 1.72363 3.41895 1.72363.29828 0 .58392-.03931.86334-.09692z"/></svg>