<svg viewBox="0 0 512 512" xmlns="http://www.w3.org/2000/svg"><g id="Straving"><path d="m420.8822 207.7831a6.194 6.194 0 0 0 -7.1577 5.0132l-3.4873 19.7782-10.6521-1.8779 3.4873-19.7812a6.1792 6.1792 0 1 0 -12.1709-2.1445l-3.4873 19.78-10.652-1.8784 3.4873-19.78a6.1792 6.1792 0 1 0 -12.1709-2.1445l-4.5606 25.862a29.3956 29.3956 0 0 0 17.84 32.278l-3.4229 19.4176c-.27-.0055-.5311-.0407-.8017-.0407a39.9321 39.9321 0 0 0 -22.3743 6.8283 105.06 105.06 0 1 0 -198.3308 0 39.921 39.921 0 0 0 -16.8321-6.4l-3.5533-20.1532-.012-.0684-.0121-.07-9.6462-54.7027a6.1771 6.1771 0 0 0 -7.1577-5.0132 40.165 40.165 0 0 0 -32.5838 46.5331l3.7559 21.3a6.1791 6.1791 0 0 0 7.1577 5.0132l27.3875-4.8281 2.153 12.2081a40.1527 40.1527 0 1 0 47.1381 39.5232c0-.5814-.0623-1.1472-.0875-1.7225a104.9025 104.9025 0 0 0 162.915 0c-.0251.5753-.0875 1.1411-.0875 1.7225a40.17 40.17 0 1 0 53.1416-37.98l3.4239-19.4222a29.3275 29.3275 0 0 0 27.806-24.2276l4.5606-25.8647a6.1781 6.1781 0 0 0 -5.0132-7.1576zm-319.3966 54.5035-2.6836-15.2146a27.8365 27.8365 0 0 1 16.5906-30.4675l7.3931 41.9262zm32.5677 87.9584a27.81 27.81 0 1 1 27.81-27.81 27.84 27.84 0 0 1 -27.81 27.81zm121.54-3.09a92.7 92.7 0 1 1 92.7-92.7 92.804 92.804 0 0 1 -92.7 92.7zm149.35-24.72a27.81 27.81 0 1 1 -27.81-27.81 27.84 27.84 0 0 1 27.81 27.81zm-15.4681-69.9877a17.012 17.012 0 0 1 -13.6978-13.4l15.5667 2.745.01.0026.012.001 15.5607 2.7439a17.0315 17.0315 0 0 1 -17.4516 7.9075z"/><path d="m326.949 274.6848a6.1654 6.1654 0 0 0 -11.5815-4.1552l-11.7041-11.7031a30.8988 30.8988 0 0 0 -43.6966 43.6985l11.5825 11.5825a61.1436 61.1436 0 0 1 -15.956 2.1475 62.0663 62.0663 0 0 1 -59.4644-44.9458 6.18 6.18 0 1 0 -11.8892 3.3756 74.4732 74.4732 0 0 0 71.3536 53.93 73.6235 73.6235 0 0 0 29.1926-6.0452 6.0884 6.0884 0 0 0 1.3473-.61 74.6316 74.6316 0 0 0 37.3355-37.6679c.0483-.1066.1026-.2107.1449-.32a73.4994 73.4994 0 0 0 3.3354-9.2869zm-42.8285 34.5161-15.4148-15.4148a18.54 18.54 0 0 1 26.2187-26.2207l15.4219 15.42a62.2234 62.2234 0 0 1 -26.2258 26.2155z"/><path d="m274.1333 229.735a6.179 6.179 0 0 0 6.18-6.18 12.36 12.36 0 0 1 24.72 0 6.18 6.18 0 0 0 12.36 0 24.72 24.72 0 0 0 -49.44 0 6.179 6.179 0 0 0 6.18 6.18z"/><path d="m199.9733 229.735a6.179 6.179 0 0 0 6.18-6.18 12.36 12.36 0 1 1 24.72 0 6.18 6.18 0 0 0 12.36 0 24.72 24.72 0 0 0 -49.44 0 6.179 6.179 0 0 0 6.18 6.18z"/></g></svg>