<svg width="19" height="19" viewBox="0 0 19 19" fill="none" xmlns="http://www.w3.org/2000/svg">
<g clip-path="url(#clip0_853_725)">
<path d="M5.18492 10.6218C5.07059 10.5763 4.94119 10.5903 4.83932 10.6594C4.74057 10.7264 4.68023 10.8366 4.67667 10.9554C4.67612 10.9651 4.67578 10.9748 4.67578 10.9844C4.67578 13.6411 6.82957 15.8086 9.5 15.8086C12.1629 15.8086 14.3242 13.6495 14.3242 10.9844C14.3242 10.975 14.3239 10.9655 14.3233 10.9555C14.3198 10.8367 14.2594 10.7264 14.1607 10.6594C14.0588 10.5904 13.9294 10.5763 13.8151 10.6218C12.6273 11.095 11.0948 11.3555 9.5 11.3555C7.90515 11.3555 6.37272 11.095 5.18492 10.6218ZM7.48778 14.5361C7.97796 13.9331 8.70694 13.5821 9.5 13.5821C10.2931 13.5821 11.022 13.9331 11.5122 14.5361C10.9009 14.8837 10.2126 15.0664 9.5 15.0664C8.78743 15.0664 8.09908 14.8837 7.48778 14.5361ZM12.1231 14.1115C11.4931 13.3087 10.5394 12.8399 9.5 12.8399C8.46064 12.8399 7.50689 13.3087 6.87689 14.1115C6.09076 13.4512 5.5824 12.5197 5.45155 11.5064C6.63 11.8896 8.04387 12.0977 9.5 12.0977C10.9561 12.0977 12.37 11.8896 13.5485 11.5063C13.4176 12.5197 12.9092 13.4511 12.1231 14.1115Z" fill="black"/>
<path d="M4.04422 9.3041C4.15792 9.38674 4.30859 9.39795 4.43331 9.33319L5.78899 8.6293L7.14467 9.33319C7.26988 9.39825 7.42051 9.38633 7.53376 9.3041C7.64747 9.22149 7.70476 9.08174 7.68176 8.94306L7.4316 7.43605L8.51976 6.36404C8.61988 6.2654 8.65569 6.11867 8.61227 5.985C8.56886 5.85129 8.45363 5.75366 8.31466 5.73269L6.80401 5.50499L6.12086 4.13873C6.05804 4.01301 5.92956 3.93359 5.78899 3.93359C5.64842 3.93359 5.51995 4.01301 5.45709 4.13873L4.77394 5.50499L3.26329 5.73269C3.12432 5.75362 3.00909 5.85129 2.96567 5.985C2.92226 6.11867 2.95807 6.2654 3.05819 6.36404L4.14635 7.43605L3.89619 8.94306C3.87322 9.08174 3.93048 9.22149 4.04422 9.3041ZM4.1076 6.35602L5.07505 6.21018C5.19446 6.19218 5.29763 6.11718 5.35166 6.00916L5.78899 5.13445L6.22636 6.00916C6.28039 6.11718 6.38356 6.19218 6.50298 6.21018L7.47042 6.35602L6.77362 7.04247C6.6876 7.12719 6.64819 7.2485 6.66797 7.36762L6.82813 8.33254L5.96003 7.88181C5.85282 7.82614 5.72524 7.82614 5.61803 7.88181L4.74993 8.33254L4.91009 7.36762C4.92987 7.2485 4.89046 7.12719 4.80444 7.04247L4.1076 6.35602Z" fill="black"/>
<path d="M16.0342 5.985C15.9908 5.85129 15.8755 5.75366 15.7366 5.73269L14.2259 5.50499L13.5428 4.13873C13.4799 4.01301 13.3514 3.93359 13.2109 3.93359C13.0703 3.93359 12.9418 4.01301 12.879 4.13873L12.1958 5.50499L10.6852 5.73269C10.5462 5.75362 10.431 5.85129 10.3875 5.985C10.3441 6.11867 10.3799 6.2654 10.4801 6.36404L11.5682 7.43605L11.3181 8.94306C11.2951 9.0817 11.3524 9.22149 11.4661 9.3041C11.5798 9.38674 11.7304 9.39795 11.8552 9.33319L13.2109 8.6293L14.5665 9.33319C14.6918 9.39825 14.8424 9.38633 14.9556 9.3041C15.0693 9.22149 15.1266 9.08174 15.1036 8.94306L14.8535 7.43605L15.9416 6.36404C16.0418 6.2654 16.0776 6.11867 16.0342 5.985ZM14.1955 7.04247C14.1094 7.12719 14.07 7.2485 14.0898 7.36762L14.25 8.33254L13.3819 7.88181C13.2747 7.82614 13.1471 7.82614 13.0399 7.88181L12.1718 8.33254L12.3319 7.36762C12.3517 7.2485 12.3123 7.12719 12.2263 7.04247L11.5295 6.35602L12.4969 6.21018C12.6163 6.19218 12.7195 6.11718 12.7735 6.00916L13.2109 5.13445L13.6482 6.00916C13.7023 6.11718 13.8054 6.19218 13.9249 6.21018L14.8923 6.35602L14.1955 7.04247Z" fill="black"/>
<path d="M3.04297 16.3281C3.24792 16.3281 3.41406 16.162 3.41406 15.957C3.41406 15.7521 3.24792 15.5859 3.04297 15.5859C2.83802 15.5859 2.67188 15.7521 2.67188 15.957C2.67188 16.162 2.83802 16.3281 3.04297 16.3281Z" fill="black"/>
<path d="M9.5 0C4.24598 0 0 4.24472 0 9.5C0 11.4358 0.577422 13.2976 1.66981 14.8842C1.78607 15.0531 2.01719 15.0957 2.18593 14.9794C2.35474 14.8632 2.39738 14.6322 2.28111 14.4633C1.27434 13.0011 0.742188 11.2848 0.742188 9.5C0.742188 4.67092 4.67092 0.742188 9.5 0.742188C14.3291 0.742188 18.2578 4.67092 18.2578 9.5C18.2578 14.3291 14.3291 18.2578 9.5 18.2578C7.71526 18.2578 5.99895 17.7257 4.53666 16.7189C4.36785 16.6027 4.13677 16.6453 4.02054 16.8141C3.90431 16.9829 3.94695 17.2139 4.11576 17.3302C5.70245 18.4226 7.56426 19 9.5 19C14.754 19 19 14.7553 19 9.5C19 4.24602 14.7553 0 9.5 0Z" fill="black"/>
</g>
<defs>
<clipPath id="clip0_853_725">
<rect width="19" height="19" fill="white"/>
</clipPath>
</defs>
</svg>
