<svg width="22" height="22" viewBox="0 0 22 22" fill="none" xmlns="http://www.w3.org/2000/svg">
<g clip-path="url(#clip0_853_905)">
<path d="M20.6791 17.2653C20.6965 16.5216 20.4091 15.8086 19.8722 15.2807C19.4291 14.845 18.863 14.5813 18.2615 14.5186C18.5506 14.0023 18.7769 13.4511 18.9334 12.8758L18.478 12.5031C17.8741 12.8057 17.2213 12.9596 16.5374 12.9605C16.5352 12.9605 16.5331 12.9605 16.5309 12.9605C15.4984 12.9605 14.593 12.6559 13.9126 12.0796C13.7998 11.984 13.7729 11.9613 13.9851 11.6016C14.1704 11.2875 14.4804 10.7618 13.9391 10.2591C13.6209 9.96356 13.2311 10.0165 12.9467 10.0552C12.6259 10.0987 12.5035 10.1002 12.3893 9.94529C12.1909 9.67601 12.1953 9.23902 12.1997 8.81642C12.2003 8.75171 12.201 8.68738 12.201 8.6237C12.201 7.73404 12.4668 6.88502 12.9701 6.15893L14.1633 6.00317L15.6473 7.13922L15.9899 5.302L17.5289 4.24171L15.8875 3.34813L15.3547 1.55676L13.9976 2.84179L12.1293 2.79491L12.547 3.67297C12.325 3.65282 12.1018 3.64242 11.8788 3.64242C10.9388 3.64242 10.0231 3.81877 9.1572 4.16656L9.39744 4.76464C10.1866 4.44766 11.0215 4.28695 11.8788 4.28695C12.2122 4.28695 12.5462 4.31196 12.8742 4.36103L12.932 4.48268L12.4998 5.7081C12.1168 6.23735 11.8455 6.82589 11.6951 7.44915C10.6511 7.99683 9.65637 7.88322 8.99551 7.68466C8.23118 7.45504 7.50711 6.98105 7.01108 6.39513C7.52258 5.85011 8.13072 5.38588 8.81998 5.02911L8.52371 4.45672C6.08373 5.71962 4.56796 8.20888 4.56796 10.9531C4.56796 11.7195 4.69004 12.4779 4.92327 13.1996C4.25429 13.5853 3.69226 14.126 3.28105 14.7819C1.42738 14.9515 0 16.5008 0 18.3832C0 19.3398 0.37602 20.2446 1.05875 20.9309C1.74466 21.6203 2.65311 22 3.61677 22H17.87V21.3554H3.61677C2.82588 21.3554 2.07973 21.0432 1.51568 20.4763C0.953906 19.9116 0.644531 19.1683 0.644531 18.3832C0.644531 16.7879 1.89204 15.4837 3.48459 15.4141L3.6612 15.4063L3.74958 15.2532C4.09196 14.6602 4.57295 14.1682 5.15212 13.8135C5.38979 14.3729 5.69731 14.9032 6.06908 15.3897C5.86635 15.7948 5.75158 16.2512 5.75158 16.7342H6.39611C6.39611 15.4268 7.45976 14.3631 8.76717 14.3631C9.97365 14.3631 10.9719 15.2692 11.1189 16.4364C10.5934 16.511 10.112 16.7573 9.73796 17.149L10.2041 17.5941C10.5352 17.2474 10.9814 17.0565 11.4605 17.0565C12.4182 17.0565 13.1973 17.8356 13.1973 18.7932H13.8418C13.8418 18.5261 13.797 18.2694 13.7155 18.0295C14.8955 17.7239 15.9828 17.1262 16.8795 16.2849C17.2472 15.9399 17.5762 15.5601 17.8628 15.1524C18.4411 15.1195 19.0024 15.3293 19.4203 15.7402C19.8711 16.1835 20.0909 16.798 20.0233 17.4264L19.9978 17.6634L20.217 17.7571C20.9086 18.053 21.3555 18.7297 21.3555 19.4813C21.3555 20.5147 20.5148 21.3554 19.4814 21.3554H18.5146V22H19.4814C20.8701 22 22 20.8701 22 19.4813C22 18.5491 21.4885 17.7027 20.6791 17.2653ZM14.2476 3.49281L15.0361 2.74622L15.3456 3.78706L16.2993 4.30625L15.4051 4.92229L15.206 5.98976L14.3438 5.32968L13.2672 5.47023L13.6284 4.4462L13.162 3.46561L14.2476 3.49281ZM16.4384 15.815C15.5865 16.6143 14.5463 17.1733 13.4185 17.4402C13.0435 16.8992 12.4505 16.5208 11.7676 16.4325C11.6157 14.9108 10.3281 13.7186 8.76717 13.7186C7.83363 13.7186 6.99793 14.1451 6.44437 14.8134C5.64734 13.6913 5.21254 12.3364 5.21254 10.9533C5.21254 9.45231 5.71033 8.03529 6.58857 6.89275C7.16212 7.53965 7.95184 8.04418 8.8101 8.30204C9.16515 8.40869 9.60223 8.49445 10.0901 8.49445C10.5484 8.49445 11.0516 8.41827 11.5732 8.21309C11.5622 8.349 11.5564 8.48595 11.5564 8.62379C11.5564 8.68528 11.5558 8.74741 11.5552 8.80993C11.55 9.31387 11.5442 9.88501 11.8704 10.3278C12.2215 10.8042 12.71 10.7379 13.0334 10.694C13.2923 10.6588 13.4146 10.6518 13.5005 10.7316C13.6353 10.8567 13.6431 10.9128 13.4299 11.2743C13.2593 11.5636 12.9417 12.1021 13.4959 12.5715C13.6502 12.7023 13.8142 12.8208 13.9865 12.9274C13.832 13.4211 13.2979 13.7174 12.8228 13.6926L12.7887 14.3362C12.8213 14.338 12.8538 14.3388 12.8862 14.3388C13.6381 14.3388 14.3074 13.8768 14.5638 13.225C15.1534 13.475 15.8168 13.6052 16.5308 13.6052H16.5381C17.0768 13.6045 17.5991 13.521 18.0981 13.3561C17.739 14.285 17.1732 15.1255 16.4384 15.815Z" fill="black"/>
<path d="M9.41848 10.6329L9.38428 11.2765C9.42755 11.2788 9.47009 11.2799 9.51215 11.2799C10.3641 11.2799 10.9638 10.8117 11.0903 10.0358L10.4542 9.93201C10.3479 10.5841 9.75987 10.6509 9.41848 10.6329Z" fill="black"/>
<path d="M3.86719 5.15604H4.51172C4.51172 3.91222 5.52368 2.90026 6.76758 2.90026V2.25573C5.52368 2.25573 4.51172 1.24382 4.51172 0H3.86719C3.86719 1.24382 2.85523 2.25573 1.61133 2.25573V2.90026C2.85523 2.90026 3.86719 3.91218 3.86719 5.15604ZM4.18945 1.32795C4.46613 1.86287 4.90463 2.30132 5.43954 2.578C4.90463 2.85471 4.46613 3.29312 4.18945 3.82809C3.91278 3.29312 3.47428 2.85471 2.93936 2.578C3.47428 2.30132 3.91278 1.86287 4.18945 1.32795Z" fill="black"/>
<path d="M20.3887 6.98474H19.7441C19.7441 7.87316 19.0213 8.59598 18.1328 8.59598V9.24051C19.0213 9.24051 19.7441 9.96334 19.7441 10.8518H20.3887C20.3887 9.96334 21.1115 9.24051 22 9.24051V8.59598C21.1115 8.59598 20.3887 7.87316 20.3887 6.98474ZM20.0664 9.69087C19.8758 9.37475 19.6099 9.10882 19.2938 8.91829C19.6099 8.72777 19.8759 8.46179 20.0664 8.14571C20.257 8.46184 20.5229 8.72777 20.839 8.91829C20.5229 9.10877 20.257 9.37475 20.0664 9.69087Z" fill="black"/>
<path d="M1.28906 8.85937H1.93359C1.93359 8.14862 2.51187 7.57039 3.22266 7.57039V6.92586C2.51187 6.92586 1.93359 6.34759 1.93359 5.63684H1.28906C1.28906 6.34759 0.710789 6.92586 0 6.92586V7.57039C0.710789 7.57039 1.28906 8.14862 1.28906 8.85937ZM1.61133 6.70461C1.7545 6.91989 1.93957 7.105 2.15484 7.24813C1.93957 7.39125 1.7545 7.57632 1.61133 7.79159C1.4682 7.57632 1.28309 7.39125 1.06782 7.24813C1.28309 7.105 1.4682 6.91989 1.61133 6.70461Z" fill="black"/>
<path d="M18.7773 3.22248H19.4218C19.4218 2.51174 20.0001 1.93351 20.7109 1.93351V1.28898C20.0001 1.28898 19.4218 0.710746 19.4218 0H18.7773C18.7773 0.710746 18.199 1.28898 17.4883 1.28898V1.93351C18.199 1.93351 18.7773 2.51174 18.7773 3.22248ZM19.0996 1.06773C19.2427 1.283 19.4278 1.46807 19.6431 1.6112C19.4278 1.75433 19.2427 1.93939 19.0996 2.15467C18.9564 1.93939 18.7713 1.75433 18.5561 1.6112C18.7713 1.46807 18.9564 1.283 19.0996 1.06773Z" fill="black"/>
<path d="M10.4673 6.31018H11.1118V6.95471H10.4673V6.31018Z" fill="black"/>
<path d="M11.1118 5.02112H11.7563V5.66565H11.1118V5.02112Z" fill="black"/>
</g>
<defs>
<clipPath id="clip0_853_905">
<rect width="22" height="22" fill="white"/>
</clipPath>
</defs>
</svg>
