<svg width="19" height="19" viewBox="0 0 19 19" fill="none" xmlns="http://www.w3.org/2000/svg">
<path d="M15.3722 8.44015C15.5443 7.89538 15.6512 6.85335 15.4375 6.26851C15.353 6.05448 15.2115 5.86771 15.0283 5.72848C14.8451 5.58926 14.6272 5.50291 14.3984 5.47882H14.3687C14.553 5.09365 14.6877 4.68665 14.7695 4.26757C15.0961 2.5457 14.1015 0.840149 12.1496 0.74218C10.9294 0.687258 10.0581 1.49476 9.6484 1.96827C9.25059 1.49476 8.38074 0.685774 7.15762 0.74218C5.22793 0.835696 4.20817 2.52343 4.53324 4.2646C4.58804 4.54856 4.66751 4.8272 4.77074 5.09734C4.65645 5.31554 4.64903 5.60648 4.65793 5.9657C4.65793 6.0414 4.65793 6.11413 4.66535 6.20023C4.68614 6.7064 4.7084 7.28085 4.46348 7.78554C4.1666 8.40749 3.10824 9.71523 2.5709 11.1996C2.17606 12.2995 2.39574 13.3163 2.25028 13.723C2.07957 14.1995 1.89403 14.3435 1.89551 14.3435C1.84632 14.3738 1.80701 14.4177 1.78242 14.47C1.75782 14.5222 1.749 14.5805 1.75704 14.6377C1.76507 14.6949 1.78961 14.7485 1.82766 14.7919C1.8657 14.8354 1.91559 14.8668 1.97121 14.8823C1.98903 14.8823 3.75246 15.387 4.90285 16.1055C5.848 16.7259 6.70185 17.4753 7.43965 18.332C7.47521 18.3751 7.52222 18.4073 7.57527 18.4249C7.62832 18.4425 7.68525 18.4448 7.73953 18.4314C7.7938 18.4181 7.84321 18.3897 7.88207 18.3495C7.92093 18.3094 7.94766 18.2591 7.95918 18.2044C7.98442 18.1509 8.31098 17.5705 10.6711 16.7942C12.9185 16.052 13.5256 14.2708 13.7735 14.0689C14.1639 13.7631 15.1272 12.5044 15.4226 11.7533C15.8041 10.7869 15.9555 9.96015 15.8486 9.42726C15.7944 9.05727 15.6281 8.71278 15.3722 8.44015ZM7.18582 1.33593C8.52176 1.26913 9.39457 2.6021 9.40348 2.61546C9.43032 2.65745 9.46731 2.692 9.51102 2.71593C9.55473 2.73987 9.60376 2.75241 9.6536 2.75241C9.70343 2.75241 9.75246 2.73987 9.79617 2.71593C9.83988 2.692 9.87687 2.65745 9.90371 2.61546C9.91262 2.6021 10.7825 1.27952 12.1214 1.33593C13.7082 1.41312 14.4429 2.80398 14.1891 4.15624C13.7616 6.43773 11.6775 7.81226 9.6484 8.94484C9.35153 8.78156 8.64942 8.37484 7.8909 7.85382C7.79126 7.21128 7.61536 6.58291 7.36692 5.98202C7.08043 5.25023 6.38129 4.56148 5.58567 4.66093C5.47568 4.67435 5.36696 4.69669 5.26059 4.72773C5.19802 4.54188 5.14842 4.35192 5.11215 4.15921C4.86574 2.82031 5.57973 1.41757 7.18582 1.33593ZM14.8704 11.5336C14.6003 12.2209 13.7007 13.3698 13.4083 13.5984C12.963 13.9427 12.5741 15.5399 10.4856 16.2272C8.74887 16.7987 7.97699 17.3034 7.63707 17.6551C6.92147 16.8707 6.10776 16.1817 5.21606 15.6052C4.34028 15.0605 3.18543 14.6478 2.56645 14.4474C2.66497 14.2824 2.74653 14.1078 2.80989 13.9264C3.02067 13.3326 2.75496 12.4509 3.13051 11.403C3.46895 10.4619 4.02114 9.60835 4.46645 8.92406C5.12106 7.91468 5.31699 7.63265 5.26059 6.17499C5.22496 5.28437 5.22199 5.30218 5.66879 5.24577C6.1809 5.18195 6.64551 5.76234 6.81473 6.19429C7.52278 8.00671 7.3491 8.43718 7.15613 9.16304C7.03293 9.6232 6.91715 10.0537 7.03145 10.3995C7.36988 11.4297 7.28379 11.8572 7.2734 11.875C7.26268 11.9125 7.25945 11.9518 7.26391 11.9906C7.26836 12.0293 7.28041 12.0668 7.29936 12.101C7.31832 12.1351 7.3438 12.1651 7.37437 12.1894C7.40493 12.2136 7.43998 12.2317 7.4775 12.2424C7.51503 12.2531 7.55429 12.2563 7.59307 12.2519C7.63184 12.2474 7.66935 12.2354 7.70346 12.2164C7.73758 12.1975 7.76763 12.172 7.79189 12.1414C7.81616 12.1108 7.83416 12.0758 7.84488 12.0383C7.86121 11.9804 7.99332 11.4445 7.5866 10.208C7.49309 9.93046 7.80332 9.16898 7.8909 8.56632C8.75778 9.14226 9.47918 9.52671 9.51332 9.54452C9.55646 9.56765 9.60465 9.57975 9.6536 9.57975C9.70254 9.57975 9.75073 9.56765 9.79387 9.54452C10.6603 9.06959 11.4949 8.53854 12.2921 7.95476C12.4316 7.85085 12.5667 7.74101 12.6973 7.6282C12.5732 8.01841 12.3911 8.38771 12.157 8.72366C11.4014 9.69445 10.9131 9.86218 10.9146 9.86218C10.8734 9.86834 10.834 9.88309 10.7989 9.90547C10.7638 9.92785 10.7338 9.95736 10.7109 9.99209C10.6879 10.0268 10.6725 10.066 10.6657 10.107C10.6588 10.1481 10.6607 10.1901 10.6712 10.2304C10.6816 10.2707 10.7005 10.3083 10.7264 10.3409C10.7524 10.3734 10.7849 10.4001 10.8218 10.4193C10.8588 10.4385 10.8993 10.4497 10.9409 10.4521C10.9824 10.4546 11.024 10.4483 11.063 10.4337C11.1298 10.4159 11.7325 10.2244 12.6186 9.08882C13.2124 8.3214 13.392 7.13687 13.8373 6.37835C13.8816 6.28294 13.9532 6.20281 14.043 6.14811C14.1329 6.09341 14.2369 6.06661 14.342 6.07109C14.4581 6.08496 14.5684 6.12955 14.6616 6.20026C14.7547 6.27097 14.8273 6.36524 14.8719 6.47335C15.0204 6.8771 14.9491 7.72468 14.82 8.18929C14.1416 8.12546 13.8239 8.65538 13.6325 9.29366C13.4113 10.0195 12.8739 10.9131 12.1748 11.2723C12.1071 11.3095 12.0566 11.3716 12.0339 11.4454C12.0112 11.5192 12.0182 11.5989 12.0534 11.6677C12.0885 11.7364 12.1491 11.7888 12.2222 11.8136C12.2953 11.8385 12.3752 11.8339 12.445 11.8008C13.3593 11.3317 13.965 10.2511 14.2039 9.46734C14.4014 8.81866 14.5854 8.77265 14.7532 8.7771C15.0901 8.79046 15.2311 9.37085 15.2668 9.54304C15.3484 9.95421 15.2014 10.6994 14.8704 11.5366V11.5336Z" fill="black"/>
<path d="M15.6408 2.46703C15.5763 2.51198 15.5323 2.58066 15.5184 2.65801C15.5045 2.73537 15.5218 2.81509 15.5666 2.87968C15.7383 3.12787 15.8303 3.42249 15.8303 3.72429C15.8303 4.02609 15.7383 4.32072 15.5666 4.5689C15.5217 4.63366 15.5044 4.7136 15.5184 4.79113C15.5325 4.86865 15.5768 4.93742 15.6415 4.9823C15.7063 5.02718 15.7862 5.0445 15.8638 5.03044C15.9413 5.01638 16.0101 4.9721 16.0549 4.90734C16.2956 4.55977 16.4246 4.14706 16.4246 3.72429C16.4246 3.30153 16.2956 2.88882 16.0549 2.54125C16.0327 2.50911 16.0043 2.48169 15.9714 2.46056C15.9385 2.43943 15.9018 2.425 15.8633 2.41811C15.8248 2.41121 15.7853 2.41198 15.7472 2.42038C15.709 2.42877 15.6728 2.44463 15.6408 2.46703Z" fill="black"/>
<path d="M17.1595 2.06479C17.1171 2.00327 17.053 1.96 16.9801 1.94362C16.9072 1.92724 16.8308 1.93896 16.7661 1.97644C16.7015 2.01392 16.6534 2.07439 16.6313 2.1458C16.6093 2.21721 16.615 2.29429 16.6474 2.36167C16.8897 2.77274 17.0174 3.24121 17.0174 3.71838C17.0174 4.19556 16.8897 4.66402 16.6474 5.0751C16.615 5.14248 16.6093 5.21956 16.6313 5.29097C16.6534 5.36238 16.7015 5.42285 16.7661 5.46033C16.8308 5.49781 16.9072 5.50953 16.9801 5.49315C17.053 5.47677 17.1171 5.4335 17.1595 5.37198C17.4561 4.86924 17.6126 4.29618 17.6126 3.71245C17.6126 3.12872 17.4561 2.55565 17.1595 2.05292V2.06479Z" fill="black"/>
<path d="M3.67975 4.98151C3.74423 4.93656 3.78825 4.86788 3.80216 4.79052C3.81608 4.71317 3.79875 4.63345 3.75397 4.56885C3.58225 4.32067 3.49025 4.02604 3.49025 3.72424C3.49025 3.42244 3.58225 3.12781 3.75397 2.87963C3.79885 2.81487 3.81617 2.73494 3.80211 2.65741C3.78805 2.57988 3.74377 2.51111 3.67901 2.46624C3.61425 2.42136 3.53431 2.40404 3.45679 2.4181C3.37926 2.43216 3.31049 2.47644 3.26561 2.5412C3.02494 2.88877 2.896 3.30148 2.896 3.72424C2.896 4.14701 3.02494 4.55972 3.26561 4.90729C3.28788 4.93942 3.31627 4.96684 3.34916 4.98797C3.38205 5.00911 3.41879 5.02353 3.45726 5.03043C3.49574 5.03733 3.53521 5.03655 3.57339 5.02816C3.61157 5.01976 3.64771 5.00391 3.67975 4.98151Z" fill="black"/>
<path d="M2.56785 5.49216C2.60197 5.47227 2.63179 5.44578 2.65554 5.41422C2.67929 5.38267 2.69651 5.34669 2.70619 5.3084C2.71587 5.27011 2.71781 5.23027 2.71189 5.19122C2.70598 5.15217 2.69234 5.1147 2.67176 5.08099C2.43086 4.67078 2.30386 4.20369 2.30386 3.72798C2.30386 3.25227 2.43086 2.78518 2.67176 2.37497C2.70407 2.3076 2.70979 2.23051 2.68777 2.1591C2.66576 2.0877 2.61762 2.02722 2.55297 1.98974C2.48833 1.95227 2.41192 1.94055 2.33902 1.95693C2.26611 1.9733 2.20206 2.01657 2.15965 2.0781C1.86301 2.58083 1.70654 3.1539 1.70654 3.73763C1.70654 4.32136 1.86301 4.89442 2.15965 5.39716C2.20128 5.46378 2.26761 5.51118 2.34412 5.52899C2.42064 5.5468 2.50109 5.53355 2.56785 5.49216Z" fill="black"/>
</svg>
