<svg width="24" height="25" viewBox="0 0 24 25" fill="none" xmlns="http://www.w3.org/2000/svg">
<g clip-path="url(#clip0_853_710)">
<path d="M21.2885 4.03406L21.6663 5.09631C21.6824 5.14179 21.7145 5.17781 21.7549 5.19605L22.6986 5.62126C22.8319 5.68136 22.8319 5.89378 22.6986 5.95383L21.7549 6.37904C21.7145 6.39724 21.6825 6.4333 21.6663 6.47878L21.2885 7.54104C21.2351 7.6911 21.0464 7.6911 20.993 7.54104L20.6152 6.47878C20.5991 6.4333 20.567 6.39728 20.5266 6.37904L19.5829 5.95383C19.4496 5.89378 19.4496 5.68131 19.5829 5.62126L20.5266 5.19605C20.567 5.17786 20.599 5.14179 20.6152 5.09631L20.993 4.03406C21.0464 3.88399 21.2351 3.88399 21.2885 4.03406Z" fill="black"/>
<path d="M7.16824 0.998411L7.44845 1.78638C7.46045 1.82009 7.4842 1.84684 7.51416 1.86037L8.21425 2.17579C8.31317 2.22037 8.31317 2.37794 8.21425 2.42247L7.51416 2.7379C7.4842 2.75138 7.46045 2.77813 7.44845 2.81189L7.16824 3.59986C7.12864 3.71118 6.98862 3.71118 6.94903 3.59986L6.66881 2.81189C6.65682 2.77817 6.63306 2.75143 6.6031 2.7379L5.90302 2.42247C5.80414 2.3779 5.80414 2.22032 5.90302 2.17579L6.6031 1.86037C6.63306 1.84688 6.65682 1.82014 6.66881 1.78638L6.94903 0.998411C6.98862 0.887086 7.12864 0.887086 7.16824 0.998411Z" fill="black"/>
<path d="M18.6106 2.64371C18.6106 2.95027 18.3621 3.19876 18.0556 3.19876C17.749 3.19876 17.5005 2.95022 17.5005 2.64371C17.5005 2.33716 17.749 2.08862 18.0556 2.08862C18.3621 2.08862 18.6106 2.33711 18.6106 2.64371Z" fill="black"/>
<path d="M3.4582 5.73569C3.4582 6.1885 3.09109 6.55561 2.63828 6.55561C2.18546 6.55561 1.81836 6.1885 1.81836 5.73569C1.81836 5.28287 2.18546 4.91577 2.63828 4.91577C3.09109 4.91582 3.4582 5.28287 3.4582 5.73569Z" fill="black"/>
<path d="M11.9243 24.0851C6.75542 24.0851 2.55029 19.88 2.55029 14.7111C2.55029 9.54232 6.75542 5.33716 11.9243 5.33716C17.0931 5.33716 21.2983 9.54232 21.2983 14.7111C21.2982 19.88 17.0931 24.0851 11.9243 24.0851ZM11.9243 6.24731C7.25729 6.24731 3.46049 10.0442 3.46049 14.7111C3.46049 19.378 7.25733 23.1749 11.9243 23.1749C16.5912 23.1749 20.3881 19.3781 20.3881 14.7111C20.3881 10.0442 16.5912 6.24731 11.9243 6.24731Z" fill="black"/>
<path d="M9.816 12.6126C9.56471 12.6126 9.36093 12.4089 9.36093 12.1575C9.36093 11.4591 8.79271 10.8909 8.0943 10.8909C7.39585 10.8909 6.82764 11.4591 6.82764 12.1575C6.82764 12.4089 6.62386 12.6126 6.37256 12.6126C6.12126 12.6126 5.91748 12.4089 5.91748 12.1575C5.91748 10.9572 6.89402 9.98071 8.09435 9.98071C9.29463 9.98071 10.2712 10.9573 10.2712 12.1575C10.2711 12.4089 10.0673 12.6126 9.816 12.6126Z" fill="black"/>
<path d="M17.4764 12.6126C17.2251 12.6126 17.0213 12.4089 17.0213 12.1575C17.0213 11.4591 16.4531 10.8909 15.7547 10.8909C15.0562 10.8909 14.488 11.4591 14.488 12.1575C14.488 12.4089 14.2843 12.6126 14.033 12.6126C13.7817 12.6126 13.5779 12.4089 13.5779 12.1575C13.5779 10.9572 14.5544 9.98071 15.7547 9.98071C16.955 9.98071 17.9316 10.9573 17.9316 12.1575C17.9315 12.4089 17.7277 12.6126 17.4764 12.6126Z" fill="black"/>
<path d="M17.9808 14.4249H5.86768C5.61638 14.4249 5.4126 14.6287 5.4126 14.88C5.4126 18.4705 8.33372 21.3916 11.9242 21.3916C15.5148 21.3916 18.4359 18.4705 18.4359 14.88C18.4359 14.6287 18.2321 14.4249 17.9808 14.4249ZM8.46713 19.284C9.08824 18.2884 10.428 17.6392 11.9242 17.6392C13.4204 17.6392 14.7602 18.2884 15.3814 19.284C14.4286 20.0336 13.2278 20.4815 11.9242 20.4815C10.6207 20.4815 9.41991 20.0336 8.46713 19.284ZM16.0562 18.6576C15.236 17.4841 13.6587 16.7291 11.9242 16.7291C10.1897 16.7291 8.61217 17.484 7.79211 18.6575C6.97618 17.7657 6.44403 16.6101 6.34099 15.3351H17.5074C17.4044 16.6102 16.8722 17.7658 16.0562 18.6576Z" fill="black"/>
</g>
<defs>
<clipPath id="clip0_853_710">
<rect width="23.1702" height="23.1702" fill="white" transform="translate(0.723389 0.914917)"/>
</clipPath>
</defs>
</svg>
