<svg id="Capa_1" enable-background="new 0 0 512 512" height="512" viewBox="0 0 512 512" width="512" xmlns="http://www.w3.org/2000/svg"><g><g><path d="m316.3 250.484c4.459 17.837 20.414 30.291 38.796 30.291s34.337-12.453 38.796-30.291l4.814-19.258h-87.222zm61.217-2.742c-3.031 9.794-12.065 16.516-22.421 16.516s-19.39-6.722-22.421-16.516z"/><path d="m284.466 184.502 3.691-7.391c3.691-7.366 11.099-11.949 19.34-11.949h1.288c9.323 0 17.565 5.946 20.513 14.782l1.445 4.344 15.666-5.227-1.445-4.344c-5.194-15.591-19.737-26.071-36.179-26.071h-1.288c-11.718 0-22.478 5.252-29.622 14.088l-9.926-4.963-7.391 14.774z"/><path d="m380.895 179.943c2.948-8.836 11.19-14.782 20.513-14.782h1.288c8.242 0 15.649 4.583 19.332 11.949l3.691 7.391 23.907-11.949-7.391-14.774-9.926 4.963c-7.135-8.844-17.895-14.097-29.613-14.097h-1.288c-16.442 0-30.976 10.479-36.179 26.071l-1.445 4.344 15.666 5.227z"/><path d="m9.431 176.359 16.07 12.049c4.715 3.543 7.531 9.183 7.531 15.079 0 4.963-2.015 9.811-5.525 13.329l-1.131 1.14c-6.359 6.342-9.86 14.807-9.86 23.791 0 5.194 1.23 10.397 3.551 15.046l5.574 11.157 14.774-7.391-5.574-11.157c-1.181-2.362-1.809-5.004-1.809-7.655 0-4.583 1.784-8.886 5.029-12.131l1.131-1.14c6.681-6.673 10.356-15.55 10.356-24.989 0-11.066-5.285-21.636-14.138-28.284l-16.062-12.049c-1.775-1.33-2.833-3.435-2.833-5.649v-1.809c0-3.881 3.163-7.052 7.052-7.052 2.692 0 5.112 1.495 6.309 3.906l4.022 8.052 14.774-7.391-4.022-8.052c-4.022-8.043-12.098-13.031-21.083-13.031-12.997.001-23.567 10.571-23.567 23.57v1.809c0 7.374 3.526 14.418 9.431 18.852z"/><path d="m91.995 208.714c4.517-4.517 7.102-10.769 7.102-17.152 0-9.241-5.137-17.557-13.411-21.694l-7.672-3.84-7.391 14.774 7.672 3.84c2.643 1.321 4.286 3.972 4.286 6.92 0 2.04-.826 4.03-2.263 5.475l-5.995 5.995c-5.326 5.326-8.258 12.412-8.258 19.935s2.932 14.609 8.258 19.935l10.677 10.678 11.677-11.677-10.669-10.678c-2.213-2.213-3.427-5.137-3.427-8.258 0-3.122 1.214-6.045 3.419-8.258z"/><path d="m128.149 132.682c-8.085 8.093-12.536 18.845-12.536 30.274 0 8.481 2.486 16.69 7.193 23.742l4.914 7.374c2.882 4.327 4.41 9.373 4.41 14.584 0 7.028-2.742 13.626-7.705 18.597l-6.392 6.392 11.677 11.677 6.4-6.392c8.085-8.093 12.536-18.845 12.536-30.274 0-8.481-2.486-16.69-7.193-23.742l-4.914-7.374c-2.882-4.327-4.41-9.373-4.41-14.584 0-7.028 2.742-13.626 7.705-18.597l16.227-16.227c5.863-5.871 9.1-13.684 9.1-21.983 0-12.998-10.57-23.569-23.569-23.569-8.985 0-17.061 4.988-21.083 13.031l-4.022 8.052 14.774 7.391 4.022-8.052c1.197-2.411 3.617-3.906 6.309-3.906 3.89 0 7.052 3.171 7.052 7.052 0 3.898-1.519 7.556-4.269 10.314z"/><path d="m77.419 155.095 10.314-12.907-30.819-24.659c-4.682-3.741-7.366-9.323-7.366-15.319 0-10.826 8.803-19.629 19.629-19.629h1.247c6.697 0 12.156 5.45 12.156 12.156 0 4.641-2.577 8.803-6.714 10.876l-5.227 2.61 7.383 14.774 5.236-2.61c9.769-4.889 15.839-14.716 15.839-25.65 0-15.806-12.866-28.672-28.672-28.672h-1.247c-19.935 0-36.146 16.219-36.146 36.146 0 11.041 4.947 21.331 13.568 28.226z"/><path d="m355.097 0c-86.52 0-156.903 70.383-156.903 156.903v186.533c-14.328-13.585-32.248-23.081-52.059-27.219 1.561-3.245 2.51-6.838 2.51-10.669 0-10.826-7.019-19.943-16.706-23.312.025-.495.19-.966.19-1.462 0-13.659-11.115-24.774-24.774-24.774s-24.774 11.115-24.774 24.774c0 .405.14.793.165 1.197l-4.121-2.742c-6.582-4.393-14.253-6.714-22.156-6.714-22.033 0-39.953 17.92-39.953 40.77 0 7.251 1.965 14.353 5.69 20.554l14.278 23.8c-8.465 11.338-14.724 24.444-18.267 38.747h-1.701c-9.109.001-16.516 7.409-16.516 16.517v16.516c0 9.109 7.407 16.516 16.516 16.516h1.263l4.806 28.845c2.007 11.999 12.28 20.703 24.436 20.703h146.531c11.388 0 21.273-7.721 24.039-18.762l3.568-14.27h58.128l-8.257 49.549h158.39v-11.091c0-2.849-.19-5.665-.388-8.489l38.268-7.655-22.512-37.525c10.141-2.106 17.664-11.099 17.664-21.57v-7.069c29.869-12.478 49.548-41.67 49.548-74.438v-187.26c0-86.52-70.383-156.903-156.903-156.903zm-34.915 404.942 46.798 29.242c-13.692 7.556-29.308 11.751-45.568 11.751h-106.702c-9.109 0-16.516-7.408-16.516-16.516s7.407-16.516 16.516-16.516h16.516v-8.258c0-4.558 3.708-8.258 8.258-8.258s8.258 3.7 8.258 8.258v9.356zm-14.89-286.051c12.841 8.415 28.086 13.238 44.23 13.238h112.929v74.323c0 59.194-48.161 107.355-107.355 107.355s-107.355-48.161-107.355-107.355v-50.515c0-10.678 6.805-20.125 16.937-23.511zm102.384 270.98c-5.987 13.485-14.947 25.03-25.864 34.122l-49.862-31.158 12.874-38.623c4.765-14.295 18.085-23.891 33.148-23.891 19.266 0 34.932 15.666 34.932 34.932-.001 8.54-1.76 16.823-5.228 24.618zm-78.518-40.885-13.287 39.853-18.316 2.287c2.065-23.998 16.888-44.651 37.971-54.759-2.619 3.857-4.84 8.036-6.368 12.619zm-117.421 46.947.132.454h-17.73l-18.333-25.204 11.479-15.31c11.156 10.719 19.728 24.337 24.452 40.06zm-46.088-38.722-17.02-23.403c9.241 2.585 17.912 6.549 25.773 11.743zm-42.108-26.888c.735 0 1.462.074 2.197.091l1.082 1.495-14.105 18.812-12.189-17.416c7.39-1.934 15.103-2.982 23.015-2.982zm13.444 15.549 18.3 25.162-14.658 19.547-17.945-25.633zm-37.888-40.324c0 4.558-3.708 8.258-8.258 8.258s-8.258-3.7-8.258-8.258 3.708-8.258 8.258-8.258 8.258 3.7 8.258 8.258zm-14.658 33.569 17.846 25.501-15.31 20.414-23.205-32.487c6.25-5.359 13.187-9.901 20.669-13.428zm27.813 39.73 12.271 17.54h-25.426zm53.19 6.152 8.283 11.388h-16.822zm-41.571-71.193c-4.55 0-8.258-3.7-8.258-8.258s3.708-8.258 8.258-8.258 8.258 3.7 8.258 8.258-3.708 8.258-8.258 8.258zm-16.516-41.29c4.55 0 8.258 3.7 8.258 8.258 0 .545-.107 1.065-.206 1.586-3.006 1.098-5.723 2.75-8.052 4.856-2.329-2.106-5.046-3.757-8.043-4.856-.107-.52-.215-1.049-.215-1.586 0-4.558 3.708-8.258 8.258-8.258zm-74.323 39.953c0-12.924 10.513-23.436 23.436-23.436 4.641 0 9.133 1.363 12.998 3.939l.107.074c-2.172 3.683-3.51 7.919-3.51 12.503 0 7.953 3.832 14.964 9.678 19.497-10.24 5.054-19.654 11.619-27.821 19.539l-11.545-19.25c-2.187-3.634-3.343-7.804-3.343-12.866zm19.035 52.1 22.726 31.818h-39.572c3.493-11.842 9.331-22.561 16.846-31.818zm-35.551 48.334h169.753c-2.841 4.881-4.591 10.471-4.591 16.516h-165.162zm177.037 66.065h-146.532c-4.055 0-7.482-2.907-8.142-6.895l-4.36-26.137h151.75c4.055 6.953 10.521 12.23 18.3 14.757l-3.006 12.016c-.917 3.682-4.212 6.259-8.01 6.259zm96.974 16.516 5.5-33.032h25.385c26.021 0 50.581-9.183 69.995-24.989 12.8 16.739 20.265 36.922 21.355 58.021zm136.217-19.448c-1.809-8.605-4.55-16.946-8.159-24.931l8.531-1.214 13.964 23.279zm19.191-50.366c0 2.766-2.065 5.145-4.798 5.533l-30.943 4.418c-2.098-3.27-4.369-6.433-6.78-9.497 5.905-6.483 11.099-13.675 15.385-21.537l19.464-7.787c3.601-1.42 7.672 1.387 7.672 5.178zm49.549-81.507c0 23.701-12.998 44.973-33.206 56.122-.884-11.388-10.323-20.414-21.933-20.414-2.816 0-5.574.529-8.209 1.577l-4.963 1.982c1.437-5.921 2.246-11.982 2.246-18.176 0-19.15-10.537-35.857-26.095-44.717 44.412-18.837 75.644-62.877 75.644-114.085v-74.323-8.258c0-23.246-15.748-43.421-38.301-49.045l-34.023-8.506-4.005 16.012 34.023 8.514c12.428 3.097 21.793 12.767 24.774 24.766h-111.913c-27.681 0-52.158-17.647-60.911-43.9l-15.666 5.227c3.749 11.247 9.835 21.198 17.557 29.49l-31.042 10.347c-16.888 5.615-28.234 21.364-28.234 39.16v50.515c0 56.502 38.061 104.175 89.848 119.007-23.271 14.179-38.871 39.284-40.134 67.741l-18.432 2.304c-3.642-9.15-12.585-15.632-23.023-15.632-5.31 0-10.223 1.693-14.262 4.542-2.783-7.482-6.326-14.493-10.513-21.008v-206.502c0-77.411 62.976-140.387 140.387-140.387s140.387 62.976 140.387 140.387v187.26z"/></g></g></svg>