<svg width="24" height="24" viewBox="0 0 24 24" fill="none" xmlns="http://www.w3.org/2000/svg">
<g clip-path="url(#clip0_853_920)">
<path d="M21.2029 11.3599C20.8686 11.1266 20.4428 11.1339 20.1185 11.378C19.502 11.841 18.826 12.2047 18.1065 12.4616C17.4072 11.7226 16.4185 11.2602 15.3232 11.2602H14.2034C14.139 10.7341 13.8533 10.2554 13.4117 9.94971C12.9073 9.60049 12.2634 9.52094 11.6893 9.73685L9.9038 10.4082C8.62523 9.00564 7.91695 7.2093 7.90491 5.32399C7.89787 4.27047 8.10183 3.24864 8.51105 2.28681C8.67164 1.90947 8.5762 1.49135 8.26791 1.22149C7.9635 0.955049 7.542 0.91619 7.19395 1.12258C4.33111 2.82124 2.53922 5.81575 2.4007 9.13291C2.39259 9.32692 2.5433 9.49075 2.73731 9.49886C2.93175 9.5065 3.09516 9.35627 3.10327 9.16225C3.23184 6.0836 4.89525 3.30414 7.55273 1.72731C7.674 1.65531 7.76948 1.71958 7.80487 1.75056C7.83398 1.77602 7.92427 1.87014 7.86413 2.01147C7.41703 3.06231 7.19419 4.17841 7.20187 5.32853C7.21556 7.47114 8.05134 9.50824 9.555 11.0643C9.81384 11.3318 10.0936 11.5848 10.3863 11.8158C10.8203 12.1585 11.0691 12.6674 11.0691 13.2123V18.5679C7.04953 18.0663 3.76589 14.8744 3.18858 10.8437C3.18361 10.8091 3.17883 10.7744 3.17438 10.7392C3.14995 10.5466 2.97403 10.4101 2.78142 10.4346C2.58881 10.459 2.45245 10.635 2.47683 10.8276C2.48175 10.8665 2.48709 10.905 2.49258 10.9434C3.11869 15.315 6.69942 18.7704 11.0691 19.2755V22.9783C11.0691 23.5416 11.5273 23.9998 12.0906 23.9998H13.7655C15.2945 23.9998 16.5384 22.7559 16.5384 21.2269V20.9395H16.9887C17.7463 20.9395 18.4593 20.5354 18.8493 19.8849C18.9492 19.7184 18.8951 19.5025 18.7286 19.4026C18.5621 19.3028 18.3461 19.3568 18.2463 19.5233C17.9786 19.9698 17.5085 20.2363 16.9887 20.2363H16.5384V17.2883C16.5384 17.0942 16.381 16.9368 16.1868 16.9368C15.9926 16.9368 15.8353 17.0942 15.8353 17.2883V21.2269C15.8353 22.3682 14.9068 23.2967 13.7655 23.2967H12.0906C11.915 23.2967 11.7722 23.1538 11.7722 22.9782V13.2123C11.7722 12.451 11.4259 11.7408 10.822 11.2641C10.696 11.1646 10.5727 11.0607 10.4527 10.9531L11.9369 10.395C12.3004 10.2583 12.6922 10.3067 13.0116 10.5278C13.331 10.7489 13.5141 11.0985 13.5141 11.487V14.6853C13.5141 14.8795 13.6715 15.0369 13.8657 15.0369C14.0599 15.0369 14.2172 14.8795 14.2172 14.6853V11.9633H15.3233C17.0495 11.9633 18.4538 13.3676 18.4538 15.0938V18.1179C18.4538 18.3121 18.6112 18.4695 18.8054 18.4695C18.9996 18.4695 19.157 18.3121 19.157 18.1179V16.4193C20.2721 15.2878 21.1018 13.8949 21.5588 12.3804C21.6756 11.9928 21.5359 11.5923 21.2029 11.3599ZM20.8855 12.1773C20.5329 13.3459 19.9413 14.4369 19.1569 15.3753V15.0938C19.1569 14.3398 18.9372 13.6366 18.5597 13.043C19.2651 12.7687 19.9298 12.3991 20.541 11.94C20.6558 11.8536 20.7608 11.9088 20.8005 11.9365C20.8397 11.9639 20.9263 12.042 20.8855 12.1773Z" fill="black"/>
<path d="M13.9741 5.70943C13.9741 5.90358 14.1315 6.06099 14.3257 6.06099H15.2461L14.146 7.81336C14.0543 7.95952 14.0492 8.14411 14.1327 8.2951C14.2162 8.44608 14.3753 8.53988 14.5478 8.53988H15.8819C16.0761 8.53988 16.2334 8.38247 16.2334 8.18832C16.2334 7.99416 16.0761 7.83675 15.8819 7.83675H14.9614L16.0615 6.08452C16.1533 5.93836 16.1584 5.75372 16.0749 5.60274C15.9914 5.45175 15.8323 5.35791 15.6598 5.35791H14.3257C14.1315 5.35786 13.9741 5.51527 13.9741 5.70943Z" fill="black"/>
<path d="M12.3301 0.703125H13.2506L12.1504 2.4555C12.0587 2.60166 12.0537 2.78625 12.1372 2.93723C12.2207 3.08822 12.3798 3.18202 12.5523 3.18202H13.8863C14.0805 3.18202 14.2379 3.02461 14.2379 2.83045C14.2379 2.6363 14.0805 2.47889 13.8863 2.47889H12.9659L14.066 0.726656C14.1577 0.5805 14.1628 0.395906 14.0794 0.244875C13.9959 0.0938438 13.8368 0 13.6642 0H12.3301C12.1359 0 11.9785 0.157406 11.9785 0.351562C11.9785 0.545719 12.1359 0.703125 12.3301 0.703125Z" fill="black"/>
<path d="M18.4873 3.07051H19.4077L18.3077 4.82274C18.2159 4.9689 18.2108 5.15349 18.2943 5.30453C18.3778 5.45556 18.5369 5.5494 18.7094 5.5494H20.0435C20.2377 5.5494 20.3951 5.39199 20.3951 5.19784C20.3951 5.00368 20.2377 4.84628 20.0435 4.84628H19.1231L20.2231 3.09404C20.3149 2.94788 20.32 2.76329 20.2365 2.61226C20.1531 2.46123 19.994 2.36743 19.8214 2.36743H18.4873C18.2931 2.36743 18.1357 2.52484 18.1357 2.71899C18.1357 2.91315 18.2931 3.07051 18.4873 3.07051Z" fill="black"/>
</g>
<defs>
<clipPath id="clip0_853_920">
<rect width="24" height="24" fill="white"/>
</clipPath>
</defs>
</svg>
