<svg id="No_Fish" enable-background="new 0 0 64 64" height="512" viewBox="0 0 64 64" width="512" xmlns="http://www.w3.org/2000/svg"><path d="m43.74399 32.78606c-.35817 0-.71635-.15625-.95914-.45913-.42548-.52885-.34135-1.30409.1875-1.72957 1.74519-1.40745 2.72356-3.14183 2.82452-5.01683.03846-.73317-.05288-1.48317-.27644-2.22957-.19711-.65144.17308-1.33774.82452-1.53245.65865-.19832 1.33654.17668 1.53125.82572.30529 1.01923.43269 2.05168.3774 3.06971-.13942 2.59015-1.43269 4.94231-3.73798 6.79928-.22595.1839-.49999.27284-.77163.27284zm20.24759-.78606c0 8.54688-3.32933 16.58413-9.37259 22.6274s-14.07932 9.3726-22.6274 9.3726c-8.54688 0-16.58293-3.32933-22.6262-9.3726-12.47596-12.47716-12.47596-32.77885 0-45.25481 6.04326-6.04446 14.07932-9.37259 22.6262-9.37259 8.54808 0 16.58414 3.32813 22.62741 9.3726 6.04326 6.04326 9.37258 14.07932 9.37258 22.6274zm-31.99999-29.53846c-7.47566 0-14.50721 2.78741-19.97311 7.82347l27.57242 27.5625c2.54071-.59661 4.70523-1.60697 6.66511-3.17804 3.70433-2.98317 4.63462-6.4363 4.76442-8.80769.18269-3.39784-1.13942-6.77404-3.6274-9.26202-2.49038-2.48798-5.91106-3.79207-9.26202-3.6274-2.37259.1274-5.82452 1.05769-8.81009 4.76562-.32692.40986-.62981.82572-.90625 1.24279-.32692.49399-.61539.98918-.875 1.48678-.3125.60697-1.05529.84014-1.66106.52284-.60096-.3137-.83654-1.05769-.52163-1.65986.29808-.57211.62981-1.14183 1.00481-1.70793.31491-.47716.66106-.95313 1.03846-1.42428 2.77644-3.44832 6.53846-5.46514 10.59856-5.68389 4.04567-.21154 8.15385 1.36298 11.13462 4.34495s4.5649 7.04086 4.34375 11.13582c-.21875 4.05769-2.23558 7.81971-5.68029 10.59375-1.8774 1.50406-3.90625 2.55514-6.19727 3.26653l12.11463 12.11028c5.03124-5.46471 7.8158-12.49386 7.8158-19.96576 0-7.89063-3.07212-15.30769-8.65144-20.88702s-12.99519-8.65144-20.88702-8.65144zm-9.61524 42.54672 3.46589-3.48558-3.35306-3.35216-3.48513 3.46544c-.4677.44306-1.20628.4677-1.69847.04928-1.05859-.93539-2.6585-.88612-3.64318.09841-1.0338 1.03395-1.0338 2.73242 0 3.76623.6893.68915 1.64934.93539 2.58459.68915.09856-.02449.2216-.04913.32001-.04913.32001 0 .64002.12305.86163.36914.32001.29537.44306.76307.32001 1.18164-.24624.9354 0 1.91992.68915 2.58459 1.00931 1.00916 2.75691 1.00916 3.76623 0 .98452-.98468 1.0338-2.58459.09841-3.64303-.41842-.49234-.39378-1.23077.07392-1.67398zm6.50706-3.92533c.25481.25721.64904.30169.96154.10577 2.061-1.30754 4.35727-2.19862 6.86884-2.73708l-11.17293-11.16902c-.53756 2.50601-1.42172 4.79011-2.68149 6.77629-.2488.39303-.20433.79688.05048 1.05168zm3.10818 20.45553c7.48197 0 14.51637-2.79026 19.98317-7.83143l-13.17984-13.17503c-.1277.02208-.24113.05935-.37064.07978-2.70913.42548-5.1226 1.30048-7.17308 2.60096-.58894.37139-1.22596.55168-1.84856.55168-.6241 0-1.20298-.23648-1.72731-.58429l-2.83744 2.83744c1.0338 1.94456.73843 4.43074-.88627 6.05544-.95988.95988-2.26457 1.5015-3.64303 1.5015-1.35382 0-2.6585-.54162-3.61839-1.5015-.88627-.88627-1.4031-2.06776-1.47701-3.29853-1.23077-.07392-2.41226-.59075-3.29838-1.47686-1.99384-1.99384-1.99384-5.24309 0-7.26157 1.62455-1.6247 4.11073-1.92007 6.05529-.86163l2.83609-2.83594c-.70673-1.05048-.78366-2.40445-.08023-3.50917 1.35457-2.13942 2.22957-4.55289 2.65505-7.26202.02013-.12575.04567-.25105.06731-.3765l-13.16857-13.16375c-10.65069 11.57272-10.39709 29.63567.82602 40.85998 5.57933 5.57933 12.99639 8.65144 20.88582 8.65144z"/></svg>