<svg width="21" height="21" viewBox="0 0 21 21" fill="none" xmlns="http://www.w3.org/2000/svg">
<path fill-rule="evenodd" clip-rule="evenodd" d="M1.09375 10.5C1.09375 5.30507 5.30507 1.09375 10.5 1.09375C15.695 1.09375 19.9063 5.30507 19.9063 10.5C19.9063 15.695 15.695 19.9063 10.5 19.9063C5.30507 19.9063 1.09375 15.695 1.09375 10.5ZM10.5 2.40625C6.02994 2.40625 2.40625 6.02994 2.40625 10.5C2.40625 14.97 6.02994 18.5938 10.5 18.5938C14.97 18.5938 18.5938 14.97 18.5938 10.5C18.5938 6.02994 14.97 2.40625 10.5 2.40625Z" fill="black"/>
<path fill-rule="evenodd" clip-rule="evenodd" d="M8.02234 13.265C7.859 12.9438 7.46674 12.8141 7.14391 12.9756C6.81974 13.1376 6.68835 13.5318 6.85043 13.856L7.4374 13.5625C6.85043 13.856 6.85028 13.8557 6.85043 13.856L6.85104 13.8572L6.85175 13.8586L6.85341 13.8619L6.85778 13.8703L6.87072 13.8947C6.88124 13.9142 6.89559 13.9398 6.91389 13.9709C6.95043 14.0329 7.00305 14.1168 7.07278 14.2153C7.21174 14.4114 7.42183 14.6697 7.71235 14.928C8.2989 15.4494 9.21398 15.9688 10.4999 15.9688C11.7858 15.9688 12.7009 15.4494 13.2875 14.928C13.578 14.6697 13.788 14.4114 13.927 14.2153C13.9967 14.1168 14.0493 14.0329 14.0859 13.9709C14.1042 13.9398 14.1185 13.9142 14.129 13.8947L14.142 13.8703L14.1464 13.8619L14.148 13.8586L14.1487 13.8572C14.1489 13.8569 14.1493 13.856 13.5624 13.5625L14.1493 13.856C14.3115 13.5318 14.18 13.1376 13.8559 12.9756C13.5331 12.8141 13.1408 12.9438 12.9774 13.265L12.975 13.2697C12.9717 13.2759 12.965 13.2878 12.9551 13.3046C12.9353 13.3382 12.9025 13.391 12.856 13.4566C12.7625 13.5886 12.6171 13.7678 12.4154 13.9471C12.0177 14.3007 11.4015 14.6563 10.4999 14.6563C9.59828 14.6563 8.98211 14.3007 8.58432 13.9471C8.38265 13.7678 8.23727 13.5886 8.14381 13.4566C8.09734 13.391 8.0645 13.3382 8.04466 13.3046C8.03475 13.2878 8.02816 13.2759 8.02479 13.2697L8.02234 13.265Z" fill="black"/>
<path fill-rule="evenodd" clip-rule="evenodd" d="M6.70917 8.01371C6.54545 7.69343 6.15381 7.56436 5.83141 7.72555C5.50724 7.88764 5.37585 8.28183 5.53793 8.606L6.1249 8.31252C5.53793 8.606 5.53781 8.60577 5.53793 8.606L5.53841 8.60697L5.53894 8.60801L5.54012 8.61035L5.54302 8.61601L5.55098 8.63117C5.55724 8.64291 5.56545 8.65792 5.57563 8.67571C5.59591 8.71121 5.62429 8.75832 5.66089 8.81327C5.73337 8.92195 5.84206 9.06711 5.98898 9.21402C6.27927 9.50435 6.76446 9.84376 7.4374 9.84376C8.11033 9.84376 8.59553 9.50435 8.88586 9.21402C9.03277 9.06711 9.14144 8.92195 9.21389 8.81327C9.25047 8.75832 9.27891 8.71121 9.29921 8.67571C9.30936 8.65792 9.31758 8.64291 9.32379 8.63117L9.33176 8.61601L9.33464 8.61035L9.33587 8.60801L9.33639 8.60697C9.33648 8.60673 9.33683 8.606 8.7499 8.31252L9.33683 8.606C9.49897 8.28183 9.36754 7.88764 9.04336 7.72555C8.72099 7.56436 8.32935 7.69343 8.16562 8.01371L8.15961 8.02453C8.15255 8.03688 8.13992 8.0581 8.12183 8.08522C8.08493 8.14057 8.02956 8.21415 7.95773 8.28598C7.81052 8.4332 7.63946 8.53127 7.4374 8.53127C7.23533 8.53127 7.06428 8.4332 6.91706 8.28598C6.84523 8.21415 6.78986 8.14057 6.75296 8.08522C6.73488 8.0581 6.72224 8.03688 6.71519 8.02453L6.70917 8.01371Z" fill="black"/>
<path fill-rule="evenodd" clip-rule="evenodd" d="M12.8342 8.01371C12.6705 7.69343 12.2788 7.56436 11.9564 7.72555C11.6322 7.88764 11.5009 8.28183 11.6629 8.606L12.2499 8.31252C11.6629 8.606 11.6628 8.60577 11.6629 8.606L11.6634 8.60697L11.6639 8.60801L11.6651 8.61035L11.668 8.61601L11.676 8.63117C11.6823 8.64291 11.6905 8.65792 11.7006 8.67571C11.7209 8.71121 11.7493 8.75832 11.7859 8.81327C11.8584 8.92195 11.9671 9.06711 12.114 9.21402C12.4042 9.50435 12.8895 9.84376 13.5624 9.84376C14.2353 9.84376 14.7205 9.50435 15.0108 9.21402C15.1578 9.06711 15.2664 8.92195 15.3389 8.81327C15.3755 8.75832 15.4039 8.71121 15.4242 8.67571C15.4343 8.65792 15.4426 8.64291 15.4488 8.63117L15.4567 8.61601L15.4596 8.61035L15.4609 8.60801L15.4614 8.60697C15.4615 8.60673 15.4618 8.606 14.8749 8.31252L15.4618 8.606C15.624 8.28183 15.4925 7.88764 15.1683 7.72555C14.846 7.56436 14.4543 7.69343 14.2906 8.01371L14.2846 8.02453C14.2775 8.03688 14.2649 8.0581 14.2468 8.08522C14.21 8.14057 14.1546 8.21415 14.0827 8.28598C13.9355 8.4332 13.7645 8.53127 13.5624 8.53127C13.3603 8.53127 13.1893 8.4332 13.0421 8.28598C12.9703 8.21415 12.9149 8.14057 12.8779 8.08522C12.8598 8.0581 12.8472 8.03688 12.8401 8.02453L12.8342 8.01371Z" fill="black"/>
</svg>
