<svg width="22" height="22" viewBox="0 0 22 22" fill="none" xmlns="http://www.w3.org/2000/svg">
<g clip-path="url(#clip0_853_887)">
<path d="M0 11C0 11.2025 0.164162 11.3666 0.366667 11.3666H1.83333C2.03584 11.3666 2.2 11.2025 2.2 11C2.2 10.7975 2.03584 10.6333 1.83333 10.6333H0.366667C0.164162 10.6333 0 10.7975 0 11Z" fill="black"/>
<path d="M21.6333 15.7666H17.5058C19.952 12.4298 19.477 7.78319 16.4062 5.01032C13.3354 2.23745 8.6646 2.23745 5.59382 5.01032C2.52304 7.78319 2.04803 12.4298 4.49423 15.7666H0.366667C0.164162 15.7666 0 15.9308 0 16.1333C0 16.3358 0.164162 16.5 0.366667 16.5H21.6333C21.8358 16.5 22 16.3358 22 16.1333C22 15.9308 21.8358 15.7666 21.6333 15.7666ZM3.66667 11C3.66256 7.74875 5.79962 4.88297 8.91689 3.95943C12.0342 3.0359 15.3874 4.27511 17.1549 7.00388C18.9225 9.73264 18.6823 13.2994 16.5649 15.7666H12.4667V14.689C13.2602 14.2972 13.8628 13.6026 14.1386 12.7617C14.4145 11.9209 14.3405 11.0043 13.9333 10.2186C13.9283 10.2085 13.9276 10.1968 13.9313 10.1862C13.9351 10.1756 13.9429 10.1669 13.9531 10.1621C14.2127 9.97701 14.4358 9.74555 14.6113 9.47939L15.3692 9.69572C15.6173 9.76676 15.8831 9.67124 16.0292 9.45849C16.1773 9.24729 16.1714 8.96441 16.0145 8.75962L15.4928 8.06662L16.012 7.37399C16.1698 7.1689 16.1759 6.88495 16.027 6.67329C15.881 6.46035 15.6151 6.36477 15.367 6.43605L14.6113 6.65165C13.9911 5.71348 12.8327 5.28783 11.7526 5.60121C10.6725 5.9146 9.92178 6.89414 9.9 8.01859C9.34303 10.12 6.64657 11 5.5088 11.2783C5.02994 11.3961 4.71446 11.8529 4.77386 12.3424C4.83327 12.832 5.24886 13.2001 5.742 13.2H6.60623C6.59915 13.2891 6.60949 13.3788 6.63667 13.464C6.72784 13.7459 6.99156 13.936 7.28787 13.9333H7.90423C8.10315 13.9317 8.30154 13.9127 8.49713 13.8765C8.87139 14.3167 9.35535 14.6503 9.9 14.8434V15.7666H5.4351C4.29358 14.4409 3.66602 12.7494 3.66667 11ZM7.1533 12.4666H5.742C5.67761 12.4673 5.61565 12.442 5.57011 12.3965C5.52458 12.351 5.49931 12.289 5.5 12.2246C5.50035 12.1138 5.57584 12.0173 5.68333 11.9903C6.80831 11.7249 7.87551 11.2567 8.83263 10.6087C8.37004 11.3094 7.80382 11.9358 7.1533 12.4666ZM10.3767 9.14169C10.4896 9.52622 10.5699 9.91958 10.6168 10.3176C10.6985 11.0186 10.4709 11.7203 9.9935 12.24C9.4643 12.8412 8.70512 13.1901 7.90423 13.2H7.41877C8.78229 12.1674 9.81114 10.7558 10.3767 9.14169ZM10.5439 12.7248C11.1617 12.0478 11.454 11.1352 11.3443 10.2252C11.1723 8.87329 10.8236 8.21439 10.6418 7.95185C10.6728 7.44195 10.9159 6.96832 11.312 6.64579C11.7443 6.29613 12.311 6.15983 12.855 6.27472C13.2618 6.35887 13.6272 6.58086 13.8893 6.90319C13.4658 7.13674 13.2025 7.5818 13.2017 8.06543C13.2008 8.54907 13.4626 8.99503 13.8853 9.23005C13.7822 9.3566 13.6628 9.46903 13.5304 9.56445C13.2079 9.78524 13.1019 10.2126 13.284 10.5585C13.8532 11.6587 13.554 13.0086 12.5731 13.7652C11.5922 14.5218 10.2106 14.4685 9.29097 13.6385C9.76972 13.4283 10.1967 13.1159 10.542 12.7233L10.5439 12.7248ZM14.846 8.42595L15.1873 8.88172L14.3733 8.64889C14.1131 8.57486 13.9336 8.33716 13.9336 8.06662C13.9336 7.79608 14.1131 7.55838 14.3733 7.48435L15.1877 7.25152L14.8467 7.70655C14.6869 7.91963 14.6866 8.21255 14.846 8.42595ZM11.0026 15.0333C11.2178 15.0332 11.4325 15.0129 11.6439 14.9728C11.6747 14.9669 11.7029 14.9552 11.7333 14.9486V15.7666H10.6333V15.0109C10.7559 15.0252 10.8792 15.0327 11.0026 15.0333Z" fill="black"/>
<path d="M20.1666 17.9668C20.1666 17.7643 20.0024 17.6001 19.7999 17.6001H2.19992C1.99741 17.6001 1.83325 17.7643 1.83325 17.9668C1.83325 18.1693 1.99741 18.3334 2.19992 18.3334H19.7999C20.0024 18.3334 20.1666 18.1693 20.1666 17.9668Z" fill="black"/>
<path d="M17.9668 19.8C17.9668 19.5975 17.8026 19.4333 17.6001 19.4333H4.40011C4.19761 19.4333 4.03345 19.5975 4.03345 19.8C4.03345 20.0025 4.19761 20.1667 4.40011 20.1667H17.6001C17.8026 20.1667 17.9668 20.0025 17.9668 19.8Z" fill="black"/>
<path d="M7.33322 21.2666C7.13072 21.2666 6.96655 21.4308 6.96655 21.6333C6.96655 21.8358 7.13072 21.9999 7.33322 21.9999H14.6666C14.8691 21.9999 15.0332 21.8358 15.0332 21.6333C15.0332 21.4308 14.8691 21.2666 14.6666 21.2666H7.33322Z" fill="black"/>
<path d="M2.87793 6.73425C2.99144 6.80079 3.1319 6.80142 3.246 6.73588C3.36009 6.67035 3.43033 6.5487 3.43004 6.41713C3.42975 6.28555 3.35898 6.16422 3.2446 6.09918L1.97447 5.36585C1.79925 5.26623 1.57648 5.32671 1.4757 5.50126C1.37492 5.67581 1.43392 5.89898 1.6078 6.00092L2.87793 6.73425Z" fill="black"/>
<path d="M6.41677 3.4283C6.5477 3.42817 6.66862 3.35823 6.73403 3.24481C6.79944 3.13138 6.7994 2.99169 6.73393 2.8783L6.0006 1.60817C5.93557 1.49379 5.81423 1.42302 5.68266 1.42273C5.55108 1.42244 5.42944 1.49267 5.3639 1.60677C5.29837 1.72086 5.29899 1.86133 5.36554 1.97484L6.09887 3.24497C6.16443 3.35853 6.28564 3.42843 6.41677 3.4283Z" fill="black"/>
<path d="M11.3666 1.83333V0.366667C11.3666 0.164162 11.2025 0 11 0C10.7975 0 10.6333 0.164162 10.6333 0.366667V1.83333C10.6333 2.03584 10.7975 2.2 11 2.2C11.2025 2.2 11.3666 2.03584 11.3666 1.83333Z" fill="black"/>
<path d="M15.5833 3.4283C15.7145 3.42843 15.8357 3.35853 15.9012 3.24497L16.6346 1.97484C16.7011 1.86133 16.7017 1.72086 16.6362 1.60677C16.5707 1.49267 16.449 1.42244 16.3174 1.42273C16.1859 1.42302 16.0645 1.49379 15.9995 1.60817L15.2662 2.8783C15.2007 2.99169 15.2007 3.13138 15.2661 3.24481C15.3315 3.35823 15.4524 3.42817 15.5833 3.4283Z" fill="black"/>
<path d="M18.9389 6.78338C19.0033 6.78338 19.0665 6.76643 19.1223 6.73425L20.3924 6.00092C20.5663 5.89898 20.6253 5.67581 20.5245 5.50126C20.4237 5.32671 20.201 5.26623 20.0257 5.36585L18.7556 6.09918C18.6119 6.18216 18.5418 6.35132 18.5848 6.51162C18.6277 6.67191 18.773 6.78338 18.9389 6.78338Z" fill="black"/>
<path d="M21.6334 10.6333H20.1667C19.9642 10.6333 19.8 10.7975 19.8 11C19.8 11.2025 19.9642 11.3666 20.1667 11.3666H21.6334C21.8359 11.3666 22 11.2025 22 11C22 10.7975 21.8359 10.6333 21.6334 10.6333Z" fill="black"/>
<path d="M12.4668 7.70001C12.6693 7.70001 12.8334 7.53585 12.8334 7.33334C12.8334 7.13084 12.6693 6.96667 12.4668 6.96667C12.2643 6.96667 12.1001 7.13084 12.1001 7.33334C12.1001 7.53585 12.2643 7.70001 12.4668 7.70001Z" fill="black"/>
</g>
<defs>
<clipPath id="clip0_853_887">
<rect width="22" height="22" fill="white"/>
</clipPath>
</defs>
</svg>
