<?xml version="1.0" encoding="UTF-8" standalone="no"?>
<!-- Created with Inkscape (http://www.inkscape.org/) -->

<svg
   version="1.1"
   id="svg237"
   xml:space="preserve"
   width="682.66669"
   height="682.66669"
   viewBox="0 0 682.66669 682.66669"
   xmlns="http://www.w3.org/2000/svg"
   xmlns:svg="http://www.w3.org/2000/svg"><defs
     id="defs241"><clipPath
       clipPathUnits="userSpaceOnUse"
       id="clipPath251"><path
         d="M 0,512 H 512 V 0 H 0 Z"
         id="path249" /></clipPath></defs><g
     id="g243"
     transform="matrix(1.3333333,0,0,-1.3333333,0,682.66667)"><g
       id="g245"><g
         id="g247"
         clip-path="url(#clipPath251)"><g
           id="g253"
           transform="translate(186.7002,116)"><path
             d="M 0,0 C 13.83,23.91 39.69,40 69.3,40 98.91,40 124.77,23.91 138.6,0"
             style="fill:none;stroke:#000000;stroke-width:20;stroke-linecap:round;stroke-linejoin:round;stroke-miterlimit:10;stroke-dasharray:none;stroke-opacity:1"
             id="path255" /></g><g
           id="g257"
           transform="translate(325.2998,116)"><path
             d="m 0,0 h 50.7 c 0,30.74 -11.55,58.77 -30.57,80 -21.96,24.55 -53.89,40 -89.43,40 -35.54,0 -67.47,-15.45 -89.43,-40 C -177.75,58.77 -189.3,30.74 -189.3,0 Z"
             style="fill:none;stroke:#000000;stroke-width:20;stroke-linecap:round;stroke-linejoin:round;stroke-miterlimit:10;stroke-dasharray:none;stroke-opacity:1"
             id="path259" /></g><g
           id="g261"
           transform="translate(166.5601,196)"><path
             d="M 0,0 H 178.88"
             style="fill:none;stroke:#000000;stroke-width:20;stroke-linecap:round;stroke-linejoin:round;stroke-miterlimit:10;stroke-dasharray:none;stroke-opacity:1"
             id="path263" /></g><g
           id="g265"
           transform="translate(296.96,336.1899)"><path
             d="m 0,0 c 4.56,-22.92 24.78,-40.19 49.04,-40.19 12.61,0 24.12,4.66 32.92,12.36"
             style="fill:none;stroke:#000000;stroke-width:20;stroke-linecap:round;stroke-linejoin:round;stroke-miterlimit:10;stroke-dasharray:none;stroke-opacity:1"
             id="path267" /></g><g
           id="g269"
           transform="translate(215.04,336.1899)"><path
             d="m 0,0 c -4.56,-22.92 -24.78,-40.19 -49.04,-40.19 -12.61,0 -24.12,4.66 -32.92,12.36"
             style="fill:none;stroke:#000000;stroke-width:20;stroke-linecap:round;stroke-linejoin:round;stroke-miterlimit:10;stroke-dasharray:none;stroke-opacity:1"
             id="path271" /></g><g
           id="g273"
           transform="translate(376,356)"><path
             d="M 0,0 C -22.09,0 -40,17.91 -40,40"
             style="fill:none;stroke:#000000;stroke-width:20;stroke-linecap:round;stroke-linejoin:round;stroke-miterlimit:10;stroke-dasharray:none;stroke-opacity:1"
             id="path275" /></g><g
           id="g277"
           transform="translate(136,356)"><path
             d="M 0,0 C 22.09,0 40,17.91 40,40"
             style="fill:none;stroke:#000000;stroke-width:20;stroke-linecap:round;stroke-linejoin:round;stroke-miterlimit:10;stroke-dasharray:none;stroke-opacity:1"
             id="path279" /></g><g
           id="g281"
           transform="translate(92,82)"><path
             d="m 0,0 c 0,-5.523 -4.477,-10 -10,-10 -5.523,0 -10,4.477 -10,10 0,5.523 4.477,10 10,10 C -4.477,10 0,5.523 0,0"
             style="fill:#000000;fill-opacity:1;fill-rule:nonzero;stroke:none"
             id="path283" /></g><g
           id="g285"
           transform="translate(53.2334,116.5796)"><path
             d="m 0,0 c -27.273,39.613 -43.233,87.634 -43.233,139.42 0,135.96 110.02,246 246,246 135.96,0 246,-110.02 246,-246 0,-135.96 -110.02,-246 -246,-246 -51.783,0 -99.806,15.96 -139.42,43.234"
             style="fill:none;stroke:#000000;stroke-width:20;stroke-linecap:round;stroke-linejoin:round;stroke-miterlimit:10;stroke-dasharray:none;stroke-opacity:1"
             id="path287" /></g></g></g></g></svg>
