<svg viewBox="0 0 96 96" xmlns="http://www.w3.org/2000/svg"><g id="Layer_1"/><g id="Layer_2"/><g id="Layer_3"/><g id="Layer_4"><g><path d="m51.489 4h-6.977c-22.338 0-40.512 18.172-40.512 40.511v6.976c0 22.338 18.174 40.513 40.512 40.513h6.977c22.339 0 40.511-18.175 40.511-40.514v-6.976c0-22.338-18.172-40.51-40.511-40.51zm36.056 47.486c0 19.883-16.175 36.059-36.056 36.059h-6.977c-19.881 0-36.057-16.176-36.057-36.059v-6.976c0-19.88 16.176-36.056 36.057-36.056h6.977c19.881 0 36.056 16.176 36.056 36.056z"/><path d="m56.806 65.533h-17.797c-1.231 0-2.227.998-2.227 2.227s.997 2.227 2.227 2.227h17.797c1.231 0 2.227-.998 2.227-2.227s-.996-2.227-2.227-2.227z"/><path d="m64.245 40.731c-1.231 0-2.227.998-2.227 2.227v5.594c0 1.229.997 2.227 2.227 2.227 1.231 0 2.227-.998 2.227-2.227v-5.594c.001-1.229-.996-2.227-2.227-2.227z"/><path d="m55.968 28.979c-.719.998-.494 2.391.506 3.111.995.713 2.389.492 3.11-.506 2.094-2.91 7.212-2.91 9.306 0 .436.604 1.118.925 1.81.925.451 0 .907-.136 1.3-.419.999-.721 1.225-2.113.506-3.111-3.764-5.227-12.774-5.227-16.538 0z"/><path d="m31.772 40.731c-1.231 0-2.227.998-2.227 2.227v5.594c0 1.229.997 2.227 2.227 2.227 1.231 0 2.227-.998 2.227-2.227v-5.594c.001-1.229-.996-2.227-2.227-2.227z"/><path d="m39.529 40.896c.998-.721 1.224-2.113.504-3.111-3.769-5.227-12.77-5.227-16.539 0-.719.998-.494 2.391.504 3.111.998.718 2.391.492 3.11-.506 2.1-2.91 7.211-2.91 9.31 0 .435.604 1.118.925 1.809.925.452 0 .907-.136 1.302-.419z"/></g></g></svg>