<svg width="35" height="34" viewBox="0 0 35 34" fill="none" xmlns="http://www.w3.org/2000/svg">
<g clip-path="url(#clip0_665_3020)">
<path d="M17.8405 33.9999C27.2293 33.9999 34.8405 26.3888 34.8405 17C34.8405 7.61115 27.2293 0 17.8405 0C8.45166 0 0.840515 7.61115 0.840515 17C0.840515 26.3888 8.45166 33.9999 17.8405 33.9999Z" fill="#FF3600"/>
<path d="M8.90864 25.9312C2.79326 19.8157 2.31136 10.2003 7.4626 3.53296C6.89198 3.97376 6.34295 4.45566 5.81954 4.97906C-0.819241 11.6178 -0.819241 22.3815 5.81954 29.0202C12.4583 35.6589 23.222 35.659 29.8607 29.0202C30.384 28.4969 30.8659 27.9478 31.3068 27.3772C24.6395 32.5285 15.0241 32.0466 8.90864 25.9312Z" fill="#E54728"/>
<path d="M15.4153 21.8462C15.2322 21.8462 15.0506 21.7668 14.9261 21.6137C14.7066 21.3438 14.7474 20.9468 15.0174 20.7273C15.8194 20.0749 16.8379 19.7156 17.8852 19.7156C18.8838 19.7156 19.8651 20.0461 20.6486 20.6461C20.9248 20.8577 20.9772 21.2533 20.7657 21.5295C20.5541 21.8058 20.1587 21.8581 19.8823 21.6466C19.3176 21.2141 18.6084 20.9759 17.8853 20.9759C17.1268 20.9759 16.3907 21.2348 15.8126 21.7049C15.6957 21.8 15.5552 21.8462 15.4153 21.8462Z" fill="#E54728"/>
<path d="M12.6461 15.1939C12.6461 14.9243 12.5995 14.6655 12.515 14.4245C12.7668 14.4504 13.0299 14.4651 13.3056 14.4651C14.0354 14.4651 14.849 14.3658 15.7463 14.1218C16.0821 14.0305 16.2802 13.6843 16.189 13.3484C16.0976 13.0125 15.7508 12.8146 15.4156 12.9057C10.9439 14.1222 9.00768 11.2773 8.92633 11.1539C8.73721 10.8634 8.3488 10.78 8.05715 10.9678C7.76451 11.1562 7.68011 11.5461 7.86843 11.8388C7.88941 11.8715 8.31182 12.517 9.18026 13.1584C8.46701 13.5576 7.98351 14.3202 7.98351 15.1939C7.98351 16.4794 9.02932 17.5252 10.3148 17.5252C11.6003 17.5252 12.6461 16.4794 12.6461 15.1939Z" fill="#4D4D4D"/>
<path d="M18.1378 17.0696C15.0172 17.0696 12.2391 19.0111 11.2247 21.9008C11.1095 22.2291 11.2822 22.5887 11.6106 22.7041C11.9392 22.8194 12.2985 22.6466 12.4139 22.3182C13.2512 19.9326 15.5516 18.3297 18.1379 18.3297C20.7237 18.3297 23.0237 19.9326 23.8611 22.3182C23.9521 22.5775 24.1956 22.7398 24.4556 22.7398C24.5249 22.7398 24.5953 22.7283 24.6643 22.7041C24.9926 22.5888 25.1654 22.2292 25.0502 21.9008C24.0358 19.0111 21.2579 17.0696 18.1378 17.0696Z" fill="#4D4D4D"/>
<path d="M27.6252 10.9709C27.3347 10.7817 26.9449 10.8641 26.7543 11.1537C26.6741 11.2754 24.7379 14.1223 20.265 12.9058C19.9295 12.8145 19.583 13.0125 19.4916 13.3484C19.4003 13.6842 19.5984 14.0305 19.9343 14.1218C20.8318 14.3659 21.6451 14.4651 22.375 14.4651C22.6506 14.4651 22.9137 14.4504 23.1655 14.4245C23.081 14.6656 23.0344 14.9243 23.0344 15.1939C23.0344 16.4793 24.0803 17.5252 25.3657 17.5252C26.6512 17.5252 27.697 16.4793 27.697 15.1939C27.697 14.3201 27.2135 13.5575 26.5003 13.1584C27.3687 12.517 27.7911 11.8714 27.8121 11.8387C27.9997 11.5471 27.9157 11.1601 27.6252 10.9709Z" fill="#4D4D4D"/>
</g>
<defs>
<clipPath id="clip0_665_3020">
<rect width="34" height="34" fill="white" transform="translate(0.840515)"/>
</clipPath>
</defs>
</svg>
