<svg width="35" height="35" viewBox="0 0 35 35" fill="none" xmlns="http://www.w3.org/2000/svg">
<path d="M17.9205 33.6257C3.13579 33.6257 1.35415 20.8159 1.37444 17.6135V16.546C1.35415 13.3435 3.13579 0.533691 17.9205 0.533691C32.7051 0.533691 34.4868 13.3435 34.4665 16.546V17.6135C34.4868 20.8159 32.7051 33.6257 17.9205 33.6257Z" fill="url(#paint0_linear_665_3056)"/>
<path d="M24.3134 24.0183C24.2689 23.499 24.1635 22.9866 23.9996 22.4918C23.6429 21.4521 23.0167 20.5256 22.1849 19.8071C21.0212 18.7395 19.4995 18.1472 17.9203 18.1472C16.3411 18.1472 14.8193 18.7395 13.6557 19.8071C12.8238 20.5256 12.1976 21.4521 11.8409 22.4918C11.677 22.9866 11.5717 23.499 11.5271 24.0183H11.5154V24.5521H11.5271C11.5271 24.5814 11.518 24.6054 11.5154 24.6375C11.494 24.9204 11.7128 25.1445 11.9424 25.0698C12.8817 24.7709 15.2142 23.4846 17.9203 23.4846C20.6264 23.4846 22.9588 24.7709 23.8982 25.0698C24.1277 25.1445 24.3465 24.9204 24.3252 24.6375C24.3225 24.6076 24.3161 24.5841 24.3134 24.5521H24.3252V24.0183H24.3134Z" fill="#F9BF06"/>
<path d="M24.3134 23.4846C24.2689 22.9653 24.1635 22.4529 23.9996 21.9581C23.6429 20.9184 23.0167 19.992 22.1849 19.2734C21.0212 18.2058 19.4995 17.6135 17.9203 17.6135C16.3411 17.6135 14.8193 18.2058 13.6557 19.2734C12.8238 19.992 12.1976 20.9184 11.8409 21.9581C11.677 22.4529 11.5717 22.9653 11.5271 23.4846H11.5154V24.0184H11.5271C11.5271 24.0477 11.518 24.0718 11.5154 24.1038C11.494 24.3867 11.7128 24.6108 11.9424 24.5361C12.8817 24.2372 15.2142 22.9509 17.9203 22.9509C20.6264 22.9509 22.9588 24.2372 23.8982 24.5361C24.1277 24.6108 24.3465 24.3867 24.3252 24.1038C24.3225 24.0739 24.3161 24.0504 24.3134 24.0184H24.3252V23.4846H24.3134Z" fill="#ED8D06"/>
<path d="M24.3252 24.1037C24.3465 24.3866 24.1277 24.6108 23.8982 24.5361C22.9588 24.2372 20.6264 22.9508 17.9203 22.9508C15.2142 22.9508 12.8817 24.2372 11.9424 24.5361C11.7128 24.6108 11.494 24.3866 11.5154 24.1037C11.5566 23.555 11.666 23.0135 11.8409 22.4918C12.1976 21.4521 12.8238 20.5256 13.6557 19.8071C14.8193 18.7395 16.3411 18.1472 17.9203 18.1472C19.4995 18.1472 21.0212 18.7395 22.1849 19.8071C23.0167 20.5256 23.6429 21.4521 23.9996 22.4918C24.1746 23.0135 24.2839 23.555 24.3252 24.1037Z" fill="url(#paint1_linear_665_3056)"/>
<path d="M25.9263 10.6748C22.7239 10.1411 22.1901 11.2086 22.1901 11.2086C22.1901 11.2086 28.595 12.8098 30.73 13.8773C30.1831 13.0503 29.4765 12.341 28.6515 11.791C27.8266 11.2411 26.9 10.8616 25.9263 10.6748Z" fill="#ED8D06"/>
<path d="M9.91404 10.6748C13.1165 10.1411 13.6502 11.2086 13.6502 11.2086C13.6502 11.2086 7.24532 12.8098 5.11035 13.8773C5.65723 13.0503 6.36391 12.341 7.18884 11.791C8.01378 11.2411 8.94033 10.8616 9.91404 10.6748Z" fill="#ED8D06"/>
<path d="M9.91436 31.9979C12.2405 33.0534 14.7631 33.6063 17.3174 33.6205V33.6258H2.44196C2.3018 33.6266 2.16292 33.5991 2.03362 33.545C1.90432 33.4909 1.78724 33.4113 1.68938 33.3109C1.58965 33.2126 1.51046 33.0954 1.4564 32.9663C1.40235 32.8371 1.37451 32.6984 1.37451 32.5584C1.37451 32.4183 1.40235 32.2797 1.4564 32.1505C1.51046 32.0213 1.58965 31.9041 1.68938 31.8058C1.78724 31.7054 1.90432 31.6258 2.03362 31.5717C2.16292 31.5176 2.3018 31.4901 2.44196 31.4909C3.00819 31.4909 3.55123 31.2659 3.95161 30.8656C4.352 30.4652 4.57693 29.9221 4.57693 29.3559V27.5305C4.61429 17.5442 7.24565 12.8099 7.24565 12.8099L7.20295 12.7191C8.72931 12.0368 10.3449 11.575 12.0013 11.3474C11.7558 12.1053 10.6296 15.9483 10.1439 24.0238C10.0051 26.3296 9.91436 28.9769 9.91436 31.9979Z" fill="url(#paint2_linear_665_3056)"/>
<path d="M25.9263 31.9979C25.9263 28.9769 25.8356 26.3296 25.6968 24.0238C25.2111 15.9483 24.0849 12.1053 23.8394 11.3474C25.4958 11.575 27.1114 12.0368 28.6377 12.7191L28.595 12.8099C28.595 12.8099 31.2264 17.5442 31.2637 27.5305V29.3559C31.2637 29.9221 31.4887 30.4652 31.8891 30.8656C32.2895 31.2659 32.8325 31.4909 33.3987 31.4909C33.6818 31.4909 33.9534 31.6033 34.1535 31.8035C34.3537 32.0037 34.4662 32.2752 34.4662 32.5584C34.4662 32.8415 34.3537 33.113 34.1535 33.3132C33.9534 33.5134 33.6818 33.6258 33.3987 33.6258H18.4539V33.6205C21.0318 33.6179 23.5795 33.0647 25.9263 31.9979Z" fill="url(#paint3_linear_665_3056)"/>
<path d="M10.4481 32.2381C10.375 32.2071 10.3067 32.1719 10.2346 32.1398C10.1279 32.0929 10.0179 32.048 9.91436 31.9989V31.9925C7.78252 30.9845 5.94484 29.4465 4.57693 27.5256V29.3558C4.57693 29.9221 4.352 30.4651 3.95161 30.8655C3.55123 31.2659 3.00819 31.4908 2.44196 31.4908C2.3018 31.4901 2.16292 31.5176 2.03362 31.5717C1.90432 31.6258 1.78724 31.7054 1.68938 31.8057C1.58965 31.904 1.51046 32.0212 1.4564 32.1504C1.40235 32.2796 1.37451 32.4182 1.37451 32.5583C1.37451 32.6983 1.40235 32.837 1.4564 32.9662C1.51046 33.0954 1.58965 33.2126 1.68938 33.3109C1.78724 33.4112 1.90432 33.4908 2.03362 33.5449C2.16292 33.599 2.3018 33.6265 2.44196 33.6258H17.3174V33.6204C14.8815 33.6013 12.4739 33.0976 10.2346 32.1388C10.3067 32.1708 10.375 32.206 10.4481 32.2381Z" fill="url(#paint4_linear_665_3056)"/>
<path d="M34.1513 31.8057C34.0534 31.7054 33.9364 31.6258 33.8071 31.5717C33.6778 31.5176 33.5389 31.4901 33.3987 31.4908C32.8325 31.4908 32.2895 31.2659 31.8891 30.8655C31.4887 30.4651 31.2637 29.9221 31.2637 29.3558V27.5256C29.8957 29.4461 28.058 30.9837 25.9263 31.9915V31.9979C25.8196 32.0512 25.7016 32.0966 25.5895 32.1462C23.3338 33.1108 20.9072 33.6121 18.4539 33.6204V33.6258H33.3987C33.6099 33.6264 33.8165 33.5642 33.9922 33.4471C34.1679 33.33 34.3048 33.1633 34.3855 32.9682C34.4662 32.773 34.487 32.5583 34.4453 32.3513C34.4036 32.1443 34.3013 31.9544 34.1513 31.8057Z" fill="url(#paint5_linear_665_3056)"/>
<path d="M30.73 13.8773C30.0649 13.4355 29.3652 13.0482 28.6377 12.7191C27.1114 12.0368 25.4958 11.5749 23.8394 11.3474C23.293 11.2672 22.7422 11.2208 22.1901 11.2086C22.1901 11.2086 22.7239 10.1411 25.9263 10.6748C26.9 10.8616 27.8266 11.2411 28.6515 11.791C29.4765 12.341 30.1831 13.0503 30.73 13.8773Z" fill="url(#paint6_linear_665_3056)"/>
<path d="M23.2576 6.40479C23.2576 6.40479 23.7914 11.2085 30.73 10.6747C26.4601 10.141 23.2576 6.40479 23.2576 6.40479Z" fill="#ED8D06"/>
<path d="M30.73 10.6747C24.3251 10.6747 23.2576 6.40479 23.2576 6.40479C23.2576 6.40479 26.4601 10.141 30.73 10.6747Z" fill="url(#paint7_linear_665_3056)"/>
<path d="M5.11035 13.8773C5.77547 13.4355 6.47517 13.0482 7.20262 12.7191C8.72899 12.0368 10.3446 11.5749 12.001 11.3474C12.5473 11.2672 13.0981 11.2208 13.6502 11.2086C13.6502 11.2086 13.1165 10.1411 9.91404 10.6748C8.94033 10.8616 8.01378 11.2411 7.18884 11.791C6.36391 12.341 5.65723 13.0503 5.11035 13.8773Z" fill="url(#paint8_linear_665_3056)"/>
<path d="M12.5828 6.40479C12.5828 6.40479 12.049 11.2085 5.11035 10.6747C9.38029 10.141 12.5828 6.40479 12.5828 6.40479Z" fill="#ED8D06"/>
<path d="M5.11035 10.6747C11.5153 10.6747 12.5828 6.40479 12.5828 6.40479C12.5828 6.40479 9.38029 10.141 5.11035 10.6747Z" fill="url(#paint9_linear_665_3056)"/>
<path d="M23.8394 11.3474C24.0849 12.1053 24.6773 15.9483 25.163 24.0238C25.297 26.2527 25.3856 29.2988 25.3915 32.228C25.5516 32.1596 25.716 32.0951 25.8718 32.0225C25.8905 32.0139 25.9071 32.0038 25.9252 31.9953C25.9252 28.9759 25.8345 26.3296 25.6957 24.0249C25.2111 15.9483 24.0849 12.1053 23.8394 11.3474Z" fill="#ED8D06"/>
<path d="M9.91406 31.9942C9.93221 32.0027 9.94822 32.0123 9.96744 32.0209L9.97598 32.0246C10.1286 32.0967 10.292 32.1607 10.4499 32.228C10.4558 29.2988 10.5444 26.2527 10.6784 24.0238C11.1641 15.9483 11.7565 12.1053 12.0021 11.3474C11.7565 12.1053 10.6303 15.9483 10.1446 24.0238C10.0048 26.3285 9.91406 28.9748 9.91406 31.9942Z" fill="#ED8D06"/>
<defs>
<linearGradient id="paint0_linear_665_3056" x1="17.9205" y1="0.695949" x2="18.2689" y2="60.9991" gradientUnits="userSpaceOnUse">
<stop stop-color="#FED724"/>
<stop offset="1" stop-color="#F98900"/>
</linearGradient>
<linearGradient id="paint1_linear_665_3056" x1="17.9203" y1="22.961" x2="17.9203" y2="18.3062" gradientUnits="userSpaceOnUse">
<stop stop-color="#911625"/>
<stop offset="0.412" stop-color="#69101B"/>
<stop offset="0.788" stop-color="#4B0C13"/>
<stop offset="1" stop-color="#400A10"/>
</linearGradient>
<linearGradient id="paint2_linear_665_3056" x1="9.34592" y1="12.2425" x2="9.34592" y2="33.1465" gradientUnits="userSpaceOnUse">
<stop stop-color="#8AD4FF"/>
<stop offset="0.535" stop-color="#3E9FF5"/>
<stop offset="1" stop-color="#0073ED"/>
</linearGradient>
<linearGradient id="paint3_linear_665_3056" x1="26.4601" y1="12.1827" x2="26.4601" y2="33.0243" gradientUnits="userSpaceOnUse">
<stop stop-color="#8AD4FF"/>
<stop offset="0.535" stop-color="#3E9FF5"/>
<stop offset="1" stop-color="#0073ED"/>
</linearGradient>
<linearGradient id="paint4_linear_665_3056" x1="2.75367" y1="35.4539" x2="7.94752" y2="32.3619" gradientUnits="userSpaceOnUse">
<stop stop-color="#8AD4FF"/>
<stop offset="0.26" stop-color="#5AB3F9"/>
<stop offset="0.745" stop-color="#0577EE"/>
<stop offset="1" stop-color="#0073ED"/>
</linearGradient>
<linearGradient id="paint5_linear_665_3056" x1="32.2058" y1="35.8712" x2="28.2278" y2="33.004" gradientUnits="userSpaceOnUse">
<stop stop-color="#8AD4FF"/>
<stop offset="0.26" stop-color="#5AB3F9"/>
<stop offset="0.745" stop-color="#0577EE"/>
<stop offset="1" stop-color="#0073ED"/>
</linearGradient>
<linearGradient id="paint6_linear_665_3056" x1="26.8817" y1="10.7933" x2="26.5988" y2="11.9665" gradientUnits="userSpaceOnUse">
<stop stop-color="#803F02"/>
<stop offset="0.174" stop-color="#6D3602"/>
<stop offset="0.515" stop-color="#4D2601"/>
<stop offset="0.802" stop-color="#3A1C01"/>
<stop offset="1" stop-color="#331901"/>
</linearGradient>
<linearGradient id="paint7_linear_665_3056" x1="29.5569" y1="10.9363" x2="23.4322" y2="6.88355" gradientUnits="userSpaceOnUse">
<stop offset="0.005" stop-color="#414D4D"/>
<stop offset="0.206" stop-color="#3A4545"/>
<stop offset="0.522" stop-color="#272E2E"/>
<stop offset="0.914" stop-color="#080909"/>
<stop offset="1"/>
</linearGradient>
<linearGradient id="paint8_linear_665_3056" x1="8.95864" y1="10.7933" x2="9.24152" y2="11.9665" gradientUnits="userSpaceOnUse">
<stop stop-color="#803F02"/>
<stop offset="0.174" stop-color="#6D3602"/>
<stop offset="0.515" stop-color="#4D2601"/>
<stop offset="0.802" stop-color="#3A1C01"/>
<stop offset="1" stop-color="#331901"/>
</linearGradient>
<linearGradient id="paint9_linear_665_3056" x1="5.84051" y1="11.122" x2="12.9259" y2="6.859" gradientUnits="userSpaceOnUse">
<stop offset="0.005" stop-color="#414D4D"/>
<stop offset="0.206" stop-color="#3A4545"/>
<stop offset="0.522" stop-color="#272E2E"/>
<stop offset="0.914" stop-color="#080909"/>
<stop offset="1"/>
</linearGradient>
</defs>
</svg>
