<svg width="34" height="34" viewBox="0 0 34 34" fill="none" xmlns="http://www.w3.org/2000/svg">
<g clip-path="url(#clip0_665_3007)">
<path d="M17.0552 33.5706C26.3255 33.5706 33.8405 26.0555 33.8405 16.7853C33.8405 7.51502 26.3255 0 17.0552 0C7.78498 0 0.269958 7.51502 0.269958 16.7853C0.269958 26.0555 7.78498 33.5706 17.0552 33.5706Z" fill="#C1FF00"/>
<path d="M33.8405 16.7854C33.8405 26.0553 26.3252 33.5707 17.0552 33.5707C7.7853 33.5707 0.269958 26.0553 0.269958 16.7854C0.269958 16.1199 0.308643 15.4635 0.384046 14.8184C1.35772 23.1612 8.45081 29.6366 17.0552 29.6366C25.6597 29.6366 32.7527 23.1612 33.7264 14.8184C33.8018 15.4635 33.8405 16.1199 33.8405 16.7854Z" fill="#89EE30"/>
<path d="M10.513 15.1062H23.5983C24.6015 15.1062 25.4158 15.9205 25.4158 16.9237V16.9559C25.4158 21.5521 21.6844 25.2836 17.0881 25.2836H17.056C12.442 25.2836 8.69611 21.5377 8.69611 16.9237C8.69611 15.9205 9.51045 15.1062 10.5136 15.1062H10.513Z" fill="#473535"/>
<path d="M22.2217 23.5134C20.8068 24.6221 19.0246 25.2837 17.0871 25.2837H17.055C15.1083 25.2837 13.3176 24.6188 11.8968 23.5029C13.0632 21.9227 14.9398 20.8972 17.055 20.8972C19.1702 20.8972 21.0553 21.9266 22.2217 23.5134Z" fill="#FF7E27"/>
<path d="M24.5062 15.3502V15.8334C24.5062 17.0372 23.5299 18.0142 22.3254 18.0142H11.7848C10.5803 18.0142 9.604 17.0372 9.604 15.8334V15.3502C9.87152 15.1955 10.1817 15.1069 10.5128 15.1069H23.5981C23.9285 15.1069 24.2393 15.1955 24.5068 15.3502H24.5062Z" fill="white"/>
<path d="M19.9349 11.0908C19.7284 11.0908 19.5199 11.0351 19.331 10.9183C18.7921 10.5846 18.6268 9.87648 18.9599 9.33751C19.1317 9.06016 20.702 6.62695 22.9372 6.62695C25.1724 6.62695 26.7428 9.06016 26.9146 9.33751C27.2483 9.87648 27.0818 10.5833 26.5428 10.917C26.0045 11.2501 25.299 11.0849 24.9652 10.5479C24.6322 10.0168 23.6985 8.92116 22.9379 8.92116C22.1773 8.92116 21.2436 10.0168 20.9105 10.5479C20.6935 10.898 20.3191 11.0908 19.9356 11.0908H19.9349Z" fill="#473535"/>
<path d="M8.17074 11.0908C7.9642 11.0908 7.7557 11.0351 7.56686 10.9183C7.0279 10.5846 6.86267 9.87648 7.19575 9.33751C7.36754 9.06016 8.93788 6.62695 11.1731 6.62695C13.4083 6.62695 14.9786 9.06016 15.1504 9.33751C15.4841 9.87648 15.3176 10.5833 14.7786 10.917C14.2397 11.2508 13.5329 11.0842 13.1991 10.5453C12.868 10.0174 11.9343 8.92182 11.1737 8.92182C10.4131 8.92182 9.47947 10.0174 9.14639 10.5485C8.92936 10.8987 8.55497 11.0914 8.1714 11.0914L8.17074 11.0908Z" fill="#473535"/>
</g>
<defs>
<clipPath id="clip0_665_3007">
<rect width="33.5706" height="33.5706" fill="white" transform="translate(0.269958)"/>
</clipPath>
</defs>
</svg>
