<svg width="35" height="35" viewBox="0 0 35 35" fill="none" xmlns="http://www.w3.org/2000/svg">
<g clip-path="url(#clip0_665_2989)">
<path d="M17.135 34.2699C26.5984 34.2699 34.2699 26.5984 34.2699 17.135C34.2699 7.67159 26.5984 0 17.135 0C7.67159 0 0 7.67159 0 17.135C0 26.5984 7.67159 34.2699 17.135 34.2699Z" fill="#00FFC2"/>
<path d="M34.2699 17.1349C34.2699 26.602 26.5966 34.2699 17.1349 34.2699C11.7481 34.2699 6.93961 31.7853 3.79642 27.8924C6.73614 30.2699 10.4791 31.6889 14.554 31.6889C24.0157 31.6889 31.6889 24.021 31.6889 14.5539C31.6889 10.479 30.2699 6.7361 27.8925 3.79639C31.78 6.93958 34.2699 11.7481 34.2699 17.1349Z" fill="#00E2AC"/>
<path d="M28.8692 21.6382C27.6054 26.95 22.8398 30.9125 17.1317 30.9125C11.4236 30.9125 6.65795 26.95 5.39424 21.6275C5.29786 21.2205 5.67269 20.8671 6.06893 20.9849C13.5012 23.2017 20.88 23.2446 28.1945 20.9956C28.6014 20.8671 28.9655 21.2312 28.8692 21.6382Z" fill="#3E4347"/>
<path d="M16.4422 26.42C12.0557 26.42 8.93066 25.1296 9.53896 28.1796C9.54217 28.1956 9.54859 28.2106 9.55181 28.2267C11.6219 29.9049 14.2564 30.9115 17.1319 30.9115C20.0074 30.9115 22.6419 29.9038 24.712 28.2278C24.7152 28.2106 24.7216 28.1956 24.7248 28.1796C25.3331 25.1296 20.8298 26.42 16.4422 26.42Z" fill="#E24B4B"/>
<path d="M6.24017 21.03C6.88809 23.354 11.5038 25.1467 17.1102 25.1467C22.6962 25.1467 27.2969 23.3668 27.9716 21.0547C20.7867 23.218 13.5397 23.174 6.24017 21.03Z" fill="white"/>
<path d="M24.2835 20.9538C27.9227 20.9538 30.8729 18.0036 30.8729 14.3644C30.8729 10.7251 27.9227 7.7749 24.2835 7.7749C20.6442 7.7749 17.694 10.7251 17.694 14.3644C17.694 18.0036 20.6442 20.9538 24.2835 20.9538Z" fill="#2FE4BA"/>
<path d="M29.9242 14.3666C29.7507 17.5012 27.0862 20.0404 23.9709 20.0404C20.8566 20.0404 18.463 17.5001 18.6365 14.3666C18.81 11.2319 21.4852 8.68311 24.5995 8.68311C27.7138 8.68311 30.0977 11.233 29.9242 14.3666Z" fill="white"/>
<path d="M26.9534 14.3624C26.9598 15.8392 25.7571 17.0419 24.2803 17.0354C22.8035 17.0419 21.5997 15.8381 21.6072 14.3613C21.6008 12.8845 22.8035 11.6818 24.2803 11.6883C25.7571 11.6818 26.9598 12.8856 26.9534 14.3624Z" fill="#3E4347"/>
<path d="M25.6232 13.0195C25.3116 12.7079 24.897 12.6174 24.6971 12.8173C24.4972 13.0172 24.5877 13.4319 24.8993 13.7435C25.2108 14.055 25.6255 14.1456 25.8254 13.9456C26.0253 13.7457 25.9348 13.3311 25.6232 13.0195Z" fill="white"/>
<path d="M9.98772 20.9538C13.627 20.9538 16.5772 18.0036 16.5772 14.3644C16.5772 10.7251 13.627 7.7749 9.98772 7.7749C6.34846 7.7749 3.39825 10.7251 3.39825 14.3644C3.39825 18.0036 6.34846 20.9538 9.98772 20.9538Z" fill="#2FE4BA"/>
<path d="M4.34695 14.3666C4.52044 17.5012 7.18493 20.0404 10.3003 20.0404C13.4146 20.0404 15.8081 17.5001 15.6346 14.3666C15.4611 11.2319 12.7859 8.68311 9.67164 8.68311C6.55629 8.68311 4.17346 11.233 4.34695 14.3666Z" fill="white"/>
<path d="M7.31661 14.3624C7.31019 15.8392 8.51285 17.0419 9.98967 17.0354C11.4665 17.0419 12.6692 15.8381 12.6627 14.3613C12.6692 12.8845 11.4665 11.6818 9.98967 11.6883C8.51392 11.6818 7.31019 12.8856 7.31661 14.3624Z" fill="#3E4347"/>
<path d="M9.57286 12.8193C9.37295 12.6194 8.95831 12.7099 8.64674 13.0215C8.33516 13.333 8.24464 13.7477 8.44455 13.9476C8.64446 14.1475 9.0591 14.057 9.37068 13.7454C9.68225 13.4338 9.77277 13.0192 9.57286 12.8193Z" fill="white"/>
<path d="M10.3847 4.88145C10.3847 4.88145 6.90309 4.39204 3.24799 8.6233C3.24799 8.6233 5.61154 1.04322 10.3847 4.88145Z" fill="#3E4347"/>
<path d="M23.8849 4.88145C23.8849 4.88145 27.3666 4.39204 31.0217 8.6233C31.0217 8.6233 28.6581 1.04322 23.8849 4.88145Z" fill="#3E4347"/>
</g>
<defs>
<clipPath id="clip0_665_2989">
<rect width="34.2699" height="34.2699" fill="white"/>
</clipPath>
</defs>
</svg>
