<svg width="35" height="34" viewBox="0 0 35 34" fill="none" xmlns="http://www.w3.org/2000/svg">
<g clip-path="url(#clip0_665_3029)">
<path d="M17.8404 33.2916C26.8381 33.2916 34.1321 25.9976 34.1321 16.9999C34.1321 8.00228 26.8381 0.708252 17.8404 0.708252C8.84279 0.708252 1.54877 8.00228 1.54877 16.9999C1.54877 25.9976 8.84279 33.2916 17.8404 33.2916Z" fill="#FF9500"/>
<path d="M27.0488 25.264C27.0785 25.8584 26.8717 26.4405 26.4735 26.8829C26.0753 27.3253 25.5181 27.5921 24.9238 27.6248C24.3295 27.5921 23.7723 27.3253 23.3741 26.8829C22.9759 26.4405 22.769 25.8584 22.7988 25.264C22.7988 23.9599 24.3925 20.5415 24.9238 20.5415C25.455 20.5415 27.0488 23.9599 27.0488 25.264Z" fill="#3BC5F6"/>
<path d="M7.92377 12.0416V10.6249C10.5602 10.6249 12.1738 9.70763 12.1738 9.20825H13.5904C13.5904 11.0683 10.7401 12.0416 7.92377 12.0416Z" fill="#273941"/>
<path d="M27.7571 12.0416C24.9408 12.0416 22.0905 11.0683 22.0905 9.20825H23.5071C23.5071 9.70763 25.1207 10.6249 27.7571 10.6249V12.0416Z" fill="#273941"/>
<path d="M17.8404 24.7915C16.858 24.8351 15.8944 25.076 15.0071 25.4998C15.0071 24.7484 15.3056 24.0277 15.8369 23.4964C16.3683 22.965 17.089 22.6665 17.8404 22.6665C18.5919 22.6665 19.3125 22.965 19.8439 23.4964C20.3752 24.0277 20.6737 24.7484 20.6737 25.4998C19.7864 25.076 18.8228 24.8351 17.8404 24.7915Z" fill="#273941"/>
<path d="M24.9237 19.1248C26.8798 19.1248 28.4654 17.5392 28.4654 15.5832C28.4654 13.6272 26.8798 12.0415 24.9237 12.0415C22.9677 12.0415 21.3821 13.6272 21.3821 15.5832C21.3821 17.5392 22.9677 19.1248 24.9237 19.1248Z" fill="#273941"/>
<path d="M10.7571 19.1248C12.7131 19.1248 14.2988 17.5392 14.2988 15.5832C14.2988 13.6272 12.7131 12.0415 10.7571 12.0415C8.80111 12.0415 7.21545 13.6272 7.21545 15.5832C7.21545 17.5392 8.80111 19.1248 10.7571 19.1248Z" fill="#273941"/>
<path d="M24.9238 18.4167C26.4886 18.4167 27.7571 17.1481 27.7571 15.5833C27.7571 14.0185 26.4886 12.75 24.9238 12.75C23.359 12.75 22.0905 14.0185 22.0905 15.5833C22.0905 17.1481 23.359 18.4167 24.9238 18.4167Z" fill="#141E21"/>
<path d="M10.7571 18.4167C12.3219 18.4167 13.5904 17.1481 13.5904 15.5833C13.5904 14.0185 12.3219 12.75 10.7571 12.75C9.19229 12.75 7.92377 14.0185 7.92377 15.5833C7.92377 17.1481 9.19229 18.4167 10.7571 18.4167Z" fill="#141E21"/>
<path d="M25.9863 15.5833C26.5731 15.5833 27.0488 15.1076 27.0488 14.5208C27.0488 13.9339 26.5731 13.4583 25.9863 13.4583C25.3995 13.4583 24.9238 13.9339 24.9238 14.5208C24.9238 15.1076 25.3995 15.5833 25.9863 15.5833Z" fill="#F6FAFD"/>
<path d="M23.8613 17.7083C24.4481 17.7083 24.9238 17.2326 24.9238 16.6458C24.9238 16.0589 24.4481 15.5833 23.8613 15.5833C23.2745 15.5833 22.7988 16.0589 22.7988 16.6458C22.7988 17.2326 23.2745 17.7083 23.8613 17.7083Z" fill="#F6FAFD"/>
<path d="M25.9862 16.9998C26.1818 16.9998 26.3404 16.8413 26.3404 16.6457C26.3404 16.4501 26.1818 16.2915 25.9862 16.2915C25.7906 16.2915 25.6321 16.4501 25.6321 16.6457C25.6321 16.8413 25.7906 16.9998 25.9862 16.9998Z" fill="#F6FAFD"/>
<path d="M9.69458 15.5833C10.2814 15.5833 10.7571 15.1076 10.7571 14.5208C10.7571 13.9339 10.2814 13.4583 9.69458 13.4583C9.10778 13.4583 8.63208 13.9339 8.63208 14.5208C8.63208 15.1076 9.10778 15.5833 9.69458 15.5833Z" fill="#F6FAFD"/>
<path d="M11.8196 17.7083C12.4064 17.7083 12.8821 17.2326 12.8821 16.6458C12.8821 16.0589 12.4064 15.5833 11.8196 15.5833C11.2328 15.5833 10.7571 16.0589 10.7571 16.6458C10.7571 17.2326 11.2328 17.7083 11.8196 17.7083Z" fill="#F6FAFD"/>
<path d="M9.69456 16.9998C9.89016 16.9998 10.0487 16.8413 10.0487 16.6457C10.0487 16.4501 9.89016 16.2915 9.69456 16.2915C9.49896 16.2915 9.34039 16.4501 9.34039 16.6457C9.34039 16.8413 9.49896 16.9998 9.69456 16.9998Z" fill="#F6FAFD"/>
<path d="M17.8404 2.83321C26.4467 2.83321 33.4238 8.85901 33.4238 16.2915H34.1144C33.9191 12.1068 32.1192 8.15802 29.0887 5.26557C26.0581 2.37311 22.0298 0.759277 17.8404 0.759277C13.6511 0.759277 9.62274 2.37311 6.59217 5.26557C3.5616 8.15802 1.76174 12.1068 1.56647 16.2915H2.25709C2.25709 8.85901 9.23418 2.83321 17.8404 2.83321Z" fill="#ED8D06"/>
<path d="M33.4238 16.2915C33.4238 23.724 26.4467 29.7498 17.8404 29.7498C9.23418 29.7498 2.2571 23.724 2.2571 16.2915H1.56648C1.55656 16.5267 1.54877 16.7625 1.54877 16.9998C1.54877 21.3207 3.26521 25.4645 6.32049 28.5198C9.37577 31.5751 13.5196 33.2915 17.8404 33.2915C22.1613 33.2915 26.3051 31.5751 29.3604 28.5198C32.4157 25.4645 34.1321 21.3207 34.1321 16.9998C34.1321 16.7625 34.1243 16.5267 34.1144 16.2915H33.4238Z" fill="#E1890D"/>
<path d="M27.6253 6.95992C27.8536 6.73171 27.7811 6.28927 27.4636 5.97171C27.146 5.65415 26.7036 5.58172 26.4753 5.80993C26.2471 6.03814 26.3196 6.48058 26.6371 6.79814C26.9547 7.1157 27.3971 7.18813 27.6253 6.95992Z" fill="#F6FAFD"/>
<path d="M22.9078 3.48288C23.022 3.36864 22.9859 3.14731 22.8271 2.98853C22.6683 2.82975 22.447 2.79364 22.3328 2.90789C22.2185 3.02213 22.2546 3.24346 22.4134 3.40224C22.5722 3.56102 22.7935 3.59713 22.9078 3.48288Z" fill="#F6FAFD"/>
<path d="M26.076 6.11811C26.5324 5.66168 26.3873 4.77658 25.7519 4.14118C25.1165 3.50578 24.2314 3.3607 23.775 3.81712C23.3186 4.27355 23.4636 5.15865 24.099 5.79405C24.7344 6.42945 25.6195 6.57453 26.076 6.11811Z" fill="#F6FAFD"/>
<path d="M25.0194 20.575C25.5315 20.8859 26.6946 23.3431 26.6946 24.3192C26.7099 24.5612 26.6755 24.8037 26.5934 25.0318C26.5113 25.26 26.3834 25.4689 26.2175 25.6457C26.0515 25.8224 25.8511 25.9633 25.6286 26.0596C25.4061 26.1559 25.1662 26.2056 24.9238 26.2056C24.6813 26.2056 24.4414 26.1559 24.2189 26.0596C23.9964 25.9633 23.796 25.8224 23.6301 25.6457C23.4642 25.4689 23.3362 25.26 23.2541 25.0318C23.1721 24.8037 23.1376 24.5612 23.1529 24.3192C23.1529 23.3431 24.316 20.8859 24.8282 20.575C24.2247 20.9072 22.7988 24.0295 22.7988 25.2641C22.769 25.8586 22.9759 26.4407 23.3741 26.8831C23.7723 27.3255 24.3295 27.5922 24.9238 27.625C25.5181 27.5922 26.0753 27.3255 26.4735 26.8831C26.8717 26.4407 27.0785 25.8586 27.0488 25.2641C27.0488 24.0295 25.6229 20.9072 25.0194 20.575Z" fill="#00A3E1"/>
<path d="M26.2023 25.3786C26.4305 25.1504 26.3581 24.708 26.0405 24.3904C25.723 24.0728 25.2805 24.0004 25.0523 24.2286C24.8241 24.4568 24.8965 24.8993 25.2141 25.2168C25.5317 25.5344 25.9741 25.6068 26.2023 25.3786Z" fill="#F6FAFD"/>
<path d="M26.443 24.0288C26.5573 23.9145 26.5212 23.6932 26.3624 23.5344C26.2036 23.3756 25.9823 23.3395 25.8681 23.4538C25.7538 23.568 25.7899 23.7894 25.9487 23.9481C26.1075 24.1069 26.3288 24.143 26.443 24.0288Z" fill="#F6FAFD"/>
<path d="M24.9238 27.6249C24.4507 27.607 23.9967 27.4341 23.6315 27.1328C23.2664 26.8315 23.0103 26.4186 22.9029 25.9575C22.8424 26.1942 22.8074 26.4366 22.7988 26.6807C22.769 27.2752 22.9759 27.8573 23.3741 28.2997C23.7723 28.7421 24.3295 29.0088 24.9238 29.0416C25.5181 29.0088 26.0753 28.7421 26.4735 28.2997C26.8717 27.8573 27.0785 27.2752 27.0488 26.6807C27.0401 26.4366 27.0052 26.1942 26.9446 25.9575C26.8372 26.4186 26.5812 26.8315 26.216 27.1328C25.8509 27.4341 25.3968 27.607 24.9238 27.6249Z" fill="#FFB32B"/>
</g>
<defs>
<clipPath id="clip0_665_3029">
<rect width="34" height="34" fill="white" transform="translate(0.840454)"/>
</clipPath>
</defs>
</svg>
