<svg viewBox="0 0 512 512" xmlns="http://www.w3.org/2000/svg" xmlns:xlink="http://www.w3.org/1999/xlink"><linearGradient id="linear-gradient" gradientUnits="userSpaceOnUse" x1="258.77" x2="252.34" y1="-15.13" y2="613.58"><stop offset=".01" stop-color="#fce600"/><stop offset=".19" stop-color="#fbdd01"/><stop offset=".47" stop-color="#f7c502"/><stop offset=".82" stop-color="#f09e05"/><stop offset=".89" stop-color="#ef9506"/></linearGradient><g id="Layer_2" data-name="Layer 2"><g id="Layer_1-2" data-name="Layer 1"><g id="_15" data-name="15"><circle cx="256" cy="256" fill="url(#linear-gradient)" r="256"/><ellipse cx="149.11" cy="232.23" fill="#1e1e1e" rx="21.38" ry="36.03"/><ellipse cx="362.89" cy="232.23" fill="#1e1e1e" rx="21.38" ry="36.03"/><path d="m153.43 113.45h27.51v91.8h-27.51z" fill="#2c2c2c" transform="matrix(.707 -.707 .707 .707 -63.71 164.89)"/><path d="m298.91 145.6h91.8v27.51h-91.8z" fill="#2c2c2c" transform="matrix(.707 -.707 .707 .707 -11.69 290.49)"/><path d="m163.46 394.19c-10.31-6.95 5.1-36 9.5-42.82 13.12-20.25 35.15-34.43 58.2-40.7a97 97 0 0 1 17.23-3.08c24-2 49 4.69 68.44 19.34 18.64 14 35.55 38.43 35.19 62.71a5.15 5.15 0 0 1 -.08 1c-2 9.76-15.13-2-18.45-4.79a104.3 104.3 0 0 0 -29.1-17.56c-25.86-10.51-55.62-13.25-82.69-6-2.11.57-4.2 1.19-6.27 1.89a102.45 102.45 0 0 0 -23 11 129.3 129.3 0 0 0 -16.43 12.6c-2.33 2.09-6.95 7.24-10.45 7a4 4 0 0 1 -2.09-.59z" fill="#1e1e1e"/></g></g></g></svg>