<svg width="36" height="35" viewBox="0 0 36 35" fill="none" xmlns="http://www.w3.org/2000/svg">
<path d="M18.1168 33.7345C3.28436 33.7345 1.49697 20.8832 1.51732 17.6704V16.5995C1.49697 13.3867 3.28436 0.535461 18.1168 0.535461C32.9493 0.535461 34.7367 13.3867 34.7163 16.5995V17.6704C34.7367 20.8832 32.9493 33.7345 18.1168 33.7345Z" fill="url(#paint0_linear_65_7922)"/>
<path d="M24.5305 24.0961C24.4858 23.575 24.3801 23.0611 24.2156 22.5646C23.8578 21.5215 23.2295 20.5921 22.395 19.8712C21.2276 18.8002 19.7009 18.206 18.1166 18.206C16.5323 18.206 15.0057 18.8002 13.8383 19.8712C13.0037 20.5921 12.3755 21.5215 12.0177 22.5646C11.8532 23.0611 11.7475 23.575 11.7028 24.0961H11.691V24.6315H11.7028C11.7028 24.661 11.6937 24.6851 11.691 24.7172C11.6696 25.001 11.8891 25.2259 12.1194 25.151C13.0618 24.8511 15.4018 23.5606 18.1166 23.5606C20.8315 23.5606 23.1715 24.8511 24.1139 25.151C24.3441 25.2259 24.5637 25.001 24.5423 24.7172C24.5396 24.6872 24.5332 24.6637 24.5305 24.6315H24.5423V24.0961H24.5305Z" fill="#F9BF06"/>
<path d="M24.5305 23.5606C24.4858 23.0396 24.3801 22.5256 24.2156 22.0292C23.8578 20.9861 23.2295 20.0566 22.395 19.3358C21.2276 18.2647 19.7009 17.6705 18.1166 17.6705C16.5323 17.6705 15.0057 18.2647 13.8383 19.3358C13.0037 20.0566 12.3755 20.9861 12.0177 22.0292C11.8532 22.5256 11.7475 23.0396 11.7028 23.5606H11.691V24.0961H11.7028C11.7028 24.1255 11.6937 24.1496 11.691 24.1818C11.6696 24.4656 11.8891 24.6905 12.1194 24.6155C13.0618 24.3156 15.4018 23.0251 18.1166 23.0251C20.8315 23.0251 23.1715 24.3156 24.1139 24.6155C24.3441 24.6905 24.5637 24.4656 24.5423 24.1818C24.5396 24.1518 24.5332 24.1282 24.5305 24.0961H24.5423V23.5606H24.5305Z" fill="#ED8D06"/>
<path d="M24.5423 24.1818C24.5637 24.4656 24.3441 24.6904 24.1139 24.6155C23.1715 24.3156 20.8315 23.0251 18.1166 23.0251C15.4018 23.0251 13.0618 24.3156 12.1194 24.6155C11.8891 24.6904 11.6696 24.4656 11.691 24.1818C11.7324 23.6313 11.8421 23.088 12.0177 22.5646C12.3755 21.5215 13.0037 20.5921 13.8383 19.8712C15.0057 18.8002 16.5323 18.206 18.1166 18.206C19.7009 18.206 21.2276 18.8002 22.395 19.8712C23.2295 20.5921 23.8578 21.5215 24.2156 22.5646C24.3911 23.088 24.5009 23.6313 24.5423 24.1818Z" fill="url(#paint1_linear_65_7922)"/>
<path d="M26.1486 10.7093C22.9358 10.1739 22.4003 11.2448 22.4003 11.2448C22.4003 11.2448 28.8259 12.8512 30.9678 13.9221C30.4191 13.0925 29.7102 12.3809 28.8826 11.8291C28.055 11.2774 27.1254 10.8967 26.1486 10.7093Z" fill="#ED8D06"/>
<path d="M10.0845 10.7093C13.2973 10.1739 13.8328 11.2448 13.8328 11.2448C13.8328 11.2448 7.4072 12.8512 5.26533 13.9221C5.81397 13.0925 6.52293 12.3809 7.35054 11.8291C8.17814 11.2774 9.10769 10.8967 10.0845 10.7093Z" fill="#ED8D06"/>
<path d="M10.0848 32.1013C12.4185 33.1602 14.9492 33.7149 17.5118 33.7291V33.7345H2.58829C2.44767 33.7352 2.30835 33.7076 2.17863 33.6533C2.04891 33.5991 1.93146 33.5192 1.83328 33.4185C1.73323 33.3199 1.65377 33.2024 1.59955 33.0727C1.54532 32.9431 1.51739 32.804 1.51739 32.6635C1.51739 32.523 1.54532 32.3839 1.59955 32.2543C1.65377 32.1247 1.73323 32.0072 1.83328 31.9085C1.93146 31.8078 2.04891 31.728 2.17863 31.6737C2.30835 31.6194 2.44767 31.5918 2.58829 31.5926C3.15635 31.5926 3.70114 31.3669 4.10282 30.9652C4.5045 30.5636 4.73016 30.0188 4.73016 29.4507V27.6194C4.76764 17.6008 7.4075 12.8512 7.4075 12.8512L7.36466 12.7602C8.89596 12.0757 10.5168 11.6123 12.1785 11.384C11.9322 12.1444 10.8024 15.9998 10.3151 24.1014C10.1759 26.4146 10.0848 29.0705 10.0848 32.1013Z" fill="url(#paint2_linear_65_7922)"/>
<path d="M26.1486 32.1013C26.1486 29.0705 26.0575 26.4146 25.9183 24.1014C25.431 15.9998 24.3012 12.1444 24.0549 11.384C25.7166 11.6123 27.3375 12.0757 28.8687 12.7602L28.8259 12.8512C28.8259 12.8512 31.4658 17.6008 31.5033 27.6194V29.4507C31.5033 30.0188 31.7289 30.5636 32.1306 30.9652C32.5323 31.3669 33.0771 31.5926 33.6451 31.5926C33.9292 31.5926 34.2015 31.7054 34.4024 31.9063C34.6032 32.1071 34.7161 32.3795 34.7161 32.6635C34.7161 32.9476 34.6032 33.2199 34.4024 33.4208C34.2015 33.6216 33.9292 33.7345 33.6451 33.7345H18.652V33.7291C21.2383 33.7265 23.7941 33.1715 26.1486 32.1013Z" fill="url(#paint3_linear_65_7922)"/>
<path d="M10.6203 32.3423C10.5469 32.3112 10.4784 32.2759 10.4061 32.2437C10.299 32.1966 10.1887 32.1516 10.0848 32.1024V32.096C7.94611 31.0846 6.10249 29.5417 4.73016 27.6146V29.4507C4.73016 30.0188 4.5045 30.5636 4.10282 30.9653C3.70114 31.367 3.15635 31.5926 2.58829 31.5926C2.44767 31.5919 2.30835 31.6195 2.17863 31.6737C2.04891 31.728 1.93146 31.8079 1.83328 31.9085C1.73323 32.0072 1.65377 32.1247 1.59955 32.2543C1.54532 32.384 1.51739 32.523 1.51739 32.6636C1.51739 32.8041 1.54532 32.9432 1.59955 33.0728C1.65377 33.2024 1.73323 33.3199 1.83328 33.4186C1.93146 33.5192 2.04891 33.5991 2.17863 33.6534C2.30835 33.7076 2.44767 33.7352 2.58829 33.7345H17.5118V33.7291C15.0681 33.7099 12.6526 33.2046 10.4061 32.2427C10.4784 32.2748 10.5469 32.3101 10.6203 32.3423Z" fill="url(#paint4_linear_65_7922)"/>
<path d="M34.4001 31.9085C34.302 31.8079 34.1845 31.728 34.0548 31.6737C33.9251 31.6195 33.7857 31.5919 33.6451 31.5926C33.0771 31.5926 32.5323 31.367 32.1306 30.9653C31.7289 30.5636 31.5033 30.0188 31.5033 29.4507V27.6146C30.1308 29.5413 28.2872 31.0839 26.1486 32.0949V32.1013C26.0415 32.1549 25.9231 32.2004 25.8107 32.2502C23.5477 33.2178 21.1132 33.7208 18.652 33.7291V33.7345H33.6451C33.857 33.7351 34.0642 33.6727 34.2405 33.5553C34.4168 33.4378 34.5541 33.2705 34.6351 33.0748C34.716 32.879 34.7369 32.6636 34.6951 32.4559C34.6532 32.2482 34.5506 32.0577 34.4001 31.9085Z" fill="url(#paint5_linear_65_7922)"/>
<path d="M30.9678 13.9221C30.3005 13.4789 29.5986 13.0904 28.8688 12.7602C27.3375 12.0756 25.7166 11.6123 24.0549 11.384C23.5068 11.3036 22.9542 11.2571 22.4003 11.2448C22.4003 11.2448 22.9358 10.1739 26.1486 10.7093C27.1254 10.8967 28.055 11.2774 28.8826 11.8291C29.7102 12.3809 30.4191 13.0925 30.9678 13.9221Z" fill="url(#paint6_linear_65_7922)"/>
<path d="M23.4712 6.4256C23.4712 6.4256 24.0067 11.2448 30.9678 10.7093C26.684 10.1739 23.4712 6.4256 23.4712 6.4256Z" fill="#ED8D06"/>
<path d="M30.9678 10.7093C24.5422 10.7093 23.4712 6.4256 23.4712 6.4256C23.4712 6.4256 26.684 10.1739 30.9678 10.7093Z" fill="url(#paint7_linear_65_7922)"/>
<path d="M5.26533 13.9221C5.93259 13.4789 6.63455 13.0904 7.36436 12.7602C8.89566 12.0756 10.5165 11.6123 12.1782 11.384C12.7264 11.3036 13.2789 11.2571 13.8328 11.2448C13.8328 11.2448 13.2973 10.1739 10.0845 10.7093C9.10769 10.8967 8.17814 11.2774 7.35054 11.8291C6.52293 12.3809 5.81397 13.0925 5.26533 13.9221Z" fill="url(#paint8_linear_65_7922)"/>
<path d="M12.7619 6.4256C12.7619 6.4256 12.2264 11.2448 5.26533 10.7093C9.54907 10.1739 12.7619 6.4256 12.7619 6.4256Z" fill="#ED8D06"/>
<path d="M5.26533 10.7093C11.6909 10.7093 12.7619 6.4256 12.7619 6.4256C12.7619 6.4256 9.54907 10.1739 5.26533 10.7093Z" fill="url(#paint9_linear_65_7922)"/>
<path d="M24.0549 11.384C24.3012 12.1444 24.8955 15.9998 25.3828 24.1014C25.5172 26.3375 25.6061 29.3934 25.612 32.3321C25.7726 32.2635 25.9376 32.1987 26.0939 32.1259C26.1127 32.1173 26.1293 32.1072 26.1475 32.0986C26.1475 29.0695 26.0564 26.4146 25.9172 24.1025C25.431 15.9998 24.3012 12.1444 24.0549 11.384Z" fill="#ED8D06"/>
<path d="M10.0845 32.0975C10.1027 32.1061 10.1188 32.1157 10.1381 32.1243L10.1466 32.1281C10.2998 32.2003 10.4636 32.2646 10.6221 32.3321C10.628 29.3934 10.7169 26.3375 10.8513 24.1014C11.3386 15.9998 11.933 12.1444 12.1793 11.384C11.933 12.1444 10.8031 15.9998 10.3159 24.1014C10.1756 26.4135 10.0845 29.0684 10.0845 32.0975Z" fill="#ED8D06"/>
<defs>
<linearGradient id="paint0_linear_65_7922" x1="18.1168" y1="0.698244" x2="18.4663" y2="61.1963" gradientUnits="userSpaceOnUse">
<stop stop-color="#FED724"/>
<stop offset="1" stop-color="#F98900"/>
</linearGradient>
<linearGradient id="paint1_linear_65_7922" x1="18.1166" y1="23.0353" x2="18.1166" y2="18.3655" gradientUnits="userSpaceOnUse">
<stop stop-color="#911625"/>
<stop offset="0.412" stop-color="#69101B"/>
<stop offset="0.788" stop-color="#4B0C13"/>
<stop offset="1" stop-color="#400A10"/>
</linearGradient>
<linearGradient id="paint2_linear_65_7922" x1="9.51456" y1="12.282" x2="9.51456" y2="33.2536" gradientUnits="userSpaceOnUse">
<stop stop-color="#8AD4FF"/>
<stop offset="0.535" stop-color="#3E9FF5"/>
<stop offset="1" stop-color="#0073ED"/>
</linearGradient>
<linearGradient id="paint3_linear_65_7922" x1="26.684" y1="12.222" x2="26.684" y2="33.131" gradientUnits="userSpaceOnUse">
<stop stop-color="#8AD4FF"/>
<stop offset="0.535" stop-color="#3E9FF5"/>
<stop offset="1" stop-color="#0073ED"/>
</linearGradient>
<linearGradient id="paint4_linear_65_7922" x1="2.901" y1="35.5685" x2="8.11164" y2="32.4665" gradientUnits="userSpaceOnUse">
<stop stop-color="#8AD4FF"/>
<stop offset="0.26" stop-color="#5AB3F9"/>
<stop offset="0.745" stop-color="#0577EE"/>
<stop offset="1" stop-color="#0073ED"/>
</linearGradient>
<linearGradient id="paint5_linear_65_7922" x1="32.4484" y1="35.9872" x2="28.4575" y2="33.1107" gradientUnits="userSpaceOnUse">
<stop stop-color="#8AD4FF"/>
<stop offset="0.26" stop-color="#5AB3F9"/>
<stop offset="0.745" stop-color="#0577EE"/>
<stop offset="1" stop-color="#0073ED"/>
</linearGradient>
<linearGradient id="paint6_linear_65_7922" x1="27.1071" y1="10.8282" x2="26.8233" y2="12.0052" gradientUnits="userSpaceOnUse">
<stop stop-color="#803F02"/>
<stop offset="0.174" stop-color="#6D3602"/>
<stop offset="0.515" stop-color="#4D2601"/>
<stop offset="0.802" stop-color="#3A1C01"/>
<stop offset="1" stop-color="#331901"/>
</linearGradient>
<linearGradient id="paint7_linear_65_7922" x1="29.7908" y1="10.9717" x2="23.6463" y2="6.90591" gradientUnits="userSpaceOnUse">
<stop offset="0.005" stop-color="#414D4D"/>
<stop offset="0.206" stop-color="#3A4545"/>
<stop offset="0.522" stop-color="#272E2E"/>
<stop offset="0.914" stop-color="#080909"/>
<stop offset="1"/>
</linearGradient>
<linearGradient id="paint8_linear_65_7922" x1="9.12605" y1="10.8282" x2="9.40985" y2="12.0052" gradientUnits="userSpaceOnUse">
<stop stop-color="#803F02"/>
<stop offset="0.174" stop-color="#6D3602"/>
<stop offset="0.515" stop-color="#4D2601"/>
<stop offset="0.802" stop-color="#3A1C01"/>
<stop offset="1" stop-color="#331901"/>
</linearGradient>
<linearGradient id="paint9_linear_65_7922" x1="5.99785" y1="11.1581" x2="13.1062" y2="6.88128" gradientUnits="userSpaceOnUse">
<stop offset="0.005" stop-color="#414D4D"/>
<stop offset="0.206" stop-color="#3A4545"/>
<stop offset="0.522" stop-color="#272E2E"/>
<stop offset="0.914" stop-color="#080909"/>
<stop offset="1"/>
</linearGradient>
</defs>
</svg>
