<svg width="34" height="34" viewBox="0 0 34 34" fill="none" xmlns="http://www.w3.org/2000/svg">
<g clip-path="url(#clip0_65_7907)">
<path d="M17.0552 33.5706C26.3255 33.5706 33.8405 26.0555 33.8405 16.7853C33.8405 7.51502 26.3255 0 17.0552 0C7.78497 0 0.269943 7.51502 0.269943 16.7853C0.269943 26.0555 7.78497 33.5706 17.0552 33.5706Z" fill="#FFDA24"/>
<path d="M33.8405 16.7853C33.8405 26.0552 26.3252 33.5705 17.0552 33.5705C7.78531 33.5705 0.269966 26.0552 0.269966 16.7853C0.269966 16.1198 0.308651 15.4634 0.384054 14.8182C1.35773 23.161 8.45082 29.6365 17.0552 29.6365C25.6597 29.6365 32.7528 23.161 33.7264 14.8182C33.8018 15.4634 33.8405 16.1198 33.8405 16.7853Z" fill="#FFC024"/>
<path d="M10.513 15.1061H23.5983C24.6014 15.1061 25.4158 15.9204 25.4158 16.9236V16.9557C25.4158 21.552 21.6843 25.2835 17.0881 25.2835H17.0559C12.4419 25.2835 8.69608 21.5376 8.69608 16.9236C8.69608 15.9204 9.51042 15.1061 10.5136 15.1061H10.513Z" fill="#473535"/>
<path d="M22.2217 23.5132C20.8068 24.6219 19.0246 25.2835 17.0871 25.2835H17.055C15.1083 25.2835 13.3176 24.6186 11.8968 23.5027C13.0632 21.9225 14.9398 20.897 17.055 20.897C19.1702 20.897 21.0553 21.9264 22.2217 23.5132Z" fill="#FF7E27"/>
<path d="M24.5062 15.35V15.8332C24.5062 17.0371 23.5299 18.014 22.3254 18.014H11.7847C10.5803 18.014 9.60397 17.0371 9.60397 15.8332V15.35C9.87149 15.1953 10.1816 15.1068 10.5127 15.1068H23.598C23.9285 15.1068 24.2393 15.1953 24.5068 15.35H24.5062Z" fill="white"/>
<path d="M19.9348 11.0907C19.7283 11.0907 19.5198 11.035 19.331 10.9183C18.792 10.5845 18.6268 9.87642 18.9599 9.33745C19.1316 9.0601 20.702 6.62689 22.9372 6.62689C25.1724 6.62689 26.7427 9.0601 26.9145 9.33745C27.2482 9.87642 27.0817 10.5832 26.5427 10.917C26.0044 11.2501 25.2989 11.0848 24.9652 10.5478C24.6321 10.0167 23.6984 8.9211 22.9378 8.9211C22.1773 8.9211 21.2436 10.0167 20.9105 10.5478C20.6935 10.898 20.3191 11.0907 19.9355 11.0907H19.9348Z" fill="#473535"/>
<path d="M8.1707 11.0907C7.96416 11.0907 7.75565 11.035 7.56682 10.9183C7.02785 10.5845 6.86262 9.87642 7.19571 9.33745C7.36749 9.0601 8.93783 6.62689 11.173 6.62689C13.4082 6.62689 14.9786 9.0601 15.1504 9.33745C15.4841 9.87642 15.3176 10.5832 14.7786 10.917C14.2396 11.2507 13.5328 11.0842 13.1991 10.5452C12.8679 10.0174 11.9343 8.92175 11.1737 8.92175C10.4131 8.92175 9.47942 10.0174 9.14634 10.5485C8.92931 10.8986 8.55492 11.0914 8.17135 11.0914L8.1707 11.0907Z" fill="#473535"/>
</g>
<defs>
<clipPath id="clip0_65_7907">
<rect width="33.5706" height="33.5706" fill="white" transform="translate(0.269943)"/>
</clipPath>
</defs>
</svg>
