<svg width="35" height="35" viewBox="0 0 35 35" fill="none" xmlns="http://www.w3.org/2000/svg">
<g clip-path="url(#clip0_65_7889)">
<path d="M17.135 34.2699C26.5984 34.2699 34.2699 26.5984 34.2699 17.135C34.2699 7.67159 26.5984 0 17.135 0C7.67159 0 0 7.67159 0 17.135C0 26.5984 7.67159 34.2699 17.135 34.2699Z" fill="#FFD93B"/>
<path d="M34.2699 17.135C34.2699 26.602 26.5967 34.2699 17.1349 34.2699C11.7481 34.2699 6.93963 31.7853 3.79643 27.8925C6.73615 30.27 10.4791 31.689 14.554 31.689C24.0157 31.689 31.6889 24.0211 31.6889 14.554C31.6889 10.4791 30.27 6.73617 27.8925 3.79645C31.78 6.93964 34.2699 11.7481 34.2699 17.135Z" fill="#F4C534"/>
<path d="M28.8691 21.6382C27.6054 26.9501 22.8398 30.9125 17.1317 30.9125C11.4236 30.9125 6.65793 26.9501 5.39423 21.6275C5.29784 21.2206 5.67267 20.8672 6.06892 20.985C13.5012 23.2018 20.88 23.2446 28.1944 20.9957C28.6014 20.8672 28.9655 21.2313 28.8691 21.6382Z" fill="#3E4347"/>
<path d="M16.4422 26.42C12.0557 26.42 8.93066 25.1295 9.53896 28.1795C9.54217 28.1956 9.54859 28.2106 9.55181 28.2266C11.6219 29.9048 14.2564 30.9115 17.1319 30.9115C20.0074 30.9115 22.6419 29.9037 24.712 28.2277C24.7152 28.2106 24.7216 28.1956 24.7248 28.1795C25.3331 25.1295 20.8298 26.42 16.4422 26.42Z" fill="#E24B4B"/>
<path d="M6.24017 21.03C6.88809 23.3539 11.5038 25.1466 17.1102 25.1466C22.6962 25.1466 27.2969 23.3668 27.9716 21.0546C20.7867 23.2179 13.5397 23.174 6.24017 21.03Z" fill="white"/>
<path d="M24.2835 20.954C27.9227 20.954 30.8729 18.0038 30.8729 14.3645C30.8729 10.7252 27.9227 7.77502 24.2835 7.77502C20.6442 7.77502 17.694 10.7252 17.694 14.3645C17.694 18.0038 20.6442 20.954 24.2835 20.954Z" fill="#F4C534"/>
<path d="M29.9242 14.3666C29.7507 17.5013 27.0862 20.0404 23.9709 20.0404C20.8566 20.0404 18.463 17.5002 18.6365 14.3666C18.81 11.232 21.4852 8.68317 24.5995 8.68317C27.7138 8.68317 30.0977 11.2331 29.9242 14.3666Z" fill="white"/>
<path d="M26.9534 14.3623C26.9598 15.8391 25.7571 17.0418 24.2803 17.0354C22.8035 17.0418 21.5998 15.8381 21.6073 14.3613C21.6008 12.8844 22.8035 11.6818 24.2803 11.6882C25.7571 11.6818 26.9598 12.8855 26.9534 14.3623Z" fill="#3E4347"/>
<path d="M25.6232 13.0195C25.3116 12.7079 24.897 12.6174 24.6971 12.8173C24.4972 13.0172 24.5877 13.4318 24.8993 13.7434C25.2108 14.055 25.6255 14.1455 25.8254 13.9456C26.0253 13.7457 25.9348 13.331 25.6232 13.0195Z" fill="white"/>
<path d="M9.98771 20.954C13.627 20.954 16.5772 18.0038 16.5772 14.3645C16.5772 10.7252 13.627 7.77502 9.98771 7.77502C6.34844 7.77502 3.39824 10.7252 3.39824 14.3645C3.39824 18.0038 6.34844 20.954 9.98771 20.954Z" fill="#F4C534"/>
<path d="M4.34695 14.3666C4.52044 17.5013 7.18493 20.0404 10.3003 20.0404C13.4146 20.0404 15.8081 17.5002 15.6346 14.3666C15.4611 11.232 12.7859 8.68317 9.67164 8.68317C6.55629 8.68317 4.17346 11.2331 4.34695 14.3666Z" fill="white"/>
<path d="M7.3166 14.3623C7.31017 15.8391 8.51284 17.0418 9.98966 17.0354C11.4665 17.0418 12.6691 15.8381 12.6627 14.3613C12.6691 12.8844 11.4665 11.6818 9.98966 11.6882C8.51391 11.6818 7.31017 12.8855 7.3166 14.3623Z" fill="#3E4347"/>
<path d="M9.57288 12.8192C9.37297 12.6193 8.95833 12.7098 8.64675 13.0214C8.33518 13.333 8.24465 13.7476 8.44456 13.9475C8.64447 14.1474 9.05912 14.0569 9.37069 13.7454C9.68227 13.4338 9.77279 13.0191 9.57288 12.8192Z" fill="white"/>
<path d="M10.3847 4.88133C10.3847 4.88133 6.90309 4.39191 3.24799 8.62318C3.24799 8.62318 5.61154 1.0431 10.3847 4.88133Z" fill="#3E4347"/>
<path d="M23.8849 4.88133C23.8849 4.88133 27.3666 4.39191 31.0217 8.62318C31.0217 8.62318 28.6581 1.0431 23.8849 4.88133Z" fill="#3E4347"/>
</g>
<defs>
<clipPath id="clip0_65_7889">
<rect width="34.2699" height="34.2699" fill="white"/>
</clipPath>
</defs>
</svg>
