<svg width="74" height="74" viewBox="0 0 74 74" fill="none" xmlns="http://www.w3.org/2000/svg">
<g clip-path="url(#clip0_65_8118)">
<path d="M37 66.6C53.3476 66.6 66.6 53.3477 66.6 37C66.6 20.6524 53.3476 7.40002 37 7.40002C20.6524 7.40002 7.4 20.6524 7.4 37C7.4 53.3477 20.6524 66.6 37 66.6Z" fill="#FFD825"/>
<path opacity="0.06" d="M66.6 37C66.6 33.67 66.045 30.4557 65.0275 27.4725C63.2237 41.5325 54.8987 67.4557 17.5981 59.3619C22.8012 63.8713 29.5769 66.6 37 66.6C53.3494 66.6 66.6 53.3494 66.6 37Z" fill="black"/>
<path opacity="0.35" d="M18.3844 22.0612C17.9219 22.0612 17.4363 21.8994 17.0431 21.5756C16.1644 20.8356 16.0487 19.5175 16.7887 18.6387C21.8994 12.58 27.9119 11.4469 28.1663 11.4006C29.2994 11.1925 30.3862 11.9556 30.5712 13.0887C30.7794 14.2219 30.0162 15.2856 28.9062 15.4937C28.7906 15.5169 24.0269 16.4881 19.9569 21.2981C19.5637 21.8069 18.9625 22.0612 18.3844 22.0612Z" fill="white"/>
<path d="M48.0537 41.6944C53.1113 41.6944 57.2112 37.5944 57.2112 32.5369C57.2112 27.4793 53.1113 23.3794 48.0537 23.3794C42.9962 23.3794 38.8962 27.4793 38.8962 32.5369C38.8962 37.5944 42.9962 41.6944 48.0537 41.6944Z" fill="#F7F7F7"/>
<path d="M45.8569 39.6132C48.6155 39.6132 50.8519 37.3768 50.8519 34.6182C50.8519 31.8595 48.6155 29.6232 45.8569 29.6232C43.0982 29.6232 40.8619 31.8595 40.8619 34.6182C40.8619 37.3768 43.0982 39.6132 45.8569 39.6132Z" fill="#232323"/>
<path d="M25.9462 41.6944C31.0038 41.6944 35.1038 37.5944 35.1038 32.5369C35.1038 27.4793 31.0038 23.3794 25.9462 23.3794C20.8887 23.3794 16.7887 27.4793 16.7887 32.5369C16.7887 37.5944 20.8887 41.6944 25.9462 41.6944Z" fill="#F7F7F7"/>
<path d="M28.1431 39.6132C30.9018 39.6132 33.1381 37.3768 33.1381 34.6182C33.1381 31.8595 30.9018 29.6232 28.1431 29.6232C25.3845 29.6232 23.1481 31.8595 23.1481 34.6182C23.1481 37.3768 25.3845 39.6132 28.1431 39.6132Z" fill="#232323"/>
<path d="M18.0144 22.6622C17.4131 22.6622 16.8119 22.6391 16.1875 22.5466C15.2625 22.431 14.615 21.5985 14.7306 20.6735C14.8462 19.7485 15.6787 19.1009 16.6037 19.2166C23.0787 19.9797 27.9812 15.1928 28.0506 15.1466C28.6981 14.4991 29.7619 14.4991 30.4325 15.1466C31.08 15.7941 31.08 16.8578 30.4325 17.5284C30.155 17.7366 25.1369 22.6622 18.0144 22.6622Z" fill="#191919"/>
<path d="M55.9856 22.6625C48.8631 22.6625 43.845 17.76 43.6138 17.5288C42.9663 16.8813 42.9431 15.8175 43.6138 15.1469C44.2613 14.4994 45.325 14.4763 45.9725 15.1469C46.0419 15.2163 50.9906 20.0032 57.4194 19.2169C58.3444 19.1013 59.1769 19.7719 59.2925 20.6738C59.4081 21.5988 58.7375 22.4313 57.8356 22.5469C57.1881 22.6163 56.5637 22.6625 55.9856 22.6625Z" fill="#191919"/>
<path d="M42.8506 53.1875C42.5731 53.1875 42.2956 53.1182 42.0181 52.9794C41.9719 52.9563 39.8212 51.8694 36.9769 51.8694C34.1325 51.8694 31.9587 52.9794 31.9356 52.9794C31.0569 53.4419 29.97 53.095 29.5306 52.2163C29.0681 51.3375 29.415 50.2738 30.2706 49.8113C30.3862 49.7419 33.2075 48.285 36.9769 48.285C40.7462 48.285 43.5675 49.765 43.6831 49.8113C44.5619 50.2738 44.8856 51.3607 44.4231 52.2394C44.1225 52.8407 43.4981 53.1875 42.8506 53.1875Z" fill="#191919"/>
<path d="M21.5525 48.2157C21.5525 52.91 18.5462 55.5925 14.8231 55.5925C11.1 55.5925 8.11687 52.9563 8.11687 48.2157C8.11687 42.8507 14.8462 34.0169 14.8462 34.0169C14.8462 34.0169 21.5525 42.8738 21.5525 48.2157Z" fill="#55D3FF"/>
</g>
<defs>
<clipPath id="clip0_65_8118">
<rect width="59.2" height="59.2" fill="white" transform="translate(7.4 7.40002)"/>
</clipPath>
</defs>
</svg>
