<svg width="12" height="19" viewBox="0 0 12 19" fill="none" xmlns="http://www.w3.org/2000/svg">
<path d="M10.3298 0.000312718C10.5983 -0.00559086 10.8618 0.0722185 11.0839 0.223043C11.3061 0.373867 11.4757 0.590252 11.5692 0.84192C11.6627 1.09359 11.6754 1.3681 11.6057 1.62736C11.536 1.88662 11.3872 2.11761 11.18 2.2884L3.27613 9.05955L11.18 15.8283C11.3233 15.9336 11.4433 16.0673 11.5325 16.2212C11.6217 16.375 11.6782 16.5457 11.6984 16.7224C11.7186 16.899 11.7021 17.078 11.65 17.248C11.5978 17.418 11.5112 17.5755 11.3953 17.7104C11.2795 17.8454 11.1371 17.9549 10.977 18.0322C10.8169 18.1096 10.6425 18.153 10.4648 18.1599C10.2871 18.1668 10.1099 18.137 9.94428 18.0722C9.77867 18.0074 9.62823 17.9091 9.50237 17.7834L0.453132 10.0409C0.311025 9.91963 0.196912 9.76911 0.118664 9.59946C0.0404165 9.42982 -0.00010341 9.24518 -0.00010341 9.05836C-0.00010341 8.87154 0.0404165 8.68689 0.118664 8.51725C0.196912 8.34761 0.311025 8.19693 0.453132 8.07566L9.50237 0.325693C9.73096 0.122646 10.0242 0.00750637 10.3298 0.000312718Z" fill="white"/>
</svg>
