<svg width="21" height="21" viewBox="0 0 21 21" fill="none" xmlns="http://www.w3.org/2000/svg">
<g clip-path="url(#clip0_763_238)">
<path d="M10.541 9.33105H11.5664C11.9062 9.33105 12.1816 9.05559 12.1816 8.71582C12.1816 8.37605 11.9062 8.10059 11.5664 8.10059H10.541C10.2012 8.10059 9.92578 8.37605 9.92578 8.71582C9.92578 9.05559 10.2012 9.33105 10.541 9.33105Z" fill="white"/>
<path d="M7.91602 8.10059H6.89062C6.55085 8.10059 6.27539 8.37605 6.27539 8.71582C6.27539 9.05559 6.55085 9.33105 6.89062 9.33105H7.91602C8.25579 9.33105 8.53125 9.05559 8.53125 8.71582C8.53125 8.37605 8.25579 8.10059 7.91602 8.10059Z" fill="white"/>
<path d="M14.1914 9.33105H15.2168C15.5566 9.33105 15.832 9.05559 15.832 8.71582C15.832 8.37605 15.5566 8.10059 15.2168 8.10059H14.1914C13.8516 8.10059 13.5762 8.37605 13.5762 8.71582C13.5762 9.05559 13.8516 9.33105 14.1914 9.33105Z" fill="white"/>
<path d="M4.26562 10.8691H3.24023C2.90046 10.8691 2.625 11.1446 2.625 11.4844C2.625 11.8241 2.90046 12.0996 3.24023 12.0996H4.26562C4.6054 12.0996 4.88086 11.8241 4.88086 11.4844C4.88086 11.1446 4.6054 10.8691 4.26562 10.8691Z" fill="white"/>
<path d="M7.91602 10.8691H6.89062C6.55085 10.8691 6.27539 11.1446 6.27539 11.4844C6.27539 11.8241 6.55085 12.0996 6.89062 12.0996H7.91602C8.25579 12.0996 8.53125 11.8241 8.53125 11.4844C8.53125 11.1446 8.25579 10.8691 7.91602 10.8691Z" fill="white"/>
<path d="M12.1816 11.4844C12.1816 11.1446 11.9062 10.8691 11.5664 10.8691H10.541C10.2012 10.8691 9.92578 11.1446 9.92578 11.4844C9.92578 11.8241 10.2012 12.0996 10.541 12.0996H11.5664C11.9062 12.0996 12.1816 11.8241 12.1816 11.4844Z" fill="white"/>
<path d="M4.26562 13.6377H3.24023C2.90046 13.6377 2.625 13.9132 2.625 14.2529C2.625 14.5927 2.90046 14.8682 3.24023 14.8682H4.26562C4.6054 14.8682 4.88086 14.5927 4.88086 14.2529C4.88086 13.9132 4.6054 13.6377 4.26562 13.6377Z" fill="white"/>
<path d="M7.91602 13.6377H6.89062C6.55085 13.6377 6.27539 13.9132 6.27539 14.2529C6.27539 14.5927 6.55085 14.8682 6.89062 14.8682H7.91602C8.25579 14.8682 8.53125 14.5927 8.53125 14.2529C8.53125 13.9132 8.25579 13.6377 7.91602 13.6377Z" fill="white"/>
<path d="M18.457 11.4465V3.48633C18.457 2.24245 17.4451 1.23047 16.2012 1.23047H15.0117V0.615234C15.0117 0.275461 14.7363 0 14.3965 0C14.0567 0 13.7812 0.275461 13.7812 0.615234V1.23047H11.5664V0.615234C11.5664 0.275461 11.2909 0 10.9512 0C10.6114 0 10.3359 0.275461 10.3359 0.615234V1.23047H8.12109V0.615234C8.12109 0.275461 7.84563 0 7.50586 0C7.16609 0 6.89062 0.275461 6.89062 0.615234V1.23047H4.67578V0.615234C4.67578 0.275461 4.40032 0 4.06055 0C3.72077 0 3.44531 0.275461 3.44531 0.615234V1.23047H2.25586C1.01198 1.23047 0 2.24245 0 3.48633V15.791C0 16.8087 0.827982 17.6367 1.8457 17.6367H11.0587C11.7793 19.5975 13.6655 21 15.873 21C18.7 21 21 18.7 21 15.873C21 13.9878 19.9769 12.3371 18.457 11.4465ZM1.23047 3.48633C1.23047 2.92093 1.69046 2.46094 2.25586 2.46094H3.44531V3.07617C3.44531 3.41595 3.72077 3.69141 4.06055 3.69141C4.40032 3.69141 4.67578 3.41595 4.67578 3.07617V2.46094H6.89062V3.07617C6.89062 3.41595 7.16609 3.69141 7.50586 3.69141C7.84563 3.69141 8.12109 3.41595 8.12109 3.07617V2.46094H10.3359V3.07617C10.3359 3.41595 10.6114 3.69141 10.9512 3.69141C11.2909 3.69141 11.5664 3.41595 11.5664 3.07617V2.46094H13.7812V3.07617C13.7812 3.41595 14.0567 3.69141 14.3965 3.69141C14.7363 3.69141 15.0117 3.41595 15.0117 3.07617V2.46094H16.2012C16.7666 2.46094 17.2266 2.92093 17.2266 3.48633V5.33203H1.23047V3.48633ZM1.8457 16.4062C1.50646 16.4062 1.23047 16.1303 1.23047 15.791V6.5625H17.2266V10.9278C16.7952 10.8096 16.3414 10.7461 15.873 10.7461C13.046 10.7461 10.7461 13.046 10.7461 15.873C10.7461 16.0531 10.7555 16.2309 10.7737 16.4062H1.8457ZM15.873 19.7695C13.7245 19.7695 11.9766 18.0216 11.9766 15.873C11.9766 13.7245 13.7245 11.9766 15.873 11.9766C18.0216 11.9766 19.7695 13.7245 19.7695 15.873C19.7695 18.0216 18.0216 19.7695 15.873 19.7695Z" fill="white"/>
<path d="M17.9238 15.2578H16.4883V13.8223C16.4883 13.4825 16.2128 13.207 15.873 13.207C15.5333 13.207 15.2578 13.4825 15.2578 13.8223V15.873C15.2578 16.2128 15.5333 16.4883 15.873 16.4883H17.9238C18.2636 16.4883 18.5391 16.2128 18.5391 15.873C18.5391 15.5333 18.2636 15.2578 17.9238 15.2578Z" fill="white"/>
</g>
<defs>
<clipPath id="clip0_763_238">
<rect width="21" height="21" fill="white"/>
</clipPath>
</defs>
</svg>
