<svg width="23" height="21" viewBox="0 0 23 21" fill="none" xmlns="http://www.w3.org/2000/svg">
<path d="M18.5312 1.90625H16.9688V1.125C16.9688 0.695322 16.6172 0.34375 16.1875 0.34375C15.7578 0.34375 15.4062 0.695322 15.4062 1.125V1.90625H12.2812V1.125C12.2812 0.695322 11.9297 0.34375 11.5 0.34375C11.0703 0.34375 10.7188 0.695322 10.7188 1.125V1.90625H7.59375V1.125C7.59375 0.695322 7.24218 0.34375 6.8125 0.34375C6.38282 0.34375 6.03125 0.695322 6.03125 1.125V1.90625H4.46875C2.31249 1.90625 0.5625 3.65624 0.5625 5.8125V16.75C0.5625 18.9063 2.31249 20.6562 4.46875 20.6562H18.5312C20.6875 20.6562 22.4375 18.9063 22.4375 16.75V5.8125C22.4375 3.65624 20.6875 1.90625 18.5312 1.90625ZM20.875 16.75C20.875 18.039 19.8203 19.0938 18.5312 19.0938H4.46875C3.17967 19.0938 2.125 18.039 2.125 16.75V5.8125C2.125 4.52342 3.17967 3.46875 4.46875 3.46875H6.03125V5.03125C6.03125 5.46093 6.38282 5.8125 6.8125 5.8125C7.24218 5.8125 7.59375 5.46093 7.59375 5.03125V3.46875H10.7188V5.03125C10.7188 5.46093 11.0703 5.8125 11.5 5.8125C11.9297 5.8125 12.2812 5.46093 12.2812 5.03125V3.46875H15.4062V5.03125C15.4062 5.46093 15.7578 5.8125 16.1875 5.8125C16.6172 5.8125 16.9688 5.46093 16.9688 5.03125V3.46875H18.5312C19.8203 3.46875 20.875 4.52342 20.875 5.8125V16.75Z" fill="white"/>
<path d="M0.5625 6.59375V8.15625H22.4375V6.59375H0.5625ZM18.5312 14.4062H16.1875C15.7578 14.4062 15.4062 14.7578 15.4062 15.1875C15.4062 15.6172 15.7578 15.9688 16.1875 15.9688H18.5312C18.9609 15.9688 19.3125 15.6172 19.3125 15.1875C19.3125 14.7578 18.9609 14.4062 18.5312 14.4062ZM13.0625 14.4062H9.9375C9.50782 14.4062 9.15625 14.7578 9.15625 15.1875C9.15625 15.6172 9.50782 15.9688 9.9375 15.9688H13.0625C13.4922 15.9688 13.8438 15.6172 13.8438 15.1875C13.8438 14.7578 13.4922 14.4062 13.0625 14.4062ZM6.8125 14.4062H4.46875C4.03907 14.4062 3.6875 14.7578 3.6875 15.1875C3.6875 15.6172 4.03907 15.9688 4.46875 15.9688H6.8125C7.24218 15.9688 7.59375 15.6172 7.59375 15.1875C7.59375 14.7578 7.24218 14.4062 6.8125 14.4062ZM18.5312 10.5H16.1875C15.7578 10.5 15.4062 10.8516 15.4062 11.2812C15.4062 11.7109 15.7578 12.0625 16.1875 12.0625H18.5312C18.9609 12.0625 19.3125 11.7109 19.3125 11.2812C19.3125 10.8516 18.9609 10.5 18.5312 10.5ZM13.0625 10.5H9.9375C9.50782 10.5 9.15625 10.8516 9.15625 11.2812C9.15625 11.7109 9.50782 12.0625 9.9375 12.0625H13.0625C13.4922 12.0625 13.8438 11.7109 13.8438 11.2812C13.8438 10.8516 13.4922 10.5 13.0625 10.5ZM6.8125 10.5H4.46875C4.03907 10.5 3.6875 10.8516 3.6875 11.2812C3.6875 11.7109 4.03907 12.0625 4.46875 12.0625H6.8125C7.24218 12.0625 7.59375 11.7109 7.59375 11.2812C7.59375 10.8516 7.24218 10.5 6.8125 10.5Z" fill="white"/>
</svg>
