<svg width="33" height="33" viewBox="0 0 33 33" fill="none" xmlns="http://www.w3.org/2000/svg">
<path fill-rule="evenodd" clip-rule="evenodd" d="M16.5 30.2482C23.7487 30.2482 29.625 24.1722 29.625 16.6768C29.625 9.18151 23.7487 3.10537 16.5 3.10537C9.25126 3.10537 3.375 9.18151 3.375 16.6768C3.375 24.1722 9.25126 30.2482 16.5 30.2482ZM16.5 32.9625C25.1986 32.9625 32.25 25.6712 32.25 16.6768C32.25 7.68245 25.1986 0.391083 16.5 0.391083C7.80152 0.391083 0.75 7.68245 0.75 16.6768C0.75 25.6712 7.80152 32.9625 16.5 32.9625Z" fill="white"/>
<path fill-rule="evenodd" clip-rule="evenodd" d="M15.625 7.1768C16.3499 7.1768 16.9375 7.78442 16.9375 8.53395V17.0195L21.803 22.0505C22.3156 22.5805 22.3156 23.4399 21.803 23.9699C21.2905 24.4997 20.4596 24.4997 19.947 23.9699L14.3125 18.1437V8.53395C14.3125 7.78442 14.9001 7.1768 15.625 7.1768Z" fill="white"/>
</svg>
