<svg width="23" height="23" viewBox="0 0 23 23" fill="none" xmlns="http://www.w3.org/2000/svg">
<path d="M19.9575 5.17215L16.2408 1.45549C15.8125 1.02712 15.2425 0.790649 14.6359 0.790649H7.67836C6.4263 0.790649 5.40711 1.80912 5.40711 3.0619V3.82377H4.64523C3.39533 3.82377 2.3783 4.84081 2.3783 6.09071V19.9425C2.3783 21.1924 3.39533 22.2094 4.64523 22.2094H15.3273C16.5772 22.2094 17.5942 21.1924 17.5942 19.9425V19.1784H18.3518C19.6031 19.1784 20.6216 18.16 20.6216 16.9093V6.77568C20.6216 6.17912 20.3794 5.59406 19.9575 5.17215ZM18.4107 5.45534H16.9258C16.391 5.45534 15.9555 5.02049 15.9555 4.48502V3.00009L18.4107 5.45534ZM16.3005 19.9425C16.3005 20.4794 15.8642 20.9157 15.3273 20.9157H4.64523C4.10905 20.9157 3.67205 20.4794 3.67205 19.9425V6.09071C3.67205 5.55381 4.10833 5.11752 4.64523 5.11752H5.40783V16.9101C5.40783 18.1607 6.4263 19.1784 7.67692 19.1784H16.3005V19.9425ZM19.3279 16.9093C19.3279 17.4477 18.8909 17.8847 18.3525 17.8847H7.67692C7.1393 17.8847 6.7023 17.4477 6.7023 16.9101V3.0619C6.7023 2.52284 7.14001 2.0844 7.67908 2.0844H14.6366C14.6452 2.0844 14.6531 2.08943 14.6617 2.08943V4.48502C14.6617 5.73349 15.6773 6.74909 16.9258 6.74909H19.3221C19.3221 6.75843 19.3271 6.76634 19.3271 6.77568V16.9093H19.3279Z" fill="white"/>
<path d="M9.50759 9.90081H12.3007C12.6579 9.90081 12.9475 9.61115 12.9475 9.25393C12.9475 8.89671 12.6579 8.60706 12.3007 8.60706H9.50759C9.15037 8.60706 8.86072 8.89671 8.86072 9.25393C8.86072 9.61115 9.14966 9.90081 9.50759 9.90081Z" fill="white"/>
<path d="M16.5219 11.6711H9.50686C9.14964 11.6711 8.85999 11.9608 8.85999 12.318C8.85999 12.6752 9.14964 12.9649 9.50686 12.9649H16.5219C16.8791 12.9649 17.1687 12.6752 17.1687 12.318C17.1687 11.9608 16.8791 11.6711 16.5219 11.6711Z" fill="white"/>
<path d="M15.0484 14.7351H9.50759C9.15037 14.7351 8.86072 15.0248 8.86072 15.382C8.86072 15.7392 9.15037 16.0289 9.50759 16.0289H15.0484C15.4057 16.0289 15.6953 15.7392 15.6953 15.382C15.6953 15.0248 15.4057 14.7351 15.0484 14.7351Z" fill="white"/>
</svg>
