<svg id="Group_52" data-name="Group 52" xmlns="http://www.w3.org/2000/svg" width="25.002" height="25.002" viewBox="0 0 25.002 25.002">
  <path id="Path_224" data-name="Path 224" d="M8.167,14.5l-.5-.667-1.333,1,.5.667Zm10,1,.5-.667-1.333-1-.5.667ZM12.5,23.335A10.833,10.833,0,0,1,1.667,12.5H0A12.5,12.5,0,0,0,12.5,25ZM23.335,12.5A10.833,10.833,0,0,1,12.5,23.335V25A12.5,12.5,0,0,0,25,12.5ZM12.5,1.667A10.833,10.833,0,0,1,23.335,12.5H25A12.5,12.5,0,0,0,12.5,0ZM12.5,0A12.5,12.5,0,0,0,0,12.5H1.667A10.833,10.833,0,0,1,12.5,1.667ZM6.667,10H8.334V8.334H6.667Zm10,0h1.667V8.334H16.668Zm.167,4.5a5.415,5.415,0,0,1-8.667,0l-1.333,1a7.086,7.086,0,0,0,11.334,0Z" fill="#c2c2c2"/>
  <path id="Path_225" data-name="Path 225" d="M0,0H25V25H0Z" fill="none"/>
</svg>
