<svg id="Group_50" data-name="Group 50" xmlns="http://www.w3.org/2000/svg" width="30" height="30" viewBox="0 0 30 30">
  <path id="Path_216" data-name="Path 216" d="M4.825,14.289l.725.444.431-.8C6.956,12.307,9.925,8.514,16.5,8.514a12.022,12.022,0,0,1,10.55,5.475l.481.75,1.5-.95-.5-.781a14.186,14.186,0,0,0-3.562-3.7A14.318,14.318,0,0,0,16.5,6.77c-7.506,0-10.937,4.406-12.069,6.288L4,13.789l.662.4a.566.566,0,0,0,.1.069A.292.292,0,0,0,4.825,14.289Z" transform="translate(-1.5 -2.539)" fill="#c2c2c2"/>
  <path id="Path_217" data-name="Path 217" d="M24.507,14.6A11.344,11.344,0,0,0,6.545,19.71c-1.125,3.544.244,8.675.3,8.894l.256.813,1.756-.375-.275-.881c-.012-.044-1.3-4.856-.319-7.925a9.668,9.668,0,0,1,3.006-4.381,9.375,9.375,0,0,1,6.019-2.094A10.137,10.137,0,0,1,26.457,20.1a5.225,5.225,0,0,1-.369,4.806,2.055,2.055,0,0,1-1.769.894c-1.975-.1-2.319-1.081-2.8-2.944a6.73,6.73,0,0,0-1.044-2.575,3.718,3.718,0,0,0-3.181-1.369,4.13,4.13,0,0,0-3.481,1.506c-1.675,2.181-.581,5.913-.538,6.069l.012.05c.081.225,2.112,5.663,7.556,7.013l.863.188.475-1.681-.894-.2c-4.35-1.081-6.162-5.531-6.306-5.881a9.235,9.235,0,0,1-.3-1.75,4.234,4.234,0,0,1,.556-2.763,2.412,2.412,0,0,1,2.05-.806c1.744,0,2.038.85,2.494,2.625.444,1.725,1.056,4.094,4.444,4.262a3.828,3.828,0,0,0,3.3-1.619,6.884,6.884,0,0,0,.6-6.456A12.17,12.17,0,0,0,24.507,14.6Z" transform="translate(-2.288 -4.504)" fill="#c2c2c2"/>
  <path id="Path_218" data-name="Path 218" d="M13.348,26.634A7.672,7.672,0,0,1,14.9,20.846a5.671,5.671,0,0,1,4.406-1.7,5.361,5.361,0,0,1,4.956,2.906,9.018,9.018,0,0,1,1.044,3.119l.087.862,1.756-.131a6.336,6.336,0,0,0-.062-.913,10.786,10.786,0,0,0-1.225-3.738,7.152,7.152,0,0,0-6.55-3.862,7.4,7.4,0,0,0-5.744,2.294,9.276,9.276,0,0,0-1.988,7.169v.019a14.07,14.07,0,0,0,3.875,8.037l.675.656,1.231-1.281-.606-.569A12.329,12.329,0,0,1,13.348,26.634Z" transform="translate(-4.317 -6.521)" fill="#c2c2c2"/>
  <path id="Path_219" data-name="Path 219" d="M11.243,4.819c.65-.394,2.944-1.569,7.237-1.569,5.131,0,7.406,1.681,7.431,1.694l.819.525.95-1.481-.775-.5h0c-.031-.025-.062-.044-.094-.069C26.067,2.938,23.436,1.5,18.48,1.5c-5.137,0-7.781,1.55-8.4,1.975h0l-.8.519.95,1.475Z" transform="translate(-3.48 -0.563)" fill="#c2c2c2"/>
  <path id="Path_220" data-name="Path 220" d="M31.3,35.071a6.209,6.209,0,0,1-4.731-1.106A7.092,7.092,0,0,1,24.3,29.509l-.069-.869-1.788.131.075.875A8.76,8.76,0,0,0,25.421,35.3a7.438,7.438,0,0,0,4.819,1.581A12.115,12.115,0,0,0,31.5,36.8l.975-.119-.356-1.744Z" transform="translate(-8.415 -10.74)" fill="#c2c2c2"/>
  <path id="Path_221" data-name="Path 221" d="M0,0H30V30H0Z" fill="none"/>
</svg>
