<svg width="21" height="21" viewBox="0 0 21 21" fill="none" xmlns="http://www.w3.org/2000/svg">
<g clip-path="url(#clip0_763_252)">
<path d="M10.5001 12.1347C11.3984 12.1347 12.1267 11.4065 12.1267 10.5081C12.1267 9.60974 11.3984 8.88147 10.5001 8.88147C9.60168 8.88147 8.87341 9.60974 8.87341 10.5081C8.87341 11.4065 9.60168 12.1347 10.5001 12.1347Z" fill="white"/>
<path d="M15.3799 12.1347C16.2783 12.1347 17.0066 11.4065 17.0066 10.5081C17.0066 9.60974 16.2783 8.88147 15.3799 8.88147C14.4816 8.88147 13.7533 9.60974 13.7533 10.5081C13.7533 11.4065 14.4816 12.1347 15.3799 12.1347Z" fill="white"/>
<path d="M5.62005 12.1347C6.51841 12.1347 7.24669 11.4065 7.24669 10.5081C7.24669 9.60974 6.51841 8.88147 5.62005 8.88147C4.72168 8.88147 3.99341 9.60974 3.99341 10.5081C3.99341 11.4065 4.72168 12.1347 5.62005 12.1347Z" fill="white"/>
<path d="M10.5 0C4.70995 0 0 4.70995 0 10.5C0 16.2901 4.70995 21 10.5 21C16.2901 21 21 16.2892 21 10.5C21 4.71077 16.2901 0 10.5 0ZM10.5 19.3734C5.60786 19.3734 1.62664 15.393 1.62664 10.5C1.62664 5.60704 5.60786 1.62664 10.5 1.62664C15.393 1.62664 19.3734 5.60704 19.3734 10.5C19.3734 15.393 15.3921 19.3734 10.5 19.3734Z" fill="white"/>
</g>
<defs>
<clipPath id="clip0_763_252">
<rect width="21" height="21" fill="white"/>
</clipPath>
</defs>
</svg>
