<svg id="barcode-scanner" xmlns="http://www.w3.org/2000/svg" width="533.887" height="533.887" viewBox="0 0 533.887 533.887">
  <path id="Path_4178" data-name="Path 4178" d="M171.717,177.962a22.239,22.239,0,0,1-22.245-22.245V66.736a22.268,22.268,0,0,0-22.245-22.245H38.245A22.245,22.245,0,0,1,38.245,0h88.981a66.817,66.817,0,0,1,66.736,66.736v88.981A22.239,22.239,0,0,1,171.717,177.962Z" transform="translate(339.924)" fill="#fff"/>
  <path id="Path_4179" data-name="Path 4179" d="M127.226,193.962H38.245a22.245,22.245,0,0,1,0-44.491h88.981a22.268,22.268,0,0,0,22.245-22.245V38.245a22.245,22.245,0,0,1,44.491,0v88.981A66.817,66.817,0,0,1,127.226,193.962Z" transform="translate(339.924 339.924)" fill="#fff"/>
  <path id="Path_4180" data-name="Path 4180" d="M155.717,193.962H66.736A66.817,66.817,0,0,1,0,127.226V38.245a22.245,22.245,0,0,1,44.491,0v88.981a22.268,22.268,0,0,0,22.245,22.245h88.981a22.245,22.245,0,1,1,0,44.491Z" transform="translate(0 339.924)" fill="#fff"/>
  <path id="Path_4181" data-name="Path 4181" d="M22.245,177.962A22.239,22.239,0,0,1,0,155.717V66.736A66.817,66.817,0,0,1,66.736,0h88.981a22.245,22.245,0,1,1,0,44.491H66.736A22.268,22.268,0,0,0,44.491,66.736v88.981A22.239,22.239,0,0,1,22.245,177.962Z" fill="#fff"/>
  <path id="Path_4182" data-name="Path 4182" d="M294.189,138.472a22.239,22.239,0,0,1-22.245-22.245V49.491H49.491v66.736a22.245,22.245,0,1,1-44.491,0V49.491A44.535,44.535,0,0,1,49.491,5H271.943a44.535,44.535,0,0,1,44.491,44.491v66.736A22.239,22.239,0,0,1,294.189,138.472Z" transform="translate(106.226 106.226)" fill="#fff"/>
  <path id="Path_4183" data-name="Path 4183" d="M403.415,35.245A22.239,22.239,0,0,1,381.17,57.491H358.924v44.491a44.535,44.535,0,0,1-44.491,44.491H91.981a44.535,44.535,0,0,1-44.491-44.491V57.491H25.245a22.245,22.245,0,0,1,0-44.491H381.17A22.239,22.239,0,0,1,403.415,35.245Z" transform="translate(63.736 276.189)" fill="#f67714"/>
</svg>
