<svg width="21" height="21" viewBox="0 0 21 21" fill="none" xmlns="http://www.w3.org/2000/svg">
<g clip-path="url(#clip0_763_270)">
<path d="M3.99402 14.1418H0.690293C0.418482 14.1418 0.198105 14.3621 0.198105 14.6339V20.2943C0.198105 20.5661 0.418482 20.7865 0.690293 20.7865H3.99406C4.26587 20.7865 4.48625 20.5661 4.48625 20.2943V14.6339C4.48621 14.3621 4.26587 14.1418 3.99402 14.1418ZM3.50183 19.8021H1.18248V15.1261H3.50187L3.50183 19.8021ZM9.44393 8.84594H6.14016C5.86835 8.84594 5.64797 9.06631 5.64797 9.33812V20.1657C5.64797 20.4375 5.86835 20.6579 6.14016 20.6579H9.44393C9.71574 20.6579 9.93612 20.4375 9.93612 20.1657V9.33812C9.93612 9.06627 9.71578 8.84594 9.44393 8.84594ZM8.95174 19.6735H6.63235V9.83031H8.95174V19.6735ZM14.8938 10.6472H11.5901C11.3183 10.6472 11.0979 10.8676 11.0979 11.1394V20.0371C11.0979 20.3089 11.3183 20.5293 11.5901 20.5293H14.8938C15.1657 20.5293 15.386 20.3089 15.386 20.0371V11.1394C15.386 10.8676 15.1657 10.6472 14.8938 10.6472ZM14.4017 19.5449H12.0823V11.6316H14.4017V19.5449ZM20.3438 5.62978H17.04C16.7682 5.62978 16.5478 5.85016 16.5478 6.12197V19.9085C16.5478 20.1803 16.7682 20.4007 17.04 20.4007H20.3438C20.6156 20.4007 20.8359 20.1803 20.8359 19.9085V6.12197C20.8359 5.85011 20.6156 5.62978 20.3438 5.62978ZM19.8516 19.4163H17.5322V6.61415H19.8516V19.4163ZM2.01883 11.7243C3.0416 11.7243 3.87368 10.8923 3.87368 9.86952C3.87368 9.58036 3.80707 9.30646 3.68854 9.06225L6.77119 6.36424C7.06424 6.55821 7.41509 6.67153 7.79207 6.67153C8.42305 6.67153 8.98111 6.35461 9.31633 5.87181L11.392 6.59848C11.3891 6.64024 11.3872 6.68228 11.3872 6.72473C11.3872 7.74746 12.2193 8.5795 13.242 8.5795C14.2647 8.5795 15.0968 7.74746 15.0968 6.72473C15.0968 6.44341 15.0336 6.17668 14.921 5.93752L17.6525 3.60373C17.9492 3.8052 18.307 3.92312 18.6919 3.92312C19.7147 3.92312 20.5467 3.09103 20.5467 2.06827C20.5467 1.04554 19.7147 0.213501 18.6919 0.213501C17.6691 0.213501 16.8371 1.04554 16.8371 2.06827C16.8371 2.34959 16.9003 2.61632 17.0129 2.85544L14.2814 5.18927C13.9847 4.9878 13.6269 4.86988 13.242 4.86988C12.611 4.86988 12.053 5.18681 11.7178 5.6696L9.64212 4.94293C9.64495 4.90118 9.64687 4.85914 9.64687 4.81668C9.64687 3.79392 8.81479 2.96188 7.79203 2.96188C6.76926 2.96188 5.93722 3.79392 5.93722 4.81668C5.93722 5.10589 6.00383 5.37975 6.12236 5.62395L3.03967 8.32196C2.74661 8.128 2.39576 8.01471 2.01883 8.01471C0.996105 8.01476 0.164062 8.8468 0.164062 9.86952C0.164062 10.8922 0.996105 11.7243 2.01883 11.7243ZM18.6918 1.19792C19.1718 1.19792 19.5623 1.58839 19.5623 2.06831C19.5623 2.54827 19.1718 2.93878 18.6918 2.93878C18.2119 2.93878 17.8214 2.54827 17.8214 2.06831C17.8214 1.58839 18.2119 1.19792 18.6918 1.19792ZM13.2419 5.8543C13.7219 5.8543 14.1124 6.24481 14.1124 6.72477C14.1124 7.2047 13.7219 7.59517 13.2419 7.59517C12.762 7.59517 12.3715 7.2047 12.3715 6.72477C12.3715 6.24481 12.762 5.8543 13.2419 5.8543ZM7.79207 3.94629C8.27203 3.94629 8.66254 4.33676 8.66254 4.81673C8.66254 5.29673 8.27203 5.6872 7.79207 5.6872C7.3121 5.6872 6.92163 5.29669 6.92163 4.81673C6.92163 4.33676 7.3121 3.94629 7.79207 3.94629ZM2.01883 8.99913C2.49884 8.99913 2.8893 9.3896 2.8893 9.86952C2.8893 10.3495 2.4988 10.74 2.01883 10.74C1.53891 10.74 1.14844 10.3495 1.14844 9.86952C1.14844 9.3896 1.53891 8.99913 2.01883 8.99913Z" fill="white"/>
</g>
<defs>
<clipPath id="clip0_763_270">
<rect width="21" height="21" fill="white"/>
</clipPath>
</defs>
</svg>